<svg width="218" height="98" viewBox="0 0 218 98" fill="none" xmlns="http://www.w3.org/2000/svg">
<path d="M55.3412 7L46.5526 56.334H68.5842L70.3385 46.457H57.577L59.4689 35.798H70.9748L72.7291 25.938H61.2403L62.857 16.86H74.8101L76.5644 7H55.3412Z" fill="#404777"/>
<path d="M80.2794 31.004L79.7634 34.166H79.8494C80.761 32.228 82.8936 30.273 84.8714 30.273C87.8296 30.273 90.1514 32.126 89.5839 35.56L86.1441 56.317H79.8838L82.8592 38.246C82.9796 37.073 82.7388 36.07 81.5521 36.172C80.4342 36.223 79.729 36.937 79.5054 38.246L76.5129 56.334H70.2525L74.449 31.004H80.2794Z" fill="#404777"/>
<path d="M96.2914 40.048L96.5494 38.382C96.8246 36.614 97.4781 34.982 99.198 34.982C100.746 34.982 100.987 36.648 100.849 37.566L100.471 40.048H96.2914ZM105.733 44.808L106.851 37.566C107.694 32.092 104.082 30.188 99.8859 30.239C95.2251 30.29 91.4586 32.415 90.461 38.926L88.8787 49.245C87.9844 55.042 91.4414 57.167 95.7754 57.116C101.004 57.031 104.426 54.039 105.114 47.528H99.1292C98.682 49.653 98.5444 52.05 96.343 51.914C95.0359 51.829 94.6747 50.656 94.8983 49.245L95.5862 44.808H105.733Z" fill="#404777"/>
<path d="M115.468 30.885L114.832 34.727H114.918C116.104 32.007 118.013 30.154 120.731 30.154L119.389 38.297C118.753 38.161 118.099 38.11 117.446 38.11C115.588 38.11 114.78 38.518 114.316 40.592L111.736 56.198H105.183L109.362 30.868H115.468V30.885Z" fill="#404777"/>
<path d="M125.822 44.774L125.443 47.171C125.151 49.109 125.392 50.826 127.421 50.826C128.917 50.826 129.829 49.16 130.104 47.426C130.551 44.57 128.814 43.499 127.335 42.224C125.581 40.813 124.102 39.504 123.173 37.787C122.279 36.07 121.9 33.996 122.365 31.004C123.345 24.629 126.957 21.365 131.91 21.365C137.482 21.365 139.615 25.972 138.342 32.347H132.426C132.667 30.358 133.148 27.638 131.067 27.468C129.777 27.332 128.866 28.233 128.487 29.729C127.989 31.769 128.659 32.806 129.777 33.894C131.893 35.798 133.785 36.971 135.006 38.688C136.227 40.405 136.76 42.666 136.124 46.78C135.109 53.291 131.635 56.912 126.303 56.912C120.438 56.912 118.581 52.849 119.286 48.361L119.854 44.74H125.822V44.774Z" fill="#404777"/>
<path d="M145.428 47.324H145.497L150.158 30.953H156.074L148.833 52.611C146.236 59.479 145.428 64.817 138.841 64.817C137.775 64.817 137.087 64.596 136.485 64.596L137.328 59.258C137.706 59.309 138.101 59.343 138.48 59.445C139.099 59.581 140.337 59.173 140.492 58.187C140.681 57.014 140.526 55.059 140.492 53.886L139.907 30.953H145.961L145.428 47.324Z" fill="#404777"/>
<path d="M165.121 38.535C165.241 36.818 165.568 35.033 163.676 35.033C162.524 35.033 161.612 35.662 161.371 37.158C161.165 38.518 161.99 39.198 162.799 39.742C166.307 41.867 170.263 43.108 169.352 49.126C168.492 54.804 164.587 57.201 160.236 57.201C155.541 57.201 152.634 54.753 153.787 48.633H159.445C159.101 50.401 159.204 52.441 160.993 52.441C162.266 52.441 163.229 51.676 163.487 50.044C163.607 49.279 163.418 48.548 163.005 48.089C160.855 46.542 157.708 45.454 156.229 42.87C155.438 41.459 155.18 39.963 155.455 38.11C156.281 32.619 160.219 30.256 164.347 30.256C168.664 30.256 171.725 32.891 170.659 38.518H165.121V38.535Z" fill="#404777"/>
<path d="M178.759 36.733C178.88 36.733 179 36.682 179 36.818C178.054 37.209 177.108 37.617 176.145 38.008C174.666 38.637 173.204 39.283 171.742 39.912C170.607 40.405 169.489 40.898 168.371 41.391C164.278 43.159 160.236 45.029 156.212 46.933C151.396 49.211 146.615 51.489 141.834 53.784C138.789 55.314 135.728 56.844 132.684 58.391C130.465 59.513 128.247 60.635 126.028 61.774C119.716 65.055 113.387 68.455 107.127 71.855C101.881 74.711 96.7042 77.686 91.493 80.661C89.2915 81.936 87.1073 83.211 84.9058 84.486C84.5275 84.622 83.4096 84.35 82.842 84.367C81.3285 84.384 79.815 84.622 78.3531 84.792C75.9109 85.064 73.5203 85.574 71.1125 85.914C67.3976 86.441 63.6998 87.189 60.0537 87.92C55.2897 88.872 50.5256 89.841 45.7444 90.793C43.8353 91.201 41.9091 91.592 40 92V91.915H40.172C41.1867 91.49 42.2014 91.065 43.2334 90.64C45.7272 89.62 48.221 88.617 50.7148 87.597C58.5746 84.452 66.4172 81.307 74.2598 78.162C82.5324 74.864 90.805 71.566 99.0776 68.268C113.696 62.488 128.298 56.708 142.917 50.911C154.87 46.202 166.823 41.476 178.759 36.733Z" fill="#404777"/>
<path d="M172.636 54.736C172.929 54.736 173.187 54.702 173.187 54.362C173.187 54.073 172.912 54.039 172.671 54.039H172.207V54.719H172.636V54.736ZM172.207 56.062H171.811V53.733H172.705C173.273 53.733 173.565 53.937 173.565 54.396C173.565 54.821 173.307 54.991 172.946 55.025L173.6 56.045H173.17L172.568 55.042H172.207V56.062ZM172.619 53.121C171.691 53.121 170.985 53.835 170.985 54.855C170.985 55.807 171.605 56.589 172.619 56.589C173.531 56.589 174.253 55.875 174.253 54.855C174.253 53.835 173.531 53.121 172.619 53.121ZM172.619 56.963C171.398 56.963 170.521 56.062 170.521 54.855C170.521 53.58 171.484 52.747 172.619 52.747C173.737 52.747 174.7 53.58 174.7 54.855C174.7 56.13 173.737 56.963 172.619 56.963Z" fill="#404777"/>
</svg>
