<svg width="218" height="98" viewBox="0 0 218 98" fill="none" xmlns="http://www.w3.org/2000/svg">
<path d="M40.9181 49.9351C35.3708 52.373 43.4298 62.6071 44.6699 64.6883H51.8324C51.7615 59.1102 46.5462 47.4619 40.9181 49.9351ZM63.0871 64.6883H64.3234V48.2298H59.4632C61.6861 52.7273 63.168 57.5675 63.0871 64.6883ZM23.0116 19V55.2829C23.0116 57.6969 23 67.6946 23 67.6946C23 67.6946 23.1009 69.9907 23.9921 72.4331C25.0334 75.2884 28.012 80.801 32.0927 79.9021C35.9408 79.0541 35.2561 74.475 33.8404 71.4649C30.8164 65.0357 22.8313 57.4003 26.55 46.8457C28.1075 42.4253 31.0937 38.4617 35.1197 36.7032C38.1814 35.3661 42.8429 35.735 47.1424 35.735H67.905V19H23.0116Z" fill="#404777"/>
<path d="M80.58 38.3998H87.0354V42.3488H80.58V48.1187H76.2998V31.376H87.9574V35.3959H80.5793V38.3998H80.58Z" fill="#404777"/>
<path d="M94.8615 37.95H101.648V41.6155H94.8615V44.1219H102.24V48.1179H90.582V31.376H102.24V35.3489H94.8615V37.95Z" fill="#404777"/>
<path d="M109.381 48.1187H105.148V31.376H109.381V48.1187Z" fill="#404777"/>
<path d="M112.691 31.376H116.711L120.755 38.5176L122.174 41.8751L122.292 41.8512C122.269 41.8512 121.843 38.9667 121.82 38.9667V31.376H126.029V48.1179H121.749L117.965 41.5208L116.499 38.1626L116.381 38.1864L116.925 41.4261V48.1179H112.692V31.376H112.691Z" fill="#404777"/>
<path d="M145.276 31.376H149.651L144.827 48.1179H140.902L139.412 43.4834L138.821 39.653H138.75L138.112 43.4603L136.788 48.1187H132.863L128.015 31.3767H132.413L134.399 39.3934L134.825 42.9404H134.944L135.346 39.4173L137.214 33.5527H140.429L142.155 39.4404L142.699 42.9404H142.77L143.243 39.4404L145.276 31.376Z" fill="#404777"/>
<path d="M164.359 48.1186H159.818L158.731 44.7612H154.262L153.221 48.1186H148.681L154.521 31.3767H158.376L164.359 48.1186ZM157.714 41.0009L156.556 36.106H156.437L155.208 41.0009H157.714Z" fill="#404777"/>
<path d="M171.168 42.7979H170.412V48.1187H166.132V31.376H172.824C176.276 31.376 178.948 32.9604 179.043 36.8855C179.043 39.9834 177.789 41.7334 175.756 42.3719L180.32 48.1179H175.047L171.168 42.7979ZM172.895 39.1562C175.567 39.1562 175.567 35.325 172.895 35.325H170.411V39.1562H172.895Z" fill="#404777"/>
<path d="M186.137 42.5136C186.137 45.2095 190.914 45.2095 190.937 42.5136V31.376H195.217V42.5136C195.193 50.3647 181.833 50.3647 181.856 42.5136V31.376H186.137V42.5136V42.5136Z" fill="#404777"/>
<path d="M78.1681 62.2857C79.8472 64.3191 83.5359 64.4139 83.6545 62.6169C83.7015 61.6711 82.1648 61.1273 80.793 60.9378C78.0972 60.5118 75.6378 58.8096 75.6378 55.617C75.6378 52.3304 78.6171 50.6042 81.6911 50.6042C83.7246 50.6042 85.6871 51.1719 87.414 53.2762L84.6473 55.4044C82.8973 53.5366 79.8942 53.6074 79.8233 55.5461C79.8703 56.3502 80.7453 56.8232 82.0462 57.1066C85.0255 57.6504 88.0056 58.691 87.8161 62.8056C87.6744 66.0452 84.2691 67.8191 81.1951 67.8191C79.1848 67.8191 77.0566 66.8024 75.4961 64.7921L78.1681 62.2857Z" fill="#404777"/>
<path d="M89.2344 56.3502C89.2344 52.496 92.6866 50.6042 96.1627 50.6042C99.6388 50.6042 103.115 52.5198 103.115 56.3502V62.0723C103.115 65.9035 99.6626 67.8183 96.1866 67.8183C92.7105 67.8183 89.2344 65.9028 89.2344 62.0723V56.3502ZM93.4668 62.0723C93.4668 63.3017 94.8386 63.8932 96.1866 63.8932C97.5345 63.8932 98.8824 63.2785 98.8824 62.0723V56.3502C98.8824 55.0493 97.4875 54.4585 96.1157 54.4585C94.7917 54.4585 93.4676 55.1209 93.4676 56.3502V62.0723H93.4668Z" fill="#404777"/>
<path d="M109.641 57.8637H116.096V61.8127H109.641V67.5825H105.36V50.8398H117.018V54.8597H109.64V57.8637H109.641Z" fill="#404777"/>
<path d="M126.713 54.8368V67.5827H122.433V54.8368H117.987V50.8169H131.158V54.8368H126.713Z" fill="#404777"/>
<path d="M148.751 50.8398H153.126L148.302 67.5818H144.377L142.887 62.9472L142.296 59.1168H142.225L141.586 62.9241L140.262 67.5825H136.337L131.489 50.8406H135.887L137.874 58.8573L138.3 62.4042H138.418L138.82 58.8811L140.688 53.0165H143.904L145.63 58.9043L146.174 62.4042H146.245L146.718 58.9043L148.751 50.8398Z" fill="#404777"/>
<path d="M167.172 67.5828H162.632L161.544 64.2253H157.075L156.035 67.5828H151.494L157.335 50.8408H161.189L167.172 67.5828ZM160.528 60.465L159.369 55.5701H159.251L158.022 60.465H160.528Z" fill="#404777"/>
<path d="M173.321 62.2617H172.564V67.5825H168.284V50.8398H174.976C178.428 50.8398 181.1 52.4242 181.195 56.3494C181.195 59.4473 179.942 61.1973 177.908 61.8358L182.472 67.5818H177.199L173.321 62.2617ZM175.047 58.62C177.719 58.62 177.719 54.7889 175.047 54.7889H172.564V58.62H175.047Z" fill="#404777"/>
<path d="M187.839 57.4138H194.626V61.0794H187.839V63.5858H195.217V67.5818H183.56V50.8398H195.217V54.8127H187.839V57.4138Z" fill="#404777"/>
</svg>
