<svg width="218" height="98" viewBox="0 0 218 98" fill="none" xmlns="http://www.w3.org/2000/svg">
<path d="M148.187 31.4675C148.187 31.4675 151.121 30.7652 154.001 32.8858C154.001 32.8858 156.789 29.3401 161.97 28.9889C167.152 28.6444 170.632 32.0417 170.632 32.0417C170.632 32.0417 174.8 29.7926 179.014 33.4126L168.412 44.1578C168.412 44.1578 166.658 46.1164 165.424 43.2866C165.424 43.2866 163.717 39.1263 160.543 42.3343L153.781 49.1556C153.781 49.1556 150.847 52.1609 150.847 48.2775V44.5832C150.847 44.5832 150.954 39.7341 147.247 42.3343L142.805 45.3059C142.805 45.3059 141.432 46.4473 141.432 44.178V39.2546C141.432 39.2546 141.407 32.6967 148.187 31.4675" fill="#1D1D1D"/>
<path d="M152.028 26.8885C152.028 28.5837 150.661 29.9615 148.987 29.9615C147.307 29.9615 145.946 28.5837 145.946 26.8885C145.946 25.1866 147.307 23.8088 148.987 23.8088C150.661 23.8088 152.028 25.1866 152.028 26.8885Z" fill="#1D1D1D"/>
<path d="M165.838 23.6128C165.838 25.8011 164.078 27.5774 161.917 27.5774C159.757 27.5774 158.003 25.8011 158.003 23.6128C158.003 21.4179 159.757 19.6484 161.917 19.6484C164.078 19.6484 165.838 21.4179 165.838 23.6128Z" fill="#1D1D1D"/>
<path d="M176.568 27.5097C176.568 28.8807 175.468 29.9951 174.114 29.9951C172.761 29.9951 171.66 28.8807 171.66 27.5097C171.66 26.1387 172.761 25.0244 174.114 25.0244C175.468 25.0244 176.568 26.1387 176.568 27.5097Z" fill="#1D1D1D"/>
<path d="M22.8554 59.7384C20.9949 59.7384 20.0147 60.9878 20.0147 62.8586V70.1459C20.7949 70.436 21.4484 70.6525 22.602 70.6525C25.0693 70.6525 26.4297 68.3967 26.4297 64.8982C26.4297 61.2378 24.9893 59.7384 22.8554 59.7384V59.7384ZM23.0087 73.6849C21.6616 73.6849 20.7549 73.4349 20.0147 73.1446V78.3517H16.6406V57.2396H18.1676C18.9478 57.2396 19.6011 58.0298 19.8945 58.6174C20.6281 57.6584 21.7753 56.7803 23.7157 56.7803C27.8235 56.7803 30.0838 60.1978 30.0838 64.8173C30.0838 70.2338 27.003 73.6849 23.0087 73.6849Z" fill="#1D1D1D"/>
<path d="M38.2727 59.6103C36.2588 59.6103 35.1517 61.1501 35.025 63.3991H40.9932C40.9448 61.0691 40.1265 59.6103 38.2727 59.6103ZM44.4009 66.1951H34.9851C35.1052 69.2342 36.6256 70.6526 38.9328 70.6526C40.4132 70.6526 41.3935 70.3148 42.5538 69.8555C42.6738 69.8163 42.8736 69.7679 43.0004 69.7679C43.5805 69.7679 43.7804 70.1463 43.7003 70.8552L43.5403 72.7733C42.4667 73.3136 40.8196 73.6918 38.6457 73.6918C34.4913 73.6918 31.4507 70.3959 31.4507 65.2766C31.4507 59.9885 33.998 56.7805 38.4791 56.7805C42.5069 56.7805 44.4872 60.11 44.4872 64.5675C44.4872 65.0199 44.4389 65.6954 44.4006 66.1952" fill="#1D1D1D"/>
<path d="M55.297 60.9879C54.6369 60.5694 53.7364 60.3194 52.4628 60.3194C50.649 60.3194 49.6221 61.6499 49.6221 63.7368V73.354H46.248V57.2397H47.775C48.4752 57.2397 49.1688 57.6582 49.5823 59.1915C50.4424 57.6584 51.556 56.9897 53.0364 56.9897C53.6165 56.9897 54.3099 57.0706 54.7166 57.199C55.2101 57.3205 55.377 57.5299 55.377 57.9488L55.297 60.9879Z" fill="#1D1D1D"/>
<path d="M74.3282 73.3539V61.9874C74.3282 60.5691 73.5478 59.5697 71.9474 59.5697C70.1003 59.5697 69.0668 60.9879 69.0668 62.4062V73.3539H65.6992V62.0685C65.6992 60.4409 64.8324 59.5697 63.272 59.5697C61.2115 59.5697 60.0713 61.1973 60.0713 63.2774V73.3539H56.6904V57.2396H58.1772C58.9175 57.2396 59.531 57.6919 59.9845 58.8604C60.9313 57.6515 62.2383 56.7803 64.2121 56.7803C66.4794 56.7803 67.5063 57.7393 68.0797 59.0293C69.24 57.6921 70.4673 56.7803 72.7678 56.7803C76.102 56.7803 77.7023 58.6984 77.7023 61.6093V73.3539H74.3282Z" fill="#1D1D1D"/>
<path d="M89.5057 60.2788C88.8455 60.2788 88.2721 60.2396 87.7386 60.2396C85.058 60.2396 83.2573 62.0293 83.2573 65.6087C83.2573 69.1544 84.651 70.7348 86.3848 70.7348C88.432 70.7348 89.5057 69.4853 89.5057 67.4862V60.2788ZM89.7925 73.354L89.7128 71.8141C88.9259 72.8542 87.6923 73.6917 85.7651 73.6917C82.1442 73.6917 79.6768 70.8552 79.6768 65.6076C79.6768 60.441 83.171 57.1113 87.9055 57.1113C88.8924 57.1113 90.453 57.2397 91.1065 57.3613C92.5069 57.6519 92.8804 57.9016 92.8804 58.8201V73.354H89.7925Z" fill="#1D1D1D"/>
<path d="M104.996 73.3539V62.3657C104.996 60.6975 104.209 59.5697 102.322 59.5697C100.015 59.5697 98.7011 61.3189 98.7011 63.7773V73.3539H95.3335V57.2396H96.807C97.5539 57.2396 98.1676 57.6919 98.621 58.8604C99.6879 57.692 101.002 56.7803 103.229 56.7803C106.716 56.7803 108.363 58.9888 108.363 62.2373V73.3539H104.996Z" fill="#1D1D1D"/>
<path d="M116.999 59.6103C114.985 59.6103 113.878 61.1501 113.751 63.3991H119.72C119.671 61.0691 118.853 59.6103 116.999 59.6103ZM123.127 66.1951H113.705C113.832 69.2342 115.352 70.6526 117.659 70.6526C119.139 70.6526 120.12 70.3148 121.28 69.8555C121.393 69.8163 121.6 69.7679 121.726 69.7679C122.3 69.7679 122.513 70.1463 122.42 70.8552L122.26 72.7733C121.186 73.3136 119.546 73.6918 117.372 73.6918C113.218 73.6918 110.177 70.3959 110.177 65.2766C110.177 59.9885 112.724 56.7805 117.205 56.7805C121.233 56.7805 123.207 60.11 123.207 64.5675C123.207 65.0199 123.168 65.6954 123.127 66.1952" fill="#1D1D1D"/>
<path d="M134.637 73.3539V62.3657C134.637 60.6975 133.857 59.5697 131.97 59.5697C129.662 59.5697 128.349 61.3189 128.349 63.7773V73.3539H124.981V57.2396H126.462C127.195 57.2396 127.816 57.6919 128.269 58.8604C129.336 57.692 130.649 56.7803 132.87 56.7803C136.358 56.7803 138.011 58.9888 138.011 62.2373V73.3539H134.637Z" fill="#1D1D1D"/>
<path d="M148.987 73.2258C148.247 73.5228 147.3 73.6849 145.533 73.6849C143.232 73.6849 141.505 72.0236 141.505 69.1465V60.029H139.038V57.2397H141.505V53.3699H143.352C144.259 53.3699 144.88 53.9911 144.88 54.8219V57.2397H147.26C148.287 57.2397 148.867 57.8677 148.867 58.8606V60.029H144.88V68.6872C144.88 70.0649 145.406 70.6864 146.847 70.6864C147.507 70.6864 147.92 70.5648 148.287 70.4364C148.867 70.2741 149.107 70.3972 149.074 70.855L148.987 73.2258Z" fill="#1D1D1D"/>
<path d="M165.758 73.2258C165.018 73.5228 164.078 73.6849 162.31 73.6849C160.003 73.6849 158.276 72.0236 158.276 69.1465V60.029H155.815V57.2397H158.276V53.3699H160.13C161.03 53.3699 161.65 53.9911 161.65 54.8219V57.2397H164.031C165.064 57.2397 165.638 57.8677 165.638 58.8606V60.029H161.65V68.6872C161.65 70.0649 162.184 70.6864 163.624 70.6864C164.284 70.6864 164.691 70.5648 165.065 70.4364C165.638 70.2741 165.885 70.3972 165.845 70.855L165.758 73.2258Z" fill="#1D1D1D"/>
<path d="M171.787 73.6851C170.053 73.6851 168.126 73.442 167.132 73.2729L167.305 70.2337C168.372 70.5175 170.386 70.855 171.58 70.855C173.347 70.855 174.454 70.1053 174.454 68.6938C174.454 67.3971 173.92 66.688 171.453 66.0667C168.659 65.317 167.132 64.189 167.132 61.2782C167.132 58.6105 168.986 56.7803 172.767 56.7803C174.374 56.7803 175.281 56.9087 176.054 57.1111C176.794 57.2802 177.008 57.6109 176.961 58.2795L176.794 60.3597C175.734 59.9475 174.54 59.6101 172.973 59.6101C171.246 59.6101 170.386 60.2786 170.386 61.2376C170.386 62.3993 171.173 62.8653 173.267 63.4461C176.634 64.3579 177.621 65.7356 177.621 68.3966C177.621 71.6924 175.654 73.6848 171.786 73.6848" fill="#1D1D1D"/>
<path d="M185.209 59.7382C183.028 59.7382 182.248 61.2377 182.248 62.6965V70.3146C182.782 70.4832 183.729 70.6523 184.629 70.6523C187.223 70.6523 188.663 68.8153 188.663 65.1075C188.663 61.3592 187.263 59.7382 185.209 59.7382V59.7382ZM184.342 73.6848C181.962 73.6848 180.148 73.1917 178.874 72.7325V49.9927H180.434C181.548 49.9927 182.088 50.4519 182.202 51.0328C182.25 51.1612 182.25 51.2421 182.25 51.3636V58.4077C182.99 57.5297 184.264 56.7801 185.871 56.7801C190.019 56.7801 192.359 59.9881 192.359 64.9453C192.359 70.4834 189.239 73.6846 184.344 73.6846" fill="#1D1D1D"/>
</svg>
