<svg width="218" height="98" viewBox="0 0 218 98" fill="none" xmlns="http://www.w3.org/2000/svg">
<path fill-rule="evenodd" clip-rule="evenodd" d="M31.3365 45.443C32.4677 39.3757 37.8151 34.3368 44.088 33.3085C49.4355 32.4858 54.063 33.9255 57.9707 37.5247C59.8218 39.2729 61.0558 41.4324 61.8785 43.7976C62.187 44.826 61.57 45.8543 60.5416 46.2657C57.5594 47.294 54.4744 48.3224 51.4922 49.3507C49.2298 50.0706 47.0703 50.8932 44.8079 51.6131C43.5739 52.0244 42.3399 51.6131 41.7228 50.5847C40.9002 49.3507 40.9002 48.0139 41.9285 47.0883C42.237 46.7798 42.6484 46.4713 43.1625 46.3685C46.8646 45.0317 50.6695 43.7976 54.3715 42.5636C54.4744 42.5636 54.5772 42.4608 54.68 42.4608C54.3715 42.1523 54.063 41.8438 53.7545 41.5353C50.8751 38.9644 47.4816 38.1417 43.7795 39.3757C40.0775 40.5069 37.8151 43.0778 36.9924 46.8827C35.8613 52.3329 39.769 57.5775 45.4249 58.4002C49.744 59.0172 54.1659 56.652 55.914 52.8471C56.1197 52.3329 56.3254 51.8187 56.6339 51.4074C57.1481 50.6876 57.9707 50.4819 58.8963 50.4819C59.7189 50.5847 60.5416 50.6876 61.0558 51.3046C61.7756 52.0244 61.9813 52.9499 61.57 53.8754C59.3076 59.4285 55.1942 62.8221 49.1269 63.8504C40.386 65.1873 32.6734 59.3257 31.2337 51.3046C31.1309 50.6876 30.9252 49.7621 31.028 48.4252C31.028 46.9855 31.3365 45.443 31.3365 45.443Z" fill="#404777"/>
<path fill-rule="evenodd" clip-rule="evenodd" d="M173.557 33.1028C174.174 33.1028 174.688 33.2057 175.305 33.3085C180.344 34.1312 183.737 36.9077 185.486 41.741C186.206 43.6948 186.308 45.7515 186.308 47.911C186.308 51.3046 186.308 54.5953 186.206 57.9889C186.206 58.0917 186.206 58.1945 186.206 58.4002C186.206 59.5314 186.206 60.8682 186.206 61.2796C186.206 62.1022 185.897 62.8221 185.486 63.2334C184.663 64.0561 183.12 64.1589 182.195 63.7476C181.167 63.3363 180.55 62.4107 180.55 61.1767C180.55 57.269 180.55 53.4641 180.55 49.5564C180.55 48.2195 180.55 46.8827 180.447 45.6487C180.035 42.2551 177.465 39.4786 174.071 38.9644C170.986 38.4502 167.695 40.0956 166.256 43.0778C165.536 44.5175 165.33 45.9572 165.33 47.6025C165.33 48.9394 165.33 50.3791 165.33 51.7159C165.33 54.0811 165.33 56.4463 165.33 58.8115C165.33 59.6342 165.33 60.4569 165.33 61.2796C165.33 62.8221 164.405 63.8504 162.862 63.9533C161.319 64.1589 159.983 63.3363 159.674 61.9994C159.571 61.6909 159.571 61.4852 159.571 61.1767C159.571 57.0633 159.571 53.0528 159.674 48.9394C159.674 47.4997 159.674 46.06 159.777 44.5175C160.497 38.4502 164.61 34.1312 170.472 33.2057C171.192 33.1028 171.911 33 172.631 33C172.631 33.1028 173.043 33.1028 173.557 33.1028Z" fill="#404777"/>
<path fill-rule="evenodd" clip-rule="evenodd" d="M78.7434 58.2975C84.3993 58.2975 89.0269 53.9784 89.0269 48.5282C89.0269 43.1808 84.5021 38.6561 78.9491 38.6561C73.396 38.6561 68.7684 42.9751 68.7684 48.4254C68.6656 53.8756 73.1903 58.2975 78.7434 58.2975ZM88.924 60.5599C87.9985 61.074 87.1758 61.691 86.1475 62.2052C76.6867 67.0385 65.0664 61.5882 63.1125 51.4076C61.4671 42.9751 67.3287 34.8512 75.9668 33.4115C84.2965 31.9718 92.3176 37.0107 94.2714 45.0318C94.6828 46.2658 94.7856 47.6027 94.7856 48.9395C94.7856 51.2019 94.7856 53.5671 94.7856 55.8295C94.7856 57.2691 94.7856 58.7088 94.7856 60.0457C94.7856 60.457 94.7856 60.9712 94.6828 61.3825C94.4771 62.5137 93.4488 63.2336 92.3176 63.3364C91.3921 63.4392 90.5694 63.3364 89.8495 62.6166C89.3354 62.2052 89.1297 61.5882 89.0269 60.9712C89.0269 60.8684 89.0269 60.6627 88.924 60.5599Z" fill="#404777"/>
<path fill-rule="evenodd" clip-rule="evenodd" d="M110.211 33.103C112.679 33.103 115.25 33.5144 117.615 34.8512C119.775 35.9824 121.317 37.6278 122.243 39.8901C122.346 40.1986 122.448 40.5071 122.551 40.9185C122.654 42.1525 122.037 43.078 120.906 43.3865C119.98 43.5922 119.055 43.5922 118.129 43.3865C117.307 43.1808 116.792 42.7695 116.484 41.9468C115.97 40.5071 114.839 39.6845 113.502 39.1703C110.931 38.2448 108.463 38.3476 105.995 39.4788C105.069 39.7873 104.452 40.3015 104.041 40.9185C103.321 42.0497 103.63 43.2837 104.761 43.9007C105.789 44.4149 106.92 44.7234 108.052 44.929C110.314 45.3404 112.576 45.7517 114.839 46.163C116.484 46.4716 118.129 46.9857 119.569 47.8084C122.243 49.2481 123.58 51.6133 123.58 54.6983C123.58 58.9146 121.42 61.7939 117.718 63.5421C115.25 64.7761 112.473 65.0846 109.8 64.9818C107.126 64.879 104.555 64.3648 102.087 62.9251C99.8247 61.6911 98.0765 59.8401 97.0482 57.372C96.9454 57.0635 96.7397 56.6522 96.7397 56.2409C96.6369 55.2125 97.2539 54.287 98.1794 53.9785C99.2077 53.67 100.339 53.67 101.367 53.9785C101.984 54.1842 102.498 54.5955 102.704 55.2125C103.424 56.8579 104.658 57.8862 106.2 58.5032C108.977 59.6344 111.754 59.5316 114.53 58.5032C115.353 58.1947 116.175 57.6805 116.69 56.8579C117.307 56.0352 117.409 55.1097 117.307 54.1842C117.409 53.67 116.895 53.2586 116.381 52.9501C115.456 52.436 114.53 52.0246 113.502 51.819C111.754 51.5105 110.005 51.202 108.257 50.8934C105.995 50.4821 103.835 50.0708 101.676 49.0424C100.236 48.3226 98.8992 47.3971 98.1794 45.8545C96.8425 42.8723 97.151 40.0958 99.1049 37.5249C100.647 35.4682 102.807 34.337 105.275 33.72C106.92 33.2059 108.463 33.103 110.211 33.103Z" fill="#404777"/>
<mask id="mask0" mask-type="alpha" maskUnits="userSpaceOnUse" x="125" y="33" width="32" height="32">
<path fill-rule="evenodd" clip-rule="evenodd" d="M125.738 33.3086H156.897V64.2619H125.738V33.3086Z" fill="white"/>
</mask>
<g mask="url(#mask0)">
<path fill-rule="evenodd" clip-rule="evenodd" d="M131.394 48.734C131.394 54.1843 135.713 58.5033 140.958 58.709C146.511 58.8119 151.139 54.39 151.139 48.9397C151.241 43.4895 146.82 38.9647 141.369 38.9647C136.022 38.8619 131.497 43.2838 131.394 48.734ZM140.855 64.2621C132.526 64.0564 125.636 57.2693 125.738 48.6312C125.841 39.7874 133.143 33.1032 141.678 33.3088C150.213 33.5145 157.103 40.6101 156.897 49.2482C156.692 57.5778 149.699 64.5706 140.855 64.2621Z" fill="#404777"/>
</g>
</svg>
