<svg width="218" height="98" viewBox="0 0 218 98" fill="none" xmlns="http://www.w3.org/2000/svg">
<path d="M80.4752 29.0507V42.5304C80.4752 47.8202 76.6459 49.5602 72.511 49.5602C68.4081 49.5602 64.5807 47.8183 64.5807 42.5304V29.0507H68.2383V41.5398C68.2383 44.9182 69.606 46.5566 72.511 46.5566C75.4518 46.5566 76.8175 44.9182 76.8175 41.5737V29.0507H80.4752V29.0507ZM98.6389 49.1516L91.2897 38.8111L98.0919 29.0507H93.8532L88.247 37.378H86.7435V29.0507H83.0859V49.1516H86.7435V40.5173H88.1791L94.1947 49.1516H98.6389ZM68.2365 72.5914V65.5295H71.381C75.8234 65.5295 78.2153 62.9703 78.2153 58.8763C78.2153 54.8162 76.063 52.4961 71.0377 52.4961H64.5788V72.5914H68.2365V72.5914ZM68.2365 55.5318H70.9358C73.2938 55.5318 74.4897 56.7257 74.4897 59.0457C74.4897 61.1944 73.6013 62.5258 70.9698 62.5258H68.2365V55.5318V55.5318ZM92.3328 61.4336C92.3328 57.8518 89.8711 56.4526 86.4889 56.4526C83.3443 56.4526 80.4393 57.7821 80.1998 61.1266L83.5065 61.6765C83.7442 59.9402 84.7101 59.2491 86.2493 59.2491C87.7867 59.2491 88.7789 60.0005 88.7789 61.7745V62.8705H87.8169C82.5728 62.8705 79.6886 65.3016 79.6886 68.7007C79.6886 71.3955 81.6013 73 84.3705 73C86.4549 73 88.2319 72.3183 89.0185 70.3391C89.3958 72.0791 90.5559 72.8644 92.4366 72.8644C93.2572 72.8644 93.9061 72.7288 94.4173 72.4897V69.7949C94.1777 69.8965 93.8702 69.9662 93.4948 69.9662C92.8459 69.9662 92.3328 69.6593 92.3328 68.5331V61.4336V61.4336ZM88.7789 67.1754C88.7789 68.9154 87.3736 70.3749 85.5325 70.3749C84.063 70.3749 83.2764 69.4879 83.2764 68.3279C83.2764 66.6161 84.5667 65.0568 88.3696 65.0568C88.5035 65.0568 88.6393 65.053 88.7789 65.0568V67.1754V67.1754ZM117.804 56.8293H114.217V72.5914H117.804V56.8293ZM154.113 56.4526C151.891 56.4526 149.91 57.4413 149.09 59.9327C148.68 57.3735 147.005 56.4526 144.819 56.4526C142.631 56.4526 140.752 57.4413 139.931 59.8649L139.486 56.8274H136.581V72.5895H140.169V63.684C140.169 60.6464 141.74 59.4883 143.416 59.4883C145.159 59.4883 145.875 60.6483 145.875 62.5258V72.5914H149.429V63.652C149.429 60.6502 151.035 59.4902 152.71 59.4902C154.419 59.4902 155.135 60.6502 155.135 62.5277V72.5932H158.723V61.266C158.727 57.8876 156.746 56.4526 154.113 56.4526ZM171.494 67.7799C170.981 69.5877 169.855 70.2035 168.282 70.2035C165.822 70.2035 164.488 68.2582 164.352 65.392H174.399C174.535 64.8798 174.673 64.0964 174.673 63.2772C174.673 59.2849 172.486 56.4545 168.282 56.4545C163.735 56.4545 160.9 59.5599 160.9 64.8817C160.9 70.0679 163.839 73.0019 168.146 73.0019C171.188 73.0019 173.888 71.9097 174.605 68.7026L171.494 67.7799ZM164.454 63.072C164.694 60.6502 166.025 59.1813 168.11 59.1813C170.059 59.1813 171.22 60.6483 171.22 62.4562C171.22 62.6614 171.221 62.8667 171.187 63.0701H164.454V63.072ZM179.894 56.8293H176.989V72.5914H180.577V63.6859C180.577 60.4449 182.252 59.4902 183.995 59.4902C185.806 59.4902 186.559 60.6841 186.559 62.5597V72.5914H190.146V61.3658C190.146 57.8857 187.924 56.4526 185.397 56.4526C183.005 56.4526 181.194 57.511 180.339 59.8649L179.894 56.8293ZM202.351 69.0435C201.463 69.6574 200.712 69.9643 199.686 69.9643C198.388 69.9643 197.669 69.2826 197.669 67.6104V59.6258H202.385V56.8293H197.703V52.5036H194.081V56.8293H191.791V59.6258H194.081V68.3599C194.081 71.4972 195.892 73 198.833 73C200.438 73 201.874 72.693 203.002 72.0452L202.351 69.0435ZM99.4972 61.1285L99.0521 56.8293H96.0112V72.5914H99.5991V64.8798C99.5991 61.7406 101.751 60.2736 103.838 60.2736C104.008 60.2736 104.17 60.2811 104.328 60.2924V56.5204C101.501 56.8387 100.061 58.6992 99.4972 61.1285ZM111.213 69.7591C110.393 69.7591 109.812 69.3843 109.812 68.3938V50.6958H106.224V69.2469C106.224 71.8061 108.001 72.8644 110.085 72.8644C110.768 72.8644 111.479 72.742 112.238 72.4878V69.616C111.96 69.7063 111.613 69.7591 111.213 69.7591ZM132.712 61.4336C132.712 57.8518 130.251 56.4526 126.868 56.4526C123.724 56.4526 120.819 57.7821 120.579 61.1266L123.888 61.6765C124.124 59.9402 125.091 59.2491 126.629 59.2491C128.166 59.2491 129.158 60.0005 129.158 61.7745V62.8705H128.196C122.952 62.8705 120.068 65.3016 120.068 68.7007C120.068 71.3955 121.983 73 124.75 73C126.834 73 128.611 72.3183 129.398 70.3391C129.775 72.0791 130.935 72.8644 132.816 72.8644C133.637 72.8644 134.286 72.7288 134.797 72.4897V69.7949C134.557 69.8965 134.25 69.9662 133.874 69.9662C133.225 69.9662 132.712 69.6593 132.712 68.5331V61.4336V61.4336ZM129.157 67.1754C129.157 68.9154 127.751 70.3749 125.91 70.3749C124.441 70.3749 123.654 69.4879 123.654 68.3279C123.654 66.6161 124.944 65.0568 128.747 65.0568C128.881 65.0568 129.017 65.053 129.157 65.0568V67.1754V67.1754ZM113.771 52.385C113.771 53.6599 114.709 54.6373 116.027 54.6373C117.34 54.6373 118.284 53.6618 118.284 52.385C118.284 51.1101 117.346 50.1327 116.027 50.1327C114.715 50.1327 113.771 51.1101 113.771 52.385ZM49.918 27.9302L49.4313 28.1807V28.1825C49.9916 29.1769 50.1387 30.4913 49.7916 31.8114C49.2163 31.3839 48.8164 30.7437 48.6202 29.9979L48.1335 30.2484V30.2503C47.9411 30.9753 47.6883 31.6928 47.3733 32.399C47.0602 33.1014 46.6942 33.7643 46.2867 34.3876L46.2811 34.4026L46.4169 34.9224C46.9036 34.6719 47.4563 34.5326 48.0411 34.5326C48.2391 34.5326 48.4315 34.5495 48.6202 34.5797C48.1241 35.7548 46.9602 36.5777 45.602 36.5777C44.3287 36.5777 43.2252 35.8508 42.6838 34.7887C43.0686 34.6098 43.3685 34.2614 43.4666 33.817C43.6024 33.1955 43.2082 32.9055 43.3459 32.2841C43.4817 31.6626 44.0986 31.2709 44.7192 31.4065C45.2021 31.512 45.5454 31.9056 45.6114 32.3669C45.9453 32.1654 46.1981 31.834 46.2886 31.4235C46.4641 30.6307 45.9604 29.8454 45.1662 29.6703C44.6607 29.5591 44.1589 29.723 43.8156 30.0601C44.0231 29.7493 44.1759 29.3972 44.2608 29.013C44.4683 28.0677 44.2193 27.1242 43.6572 26.3917C42.8385 26.821 42.216 27.5743 42.0085 28.5178C41.9236 28.9019 41.916 29.2861 41.9726 29.6552C41.8029 29.2051 41.4162 28.8473 40.9106 28.7362C40.1165 28.5611 39.3298 29.0639 39.1544 29.8567C39.0639 30.2672 39.1544 30.674 39.3732 30.996C39.6279 30.6062 40.1051 30.3915 40.5862 30.4988C41.2087 30.6344 41.601 31.2502 41.4652 31.8698C41.3275 32.4912 40.8484 32.5892 40.7107 33.2106C40.6295 33.5778 40.7012 33.9413 40.8823 34.2388C40.8823 34.2388 40.9125 34.284 40.9578 34.3593C40.3126 34.8603 39.5034 35.1597 38.6225 35.1597C36.5192 35.1597 34.8139 33.4573 34.8139 31.3576V31.0487C36.0155 31.2389 37.0794 31.8397 37.8585 32.704L38.2659 32.2973V27.7532L37.8528 27.3408C37.0756 28.1995 36.0136 28.7983 34.8158 28.9885V28.9848C34.8158 27.3314 35.9457 25.9435 37.4774 25.5461L37.0568 25.1262C35.9325 25.0414 34.7931 25 33.6425 25C32.4937 25 31.3543 25.0414 30.2263 25.1224L29.8056 25.5424C31.3373 25.9416 32.4673 27.3295 32.4673 28.9829V28.9867C31.2694 28.7965 30.2074 28.1995 29.4302 27.3389L29.0171 27.7513V32.2991L29.4246 32.7059C30.2036 31.8415 31.2675 31.2408 32.4691 31.0506V31.3594C32.4691 33.4592 30.7639 35.1616 28.6606 35.1616C27.7853 35.1616 26.9817 34.8659 26.3385 34.3725C26.3762 34.2915 26.4007 34.2426 26.4007 34.2426C26.5818 33.945 26.6535 33.5797 26.5724 33.2144C26.4366 32.5929 25.9555 32.495 25.8178 31.8736C25.682 31.2521 26.0744 30.6382 26.6969 30.5026C27.1798 30.3972 27.657 30.6099 27.9098 30.9998C28.1286 30.6777 28.2192 30.2691 28.1286 29.8604C27.9532 29.0676 27.1685 28.5648 26.3724 28.74C25.8669 28.8511 25.4802 29.2089 25.3104 29.659C25.367 29.2899 25.3594 28.9057 25.2746 28.5215C25.0671 27.5762 24.4446 26.8248 23.6259 26.3954C23.0637 27.128 22.8147 28.0714 23.0222 29.0168C23.1071 29.401 23.2599 29.7531 23.4674 30.0638C23.1241 29.7267 22.6223 29.5629 22.1168 29.674C21.3226 29.8492 20.819 30.6325 20.9944 31.4272C21.0849 31.8378 21.3377 32.1692 21.6716 32.3707C21.7376 31.9093 22.0809 31.5158 22.5639 31.4103C23.1864 31.2747 23.8013 31.6664 23.9371 32.2879C24.0748 32.9093 23.6787 33.1993 23.8164 33.8207C23.9145 34.2671 24.2144 34.6154 24.6011 34.7943H24.5992C24.0579 35.8546 22.9543 36.5833 21.681 36.5833C20.3247 36.5833 19.159 35.7585 18.6629 34.5853C18.8515 34.5552 19.0458 34.5382 19.242 34.5382C19.8267 34.5382 20.3794 34.6795 20.8661 34.928L21.0019 34.4083L20.9944 34.3932C20.5869 33.7699 20.2229 33.107 19.9097 32.4046C19.5947 31.6984 19.3419 30.9809 19.1495 30.2559L19.1477 30.254L18.661 30.0036C18.4648 30.7493 18.0649 31.3896 17.4895 31.8171C17.1425 30.497 17.2896 29.1825 17.8498 28.1882V28.1863L17.3632 27.9359C16.5143 28.2259 15.3674 28.691 14.5374 29.0601L19.4193 40.0069C23.7636 38.0729 28.5757 36.9976 33.6387 36.9976C38.7017 36.9976 43.5138 38.0729 47.8581 40.0069L52.74 29.0601C51.9138 28.6835 50.7669 28.2202 49.918 27.9302ZM52.1533 51.2137V52.7974C53.4285 53.0949 54.2887 54.1909 54.2887 55.56C54.2887 56.9291 53.4285 58.0232 52.1533 58.3226V59.9064C53.4285 60.2039 54.2887 61.2999 54.2887 62.669C54.2887 64.038 53.4285 65.1321 52.1533 65.4316V67.0153C53.4285 67.3128 54.2887 68.4088 54.2887 69.7779C54.2887 71.388 53.0984 72.6215 51.4422 72.6215C49.7784 72.6215 48.5938 71.388 48.5938 69.7779C48.5938 68.4088 49.4502 67.3128 50.7291 67.0153V65.4334C49.4502 65.1359 48.5938 64.0399 48.5938 62.6708C48.5938 61.3018 49.4502 60.2058 50.7291 59.9082V58.3264C49.4502 58.0288 48.5938 56.9328 48.5938 55.5638C48.5938 54.1947 49.4502 53.0987 50.7291 52.8012V51.2193C49.4502 50.9218 48.5938 49.8258 48.5938 48.4567C48.5938 47.0876 49.4502 45.9916 50.7291 45.6941V44.1122C49.6803 43.8693 48.9163 43.0878 48.6749 42.0615H47.1696V72.6196H46.8432C46.1094 70.4182 45.0078 68.3844 43.61 66.5916V66.2244H45.0342V61.9609H41.4746V66.2244H42.1858V66.6142C41.2634 68.4522 40.5786 70.4728 40.19 72.6196H39.9108C39.5204 70.4728 38.8375 68.4522 37.9151 66.6142V66.2244H38.6262V61.9609H35.0667V66.2244H35.7778V66.6142C34.8554 68.4522 34.1706 70.4728 33.782 72.6196H33.5029C33.1124 70.4728 32.4295 68.4522 31.5071 66.6142V66.2244H32.2183V61.9609H28.6606V66.2244H29.3717V66.6142C28.4493 68.4522 27.7646 70.4728 27.376 72.6196H27.0968C26.7063 70.4728 26.0234 68.4522 25.101 66.6142V66.2244H25.8122V61.9609H22.2545V66.2244H23.6787V66.5916C22.2809 68.3844 21.1793 70.4182 20.4455 72.6196H20.1191V42.0558H18.6138C18.3705 43.0822 17.6046 43.8618 16.5596 44.1066V45.6903C17.8347 45.9879 18.6949 47.0839 18.6949 48.4529C18.6949 49.822 17.8347 50.9161 16.5596 51.2155V52.7993C17.8347 53.0968 18.6949 54.1928 18.6949 55.5619C18.6949 56.931 17.8347 58.0251 16.5596 58.3245V59.9082C17.8347 60.2058 18.6949 61.3018 18.6949 62.6708C18.6949 64.0399 17.8347 65.134 16.5596 65.4334V67.0172C17.8347 67.3147 18.6949 68.4107 18.6949 69.7798C18.6949 71.3899 17.5046 72.6234 15.8484 72.6234C14.1846 72.6234 13 71.3899 13 69.7798C13 68.4107 13.8564 67.3147 15.1354 67.0172V65.4353C13.8564 65.1303 13 64.0343 13 62.6652C13 61.2961 13.8564 60.2001 15.1354 59.9026V58.3207C13.8564 58.0232 13 56.9272 13 55.5581C13 54.1891 13.8564 53.0931 15.1354 52.7955V51.2137C13.8564 50.9161 13 49.8201 13 48.4511C13 47.082 13.8564 45.986 15.1354 45.6885V44.1066C13.8564 43.8109 13 42.7149 13 41.3459C13 39.7358 14.1827 38.5023 15.8484 38.5023C17.2519 38.5023 18.3195 39.3855 18.6138 40.634H48.6749C48.9673 39.3855 50.0331 38.5023 51.4422 38.5023C53.0984 38.5023 54.2887 39.7358 54.2887 41.3459C54.2887 42.7149 53.4285 43.8091 52.1533 44.1085V45.6922C53.4285 45.9898 54.2887 47.0858 54.2887 48.4548C54.2887 49.8201 53.4285 50.9161 52.1533 51.2137ZM16.5445 68.503C16.4785 68.8269 16.2068 69.0604 15.8484 69.0604C15.4862 69.0604 15.2165 68.8288 15.1523 68.503C14.6996 68.7271 14.4242 69.1809 14.4242 69.7704C14.4242 70.6197 14.9958 71.1922 15.8484 71.1922C16.6992 71.1922 17.2726 70.6216 17.2726 69.7704C17.2707 69.1828 16.9953 68.7271 16.5445 68.503ZM16.5445 61.3978C16.4785 61.7217 16.2068 61.9552 15.8484 61.9552C15.4862 61.9552 15.2165 61.7236 15.1523 61.3978C14.6996 61.6219 14.4242 62.0758 14.4242 62.6652C14.4242 63.2546 14.6996 63.7085 15.1523 63.9326C15.2165 63.6087 15.4881 63.3751 15.8484 63.3751C16.2087 63.3751 16.4803 63.6068 16.5445 63.9326C16.9972 63.7085 17.2726 63.2546 17.2726 62.6652C17.2707 62.0758 16.9953 61.6219 16.5445 61.3978ZM16.5445 54.2908C16.4785 54.6147 16.2068 54.8482 15.8484 54.8482C15.4862 54.8482 15.2165 54.6165 15.1523 54.2908C14.6996 54.5148 14.4242 54.9687 14.4242 55.5581C14.4242 56.1476 14.6996 56.6014 15.1523 56.8255C15.2165 56.5016 15.4881 56.2681 15.8484 56.2681C16.2087 56.2681 16.4803 56.4997 16.5445 56.8255C16.9972 56.6014 17.2726 56.1476 17.2726 55.5581C17.2707 54.9687 16.9953 54.5148 16.5445 54.2908ZM17.2707 41.3459C17.2707 40.4966 16.6992 39.9241 15.8465 39.9241C14.9958 39.9241 14.4223 40.4947 14.4223 41.3459C14.4223 41.9353 14.6977 42.3891 15.1505 42.6132C15.2146 42.2893 15.4862 42.0558 15.8465 42.0558C16.2068 42.0558 16.4785 42.2875 16.5426 42.6132C16.9953 42.3891 17.2707 41.9334 17.2707 41.3459ZM25.8141 55.5581H22.2545V59.8216H25.8141V55.5581ZM25.8141 49.1629H22.2545V53.4264H25.8141V49.1629ZM25.8141 42.7658H22.2545V47.0293H25.8141V42.7658ZM32.2201 55.5581H28.6606V59.8216H32.2201V55.5581ZM32.2201 49.1629H28.6606V53.4264H32.2201V49.1629ZM32.2201 42.7658H28.6606V47.0293H32.2201V42.7658ZM38.6281 55.5581H35.0685V59.8216H38.6281V55.5581ZM38.6281 49.1629H35.0685V53.4264H38.6281V49.1629ZM38.6281 42.7658H35.0685V47.0293H38.6281V42.7658ZM45.0342 55.5581H41.4746V59.8216H45.0342V55.5581ZM45.0342 49.1629H41.4746V53.4264H45.0342V49.1629ZM45.0342 42.7658H41.4746V47.0293H45.0342V42.7658ZM50.7442 42.6132C50.8084 42.2893 51.08 42.0558 51.4403 42.0558C51.8006 42.0558 52.0722 42.2875 52.1364 42.6132C52.5891 42.3891 52.8645 41.9353 52.8645 41.3459C52.8645 40.4966 52.2929 39.9241 51.4403 39.9241C50.5895 39.9241 50.0161 40.4947 50.0161 41.3459C50.018 41.9334 50.2915 42.3891 50.7442 42.6132ZM52.1382 68.503C52.0722 68.8269 51.8006 69.0604 51.4422 69.0604C51.08 69.0604 50.8102 68.8288 50.7461 68.503C50.2934 68.7271 50.0199 69.1809 50.0199 69.7704C50.0199 70.6197 50.5914 71.1922 51.4441 71.1922C52.2948 71.1922 52.8683 70.6216 52.8683 69.7704C52.8645 69.1828 52.5891 68.7271 52.1382 68.503ZM52.1382 61.3978C52.0722 61.7217 51.8006 61.9552 51.4422 61.9552C51.08 61.9552 50.8102 61.7236 50.7461 61.3978C50.2934 61.6219 50.0199 62.0758 50.0199 62.6652C50.0199 63.2546 50.2953 63.7085 50.7461 63.9326C50.8102 63.6087 51.0819 63.3751 51.4422 63.3751C51.8025 63.3751 52.0741 63.6068 52.1382 63.9326C52.591 63.7085 52.8664 63.2546 52.8664 62.6652C52.8645 62.0758 52.5891 61.6219 52.1382 61.3978ZM52.1382 54.2908C52.0722 54.6147 51.8006 54.8482 51.4422 54.8482C51.08 54.8482 50.8102 54.6165 50.7461 54.2908C50.2934 54.5148 50.0199 54.9687 50.0199 55.5581C50.0199 56.1476 50.2953 56.6014 50.7461 56.8255C50.8102 56.5016 51.0819 56.2681 51.4422 56.2681C51.8025 56.2681 52.0741 56.4997 52.1382 56.8255C52.591 56.6014 52.8664 56.1476 52.8664 55.5581C52.8645 54.9687 52.5891 54.5148 52.1382 54.2908ZM16.5445 47.1837C16.4785 47.5076 16.2068 47.7411 15.8484 47.7411C15.4862 47.7411 15.2165 47.5095 15.1523 47.1837C14.6996 47.4078 14.4242 47.8616 14.4242 48.4511C14.4242 49.0405 14.6996 49.4943 15.1523 49.7184C15.2165 49.3945 15.4881 49.161 15.8484 49.161C16.2087 49.161 16.4803 49.3926 16.5445 49.7184C16.9972 49.4943 17.2726 49.0405 17.2726 48.4511C17.2707 47.8635 16.9953 47.4078 16.5445 47.1837ZM52.1382 47.1837C52.0722 47.5076 51.8006 47.7411 51.4422 47.7411C51.08 47.7411 50.8102 47.5095 50.7461 47.1837C50.2934 47.4078 50.0199 47.8616 50.0199 48.4511C50.0199 49.0405 50.2953 49.4943 50.7461 49.7184C50.8102 49.3945 51.0819 49.161 51.4422 49.161C51.8025 49.161 52.0741 49.3926 52.1382 49.7184C52.591 49.4943 52.8664 49.0405 52.8664 48.4511C52.8645 47.8635 52.5891 47.4078 52.1382 47.1837Z" fill="#1D1D1D"/>
</svg>
