<svg width="218" height="98" viewBox="0 0 218 98" fill="none" xmlns="http://www.w3.org/2000/svg">
<path d="M125.537 66.7037V13.9727V66.7037ZM142.374 49.3214H74.6938H142.374ZM80.4166 66.7037V13.9727V66.7037ZM86.1199 66.7037V13.9727V66.7037ZM91.5507 66.7037V13.9727V66.7037ZM97.2539 66.7037V13.9727V66.7037ZM102.977 66.7037V13.9727V66.7037ZM108.68 66.7037V13.9727V66.7037ZM114.383 66.7037V13.9727V66.7037ZM120.087 66.7037V13.9727V66.7037ZM131.24 66.7037V13.9727V66.7037ZM136.943 66.7037V13.9727V66.7037ZM142.374 19.6954H74.6938H142.374ZM142.374 25.6712H74.6938H142.374ZM142.374 31.647H74.6938H142.374ZM142.374 37.6228H74.6938H142.374ZM142.374 43.5986H74.6938H142.374ZM142.374 55.0246H74.6938H142.374ZM142.374 61.0004H74.6938H142.374ZM74.6938 13.9727H142.374V66.7037H74.6938V13.9727Z" stroke="#404777" stroke-width="0.5" stroke-miterlimit="1"/>
<path d="M73.9538 97.4196V96.5631C74.5961 96.2711 75.1217 95.9597 75.5305 95.6288C75.5889 95.1811 75.6473 94.4609 75.6862 93.4487C75.764 91.5995 75.8224 90.2759 75.8224 89.4389V82.2173C75.8224 81.9448 75.803 80.8937 75.764 79.0834C75.7251 77.8766 75.6473 77.1369 75.5499 76.8644C75.4915 76.7476 75.4137 76.6697 75.3164 76.6308C75.0244 76.4945 74.2652 76.4167 73 76.3388V74.9763L76.7178 75.0541C77.4575 75.0736 78.1583 75.0736 78.8395 75.0736C80.2994 75.0736 81.9345 75.0541 83.7253 75.0347L86.976 74.9568C87.3653 74.9568 88.1439 74.9763 89.3118 75.0152C89.4286 75.0152 89.6038 75.0541 89.8373 75.1125L89.9541 75.3266L89.6427 77.643C89.6232 77.7987 89.5843 78.5773 89.487 79.9593H88.2412C88.2217 78.6941 88.1633 77.9155 88.1049 77.643C88.066 77.4873 87.9882 77.3899 87.9103 77.3121C87.774 77.2147 87.3458 77.1369 86.6256 77.059C85.5745 76.9422 84.5234 76.8838 83.5112 76.8838C82.5574 76.8838 81.5841 76.9228 80.5914 77.0006C80.4357 78.2075 80.3773 79.7452 80.3773 81.5944V84.884C81.0975 84.9424 81.8566 84.9619 82.6547 84.9619C82.9078 84.9619 83.7837 84.9424 85.3214 84.9035C85.9054 84.884 86.2363 84.8451 86.3336 84.7867C86.4309 84.7283 86.5088 84.6115 86.5672 84.4558C86.684 84.047 86.7619 83.3657 86.7813 82.4119H88.0855L88.0271 85.9351L88.0855 89.4389H86.7035C86.7229 88.1931 86.6256 87.4339 86.4699 87.142C86.3336 86.9279 86.1195 86.7916 85.7886 86.7332C85.0489 86.6164 84.0951 86.558 82.9467 86.558C81.915 86.558 81.0586 86.5969 80.3773 86.6553V93.4487C80.3773 94.2078 80.3968 94.8502 80.4162 95.4147C81.2921 95.4731 82.3043 95.512 83.4917 95.512C84.6402 95.512 85.7107 95.473 86.684 95.3952C87.6572 95.3173 88.2607 95.22 88.4942 95.0643C88.5721 95.0253 88.6305 94.928 88.7084 94.7723C88.903 94.2662 89.0977 93.2929 89.3118 91.8525H90.6354C90.4018 93.9742 90.285 95.7066 90.285 97.0887L90.0709 97.3028C89.3896 97.3806 88.4164 97.4196 87.1512 97.4196L84.5623 97.3806C82.0124 97.3417 80.2605 97.3417 79.3067 97.3417C79.0537 97.3222 77.2629 97.3612 73.9538 97.4196Z" fill="#404777"/>
<path d="M91.7837 76.3193V74.9957C92.0367 74.9957 92.8932 75.0152 94.3531 75.0541C95.0733 75.0736 96.0855 75.093 97.3896 75.093C98.5186 75.093 99.4724 75.0736 100.27 75.0347C101.594 74.9763 102.684 74.9568 103.56 74.9568C105.234 74.9568 106.499 75.0736 107.336 75.3266C108.173 75.5602 108.874 76.0663 109.478 76.8254C110.061 77.5846 110.353 78.5189 110.353 79.609C110.353 80.9131 109.945 82.081 109.147 83.1321C108.349 84.1833 107.103 85.0203 105.448 85.6432C105.721 86.1298 106.013 86.6164 106.363 87.1225C106.713 87.6286 106.908 87.94 106.967 88.0374C107.025 88.1347 107.083 88.2515 107.161 88.3488L109.653 92.0861C110.315 93.0788 110.665 93.6239 110.723 93.6823C111.521 94.7528 112.008 95.3757 112.203 95.5704C112.378 95.765 112.553 95.9013 112.728 95.9791C112.903 96.057 113.234 96.0959 113.74 96.0959V97.4196C112.086 97.3806 110.898 97.3612 110.159 97.3612C109.302 97.3612 108.446 97.3806 107.609 97.4196C107.55 97.186 107.434 96.8745 107.22 96.5047L103.794 90.8403C102.801 89.2053 101.983 87.94 101.302 87.0057C100.952 86.5385 100.621 86.1882 100.309 85.9546L100.485 85.429C101.769 85.468 102.743 85.3317 103.385 85.0397C104.047 84.7283 104.592 84.1833 105.039 83.4047C105.487 82.6261 105.721 81.7307 105.721 80.7574C105.721 79.7841 105.487 78.9471 105.02 78.3048C104.553 77.643 103.969 77.1953 103.268 76.9422C102.82 76.7865 102.022 76.7086 100.854 76.7086C100.348 76.7086 99.8423 76.7476 99.3362 76.8254C99.2972 77.2147 99.2778 78.0712 99.2388 79.4143C99.1804 82.4314 99.1415 84.4558 99.1415 85.468C99.1415 87.0641 99.161 88.777 99.1804 90.5678C99.2194 92.7674 99.2583 94.0132 99.2778 94.3246C99.3167 94.928 99.3751 95.3173 99.453 95.4925C99.4919 95.5704 99.5697 95.6482 99.6671 95.7261C99.7644 95.7845 99.9201 95.8429 100.134 95.8818C100.348 95.9207 100.971 95.9597 102.003 95.9791V97.3806C100.173 97.3222 98.324 97.2833 96.4553 97.2833C94.7813 97.2833 93.2436 97.3222 91.8226 97.3806V96.0181C93.0489 95.9791 93.7691 95.9207 93.9832 95.8429C94.1195 95.8039 94.1974 95.765 94.2558 95.6872C94.3142 95.6093 94.3531 95.4536 94.392 95.2395C94.4699 94.8307 94.5283 94.1883 94.5477 93.3513L94.6645 88.6797V82.7234L94.6061 79.3364C94.5867 77.9933 94.5283 77.1953 94.4115 76.9228C94.3531 76.806 94.2752 76.7087 94.1779 76.6503C93.9054 76.514 93.1073 76.3972 91.7837 76.3193Z" fill="#404777"/>
<path d="M114.733 97.4196V96.0571C115.94 95.9792 116.66 95.8819 116.875 95.804C117.011 95.7651 117.108 95.6872 117.186 95.5899C117.283 95.4536 117.342 95.2395 117.381 94.9865C117.459 94.3831 117.517 93.04 117.575 90.9961C117.614 90.0034 117.634 88.2905 117.634 85.8573C117.634 83.6967 117.614 81.7697 117.575 80.0957C117.536 78.4217 117.478 77.4289 117.361 77.098C117.322 76.9423 117.244 76.8255 117.167 76.7476C117.069 76.6698 116.894 76.6114 116.641 76.553C115.94 76.4362 115.298 76.3583 114.733 76.3389V74.9763C116.933 75.0347 118.451 75.0736 119.288 75.0736C120.398 75.0736 121.488 75.0347 122.617 74.9763L124.038 78.1491L125.167 80.5628L130.267 91.074C131.357 88.9718 132.174 87.3367 132.719 86.1688L134.841 81.7307C136.028 79.2392 136.729 77.7209 137.002 77.1564C137.274 76.5919 137.566 75.8522 137.897 74.9763C139.298 75.0542 140.194 75.0931 140.583 75.0931L145.352 74.9763V76.3389H145.099C144.028 76.3194 143.328 76.4557 143.055 76.7087C142.763 76.9618 142.627 77.4679 142.627 78.227C142.627 79.1224 142.627 79.7842 142.607 80.2514L142.53 84.7478V90.3732C142.53 91.7358 142.53 92.5339 142.549 92.7869C142.627 94.1495 142.705 94.9865 142.763 95.2785C142.802 95.4342 142.861 95.551 142.938 95.6483C143.016 95.7456 143.152 95.804 143.308 95.8624C143.464 95.9013 144.145 95.9792 145.333 96.0571V97.4196L140.213 97.3223L135.211 97.4196V96.0571C136.534 96.0181 137.293 95.9403 137.488 95.8235C137.683 95.7067 137.819 95.4536 137.897 95.0643C137.975 94.675 138.014 93.3514 138.014 91.0935V79.4144L134.296 86.9279L132.525 90.6652C132.057 91.6579 131.396 93.0789 130.539 94.9476C130.014 96.0765 129.605 96.9914 129.313 97.6921H128.223C127.833 96.7967 127.288 95.5704 126.549 94.0132C125.303 91.3465 124.369 89.3416 123.726 88.0374L119.502 79.4338V87.2978C119.502 88.6214 119.522 90.1786 119.561 91.9888C119.6 93.7991 119.639 94.8308 119.678 95.0643C119.716 95.2979 119.794 95.4731 119.872 95.5899C119.97 95.6872 120.125 95.7846 120.359 95.8624C120.592 95.9403 121.235 96.0181 122.325 96.0765V97.4391C121.137 97.3807 119.911 97.3418 118.646 97.3418C116.991 97.3223 115.687 97.3612 114.733 97.4196Z" fill="#404777"/>
<path d="M120.086 65.5939L141.167 43.754V43.7346L130.987 33.0482L126.334 38.1675L125.536 37.6225L130.967 31.9192L142.374 43.5983L120.086 66.7034L74.4209 19.9676L74.9659 19.4226L120.086 65.5939Z" fill="#404777"/>
<path d="M85.5742 50.9369C85.7689 50.7423 85.4769 50.4503 85.0292 50.6644C84.9319 49.9053 84.4842 50.0415 84.4842 49.8469C84.2311 49.769 84.9319 49.2045 85.0292 49.3019L84.7567 49.0294V48.7568H84.4842L83.9392 48.2118C83.5304 47.9393 83.3941 47.803 83.6666 47.6668C83.9586 47.3943 83.3941 46.966 83.1216 47.1218C83.1216 47.2386 82.8491 47.1023 82.8491 46.8493L82.5766 46.3042C82.2846 46.4016 82.1484 46.2653 82.3041 46.0317C82.4209 45.7203 82.2846 45.7592 82.0316 45.7203C81.4476 45.7203 81.4476 45.4478 81.7591 45.1558C82.1484 45.1558 81.9926 45.0195 81.7591 44.9417H81.214V44.6692L81.4865 44.1241L81.214 43.5791C80.7469 44.3188 80.6106 43.3455 80.9415 43.0341L80.669 42.781C80.4744 42.781 80.1824 42.2165 80.124 41.6715C79.6374 41.6715 79.6374 41.1265 80.124 41.1265H80.3965C81.1556 41.2628 80.8831 40.6983 80.124 40.5815C80.0461 40.4258 80.0461 40.5815 79.8515 40.5815L79.579 40.309V40.0365L79.3065 39.7639L79.579 39.4914L79.8515 39.2189L79.579 38.6739H79.3065C79.2091 38.6155 79.2091 38.3235 79.3065 38.1289C79.2091 38.051 78.9366 37.8564 79.0339 37.8564V37.6228L78.4889 37.3503V36.5327L78.2164 36.2602V35.7152L77.9439 35.4427C77.3989 35.4427 77.5351 35.3064 77.9634 35.1702C77.9634 35.0144 77.8271 34.8977 77.3989 34.8782C77.1264 34.8782 76.9901 34.7419 76.8538 34.6251V34.6057C76.9901 34.6057 77.1264 34.4694 77.1264 34.3332C77.6714 34.3332 77.6714 34.0607 77.3989 33.8076L77.1264 33.4962C77.3989 33.4962 77.2626 33.2821 77.1264 33.2821V33.0095C76.6981 33.0874 76.6981 32.5229 76.8538 32.4645C77.1264 32.2504 77.1264 31.9779 76.5813 31.647V31.102L76.0363 30.8294V30.5569L75.7638 30.2844H76.0363C76.6981 30.1676 76.2894 29.3306 75.7638 29.1944L76.0363 28.9024C76.4256 28.9024 76.4256 28.6299 76.3088 28.3768V28.1043L76.0363 27.8318C75.7249 27.9291 75.5886 27.7929 75.7638 27.2479C75.5886 27.2479 75.5886 27.1116 75.7638 27.0337C76.1531 26.5666 75.9974 26.5666 75.4913 26.4887C74.7516 26.4109 75.0241 25.9437 75.4913 25.9437C75.7249 25.8658 75.8611 25.5739 75.4913 25.3987C75.3161 25.3013 75.2188 25.0288 75.2188 24.8536L74.9463 24.5811V24.3086H75.2188C75.0241 24.0556 75.2188 23.7636 75.2188 23.7636C75.3161 23.3548 75.3161 23.0823 74.9463 22.9461V22.6735H75.2188L74.9463 22.401C74.2066 22.5178 74.3428 21.5446 74.4012 21.311C74.1871 20.9801 74.3428 20.7076 74.4012 20.4935C74.3428 20.1431 74.3428 20.0068 74.4012 19.9484V17.7683V17.4958L73.8562 17.2233C74.0509 17.0871 73.7784 16.7951 73.5837 16.6783V16.4058C73.9146 16.2501 73.7784 15.6856 73.5837 15.3157L73.8562 14.7707C74.4791 14.7123 74.0509 14.2841 73.5837 14.2257V13.9532L73.8562 13.7391C74.0509 13.7391 74.0509 13.6028 73.8562 13.4081L73.5837 12.8631V12.3181C73.3501 11.7925 73.5058 11.5006 73.5837 11.228C73.7784 11.228 73.6421 10.6636 73.3112 10.138V9.86549C73.2139 9.55405 73.2139 9.41779 73.5837 9.32046C73.7784 9.14528 73.5837 8.8533 73.5837 8.50293C72.8051 7.88004 73.3501 7.88004 73.5837 7.14037V6.86786V6.32283C73.2139 5.93353 73.5058 5.5053 73.5837 5.5053C73.7784 5.36904 73.7784 5.36904 73.8562 5.23278C73.7784 5.09653 73.7784 4.96027 73.8562 4.96027V4.41525C73.5058 4.53204 73.5837 4.25953 73.5837 4.14274C73.7784 3.8313 73.6421 3.87023 73.3112 3.87023V3.55878C73.5058 3.55878 73.5837 3.42253 73.6421 3.3252C73.6421 3.13055 73.7784 3.05269 73.8562 3.05269C73.7784 2.85804 73.7784 2.58553 73.8562 2.50767C73.9146 2.29355 73.9146 2.02104 73.8562 1.96264C73.6421 1.88478 73.6421 1.41762 73.8562 1.41762C73.9146 1.32029 74.0509 1.04778 74.1287 0.872593C73.9146 0.775268 74.0509 0.600083 74.1287 0.600083C74.3428 0.21078 74.4791 0.21078 74.6737 0.600083V1.41762C74.7516 1.32029 74.7516 1.41762 74.6737 1.41762V1.96264C74.8879 2.02104 74.8879 2.29355 74.6737 2.50767C74.7516 2.44927 74.7516 2.58553 74.9463 2.78018V3.28627C75.0241 3.28627 75.0241 3.55878 74.8879 3.85076C74.8879 3.85076 74.9463 3.98702 74.9463 3.88969V4.43471V6.3423V6.61481V7.19876C75.0241 7.19876 75.0241 7.33502 74.9463 7.43235V7.97737C75.1604 7.89951 75.3161 8.17202 75.1604 8.24988C75.1604 8.60025 75.1604 9.14528 75.4718 9.33993C75.2966 9.70977 75.2966 9.98228 75.4329 10.1575C75.4329 10.4105 75.5691 12.4933 75.7443 12.9021C75.9779 12.9021 75.9779 14.2841 75.7443 14.7707C75.9779 15.1211 76.0168 15.5493 75.9779 15.8608C75.9779 15.9581 76.2699 16.6588 76.2699 17.2233L76.2504 17.4958C76.2504 17.4958 76.2699 17.4958 76.2699 17.7683C76.1142 17.7683 76.2699 18.0408 76.2699 18.3134C76.3867 18.1966 76.5424 18.3328 76.5229 18.6053C76.5229 18.6053 76.3867 18.5859 76.2699 18.5859V18.8584C76.6592 19.0336 76.6592 20.0068 76.5424 20.2209C76.9512 20.4156 77.2237 21.9533 77.0874 22.1285L77.3599 22.6735H77.0874V23.2186C77.3599 23.4911 77.3599 23.6273 77.3599 24.3086C77.6325 24.4643 77.905 25.4376 77.905 25.9437C78.1969 26.1383 78.1775 26.8391 78.1775 26.7612L78.1969 27.3063C78.1969 27.3841 78.3332 27.5204 78.45 27.8513C78.3332 28.0849 78.45 28.0849 78.45 28.3963C78.6252 28.7856 78.6252 28.9219 78.7614 29.2138C78.7614 29.3501 79.1702 30.3233 79.2675 30.8489C79.4622 31.1604 79.54 31.5691 79.5984 31.9974C79.5984 31.9974 79.8709 32.6981 79.8125 32.7565C79.7347 33.1069 79.7347 32.9706 79.8125 33.029L80.0851 33.574C80.2992 33.2431 80.4354 34.2164 80.3576 34.3916C80.5717 34.6446 80.5717 34.6641 80.6301 34.6641C80.7079 34.9171 80.7079 35.4816 80.6301 35.4816V36.0266C80.7079 36.1824 80.9026 36.3186 80.8442 36.5717C80.8442 36.7274 80.9026 36.9999 80.9026 37.3892C81.4087 37.1556 81.7201 37.9926 81.7201 38.7518C81.9537 38.8296 82.1094 38.9659 82.2652 39.0243C82.1094 39.3746 82.2652 39.9391 82.2652 40.1143C82.5182 40.2116 82.8102 40.5036 82.7907 40.6593C82.7907 41.0486 83.0827 41.4769 83.0827 41.4769C83.764 42.1582 83.764 42.2944 83.9002 42.5669C84.0559 42.8589 84.3285 42.9952 84.1727 43.3845C84.3285 43.2871 84.4452 43.4234 84.4452 43.657C84.8929 43.9879 84.8929 44.1241 84.7178 44.4745C84.6204 44.5329 84.7567 44.9611 84.9903 45.0195C86.0025 45.5062 86.0025 45.6619 86.0803 46.1096V46.3821C86.4307 46.7714 87.5402 48.0172 87.9879 48.8542C88.3772 48.8542 88.3772 49.1267 88.2604 49.3797C88.5135 49.2824 88.8054 49.6912 88.8054 49.9637C89.078 49.9637 89.3505 50.3724 89.078 50.7228L89.623 50.9953L89.8955 51.2678L89.915 51.5404C89.915 51.6182 90.0512 51.6182 90.168 51.8129V51.7739C90.3237 51.7739 90.46 51.9102 90.713 51.8129V52.0854C90.46 52.319 90.752 52.6304 90.9855 52.6304C91.297 52.7472 91.4332 53.0197 91.5695 53.4285C91.5695 53.4285 91.7836 53.5647 91.7836 53.9735L92.6011 54.5185C93.224 54.2655 93.224 54.6742 93.1462 55.0635L93.4187 55.3361L93.6912 55.6086L93.9637 55.8811H94.2362L94.5087 56.1536H94.7812L95.0538 56.4261L95.5988 56.6986L95.8908 56.9711C95.8908 57.1852 96.027 57.5161 96.1438 57.4578C96.2995 57.4578 96.572 57.7887 96.6888 57.7887L96.9613 58.0222C97.1365 58.0222 97.5453 58.1585 97.7789 58.3337C97.9735 58.5867 98.246 58.723 98.5964 58.8787C98.9468 59.1318 99.92 59.6963 100.504 60.2413V60.2607C100.621 60.2607 100.621 60.2607 100.504 60.5138C102.295 60.6695 102.295 61.5065 102.412 62.1489H102.684H102.957L103.229 61.8763C103.969 61.5065 104.378 61.9153 104.592 62.2072C104.67 62.2072 104.942 62.2072 104.864 62.4214C104.942 62.4798 104.942 62.4798 105.078 62.6939C105.078 62.8885 105.487 63.0443 105.682 62.9664C105.779 62.7523 106.052 62.7523 106.227 62.9664H106.499H106.772L107.317 63.2389C107.453 63.0442 107.726 63.1805 107.862 63.2389C107.998 63.453 108.29 63.453 108.407 63.2389C108.563 63.3168 108.835 63.3168 108.952 63.5114L109.769 63.7839H110.042H110.314H110.587H110.859C111.638 63.5893 112.319 64.0564 112.495 64.0564L112.767 64.329V64.0564H113.04V64.329H113.857H114.13V64.0564H114.402H114.675V64.329H115.22C115.395 64.4263 116.096 64.29 116.31 64.0564H116.582H116.855H117.4H117.945C118.042 64.1538 119.152 64.1538 119.288 64.0564C119.288 64.1538 119.424 64.29 119.56 64.0564C119.833 64.1538 121.079 64.0564 121.195 64.0564C121.507 64.1538 121.507 64.0175 121.74 63.745C122.071 63.745 122.889 63.5114 123.103 63.5114C123.317 63.5893 124.193 63.3168 124.193 63.2389C124.29 63.0442 124.719 62.7523 125.011 62.6939C125.127 62.7523 125.283 62.7523 125.283 62.6939C125.419 62.4798 125.556 62.3435 125.556 62.4214H125.828C125.964 62.3435 125.964 62.3435 126.101 62.4214C126.101 62.2072 126.373 61.9347 126.646 62.1489C126.801 62.3435 126.801 62.2072 126.918 61.8763C127.074 61.5065 127.638 61.3313 128.008 61.3313C128.203 61.5065 128.339 61.3702 128.553 61.0588C128.612 60.942 129.176 60.6695 129.371 60.7863C129.449 60.6695 129.721 60.5138 129.916 60.5138C130.013 60.2607 130.033 60.2413 130.208 60.2413L130.227 60.2023C130.344 60.1245 130.578 60.1439 130.733 60.2607C130.986 60.2607 131.123 60.1245 131.006 59.9688C131.123 59.6962 131.551 59.2875 131.823 59.4237C132.096 59.4237 132.797 59.1512 132.933 58.6257C132.933 58.0417 133.497 57.8081 133.731 57.8081C134.042 58.178 134.198 57.7692 134.276 57.2631V56.9906C134.198 57.0685 134.334 57.0685 134.549 56.9906C135.035 57.2047 135.171 56.9322 135.094 56.7181C135.171 55.9589 135.035 56.0952 135.366 55.9005V55.628H135.639V55.3555H135.911V55.083L136.184 54.8105L136.456 54.538H136.729C136.845 54.4212 136.845 54.4212 136.709 54.538C136.709 54.1292 136.845 53.993 137.001 53.993C137.118 53.993 137.39 53.8567 137.274 53.7205C136.845 53.156 137.254 53.0197 137.546 52.9029C137.682 52.6109 137.819 52.6109 137.546 52.3579C137.546 52.1827 137.546 52.1827 137.546 52.0854L138.091 51.8129V51.5404V51.2678C138.091 51.2094 138.091 50.9369 138.364 50.7228C138.227 50.645 138.519 50.5087 138.636 50.4503C138.519 49.9637 138.519 49.8274 138.656 49.6717C138.656 49.6717 138.792 49.6717 138.656 49.3603C138.656 49.2629 138.792 48.971 138.909 48.8347C139.064 48.8347 139.181 48.5427 139.181 48.5427C138.928 48.134 139.064 48.134 139.22 47.9977C139.22 47.9977 139.356 47.7252 139.22 47.4527C139.22 47.4527 139.22 47.3164 139.473 47.1802C139.376 47.0244 139.473 47.0244 139.473 46.9077C139.376 46.4794 139.376 45.6424 139.473 45.2726C139.376 45.0779 139.473 45.0779 139.473 45.0001C138.948 44.5134 139.084 44.2409 139.473 44.1825V43.91C139.22 43.8322 139.376 43.365 139.473 43.365V43.0925L139.512 42.82C139.512 42.7032 139.473 42.5475 139.473 42.5475C139.22 42.2944 139.376 42.2749 139.512 42.2749C139.512 42.0024 139.473 42.0024 139.473 42.0024C139.22 41.7299 139.201 41.5937 139.201 41.1849C139.376 41.0292 139.376 41.0292 139.201 40.6399C138.948 40.3479 138.948 40.3479 139.201 39.8223C138.948 39.5109 138.948 39.2189 139.201 39.0048C139.376 38.8102 139.376 38.8102 139.201 38.7323L138.656 38.1873C138.539 37.9731 138.675 37.8369 138.383 37.6812C138.247 37.6812 138.111 37.5449 138.111 37.3697C137.702 37.2724 137.838 36.7079 137.838 36.5522L137.566 36.2797C137.001 35.8709 137.274 35.5984 137.566 35.4621C138.111 35.0339 137.566 34.7614 137.021 34.9171C136.729 35.5984 136.573 35.4621 136.476 35.1702C136.164 35.1702 136.028 35.0339 135.931 34.9171C136.028 34.7614 136.028 34.7614 135.931 34.6446C136.028 34.4889 136.028 34.4889 135.931 34.3721C135.6 34.4889 135.327 34.3332 135.113 34.0607C135.055 34.0607 135.055 33.9244 134.84 33.8271C134.626 33.9244 133.926 33.7881 133.75 33.5156C133.517 33.5156 133.381 33.5156 133.205 33.029C133.089 32.9706 133.089 32.6981 132.933 32.7565L132.66 32.484L132.388 32.2115C132.252 32.2699 131.843 32.1336 131.843 31.939C131.843 31.7248 131.57 31.7248 131.57 31.9974C131.434 31.9974 130.597 32.4061 129.935 32.484L129.663 32.2115C129.196 32.2699 128.222 32.8344 128.028 33.3015L127.522 33.574C127.522 33.9439 127.385 34.1191 127.21 34.1191C126.821 34.2164 126.685 34.5084 126.938 34.6641L126.918 34.6835L126.665 34.9366V35.2091L126.393 35.4816C126.276 36.0461 126.412 36.2991 126.665 36.3186C127.23 36.3186 126.821 36.2991 126.938 36.2991L127.21 36.5717C127.113 36.4549 127.522 36.2991 127.755 36.2991C127.93 36.0461 128.359 35.8904 128.845 36.0266C129.468 35.1896 130.033 35.6179 129.935 36.0266C130.033 36.3186 130.733 36.5717 131.025 36.5717C131.278 36.3186 131.57 36.8636 131.298 37.1167V37.3892L131.57 37.6617V37.9342L132.115 37.9926C132.252 37.9926 132.252 38.4014 131.843 38.4792L131.57 38.7518C131.278 39.2384 131.707 39.2384 131.843 39.0243C132.252 38.8296 132.252 39.3746 132.115 40.1143V40.3868L132.388 40.6593C132.544 40.9124 132.544 41.0486 132.388 41.1849C132.115 41.1849 131.707 41.4574 131.57 41.1849C131.278 41.1849 131.142 41.1849 131.025 40.9319L130.753 41.4769H130.48H129.935L129.663 41.7494C129.332 42.1776 129.196 42.1776 129.118 42.0219C128.923 42.0219 128.767 42.1582 128.573 42.5669C128.359 42.7226 127.95 42.7226 128.028 42.5669C128.222 42.1776 127.93 41.8856 127.755 42.0219L127.483 42.2944H127.21V42.5669H126.938C126.276 42.3139 126.548 42.3139 126.938 42.0219L127.21 42.2944L127.483 42.0219V41.4769V41.2044L127.21 40.9319C126.957 41.0486 126.821 40.9124 126.938 40.6593C126.821 40.5036 126.393 40.5036 126.393 40.6593L126.412 40.9319V41.2044C126.412 41.3406 126.12 41.4769 126.12 40.9124C125.984 40.9124 125.848 40.9319 125.575 40.9319C125.011 41.1849 124.874 40.7761 125.03 40.3674C125.147 40.3674 125.147 40.2311 124.758 40.1143L124.485 39.8029C124.602 39.8029 124.446 39.6666 124.213 39.5693C124.037 39.6666 124.037 39.6666 123.94 39.5693C123.473 39.2384 123.337 39.1021 123.668 39.0243C123.901 38.6934 123.765 38.5571 123.395 38.4792V37.9342C122.928 37.4281 123.473 37.1556 123.668 37.3892C124.446 37.1556 124.037 36.7274 123.629 36.8442C123.629 37.0194 123.492 37.0194 123.122 36.8442C122.792 36.3186 122.928 36.0461 123.395 35.7541V35.4816C122.792 35.3454 123.064 35.0534 123.122 34.9366L123.356 34.6835L123.395 34.6446L123.668 34.3526C124.037 34.3526 123.901 34.0801 123.668 33.8271C123.337 34.0607 123.395 33.6519 123.395 33.5546V33.0095C123.473 32.9511 123.473 32.8149 123.668 32.737C123.473 32.6786 123.668 32.3867 123.668 32.192C124.037 32.2504 124.31 31.9195 124.174 31.9195C124.174 31.7054 124.213 31.647 124.213 31.647C124.602 31.4134 124.738 31.0046 124.485 30.8294C124.602 30.7127 124.874 30.2844 125.03 30.3039C125.147 30.3039 125.303 30.1676 125.303 30.0119C125.575 29.8951 125.575 29.6031 125.848 29.4669C125.984 29.4669 126.256 29.3306 126.393 29.1944L126.957 28.3768C126.957 28.4936 127.23 28.3574 127.483 28.1043H127.755C128.631 28.2017 128.631 28.0654 128.573 27.8318C128.359 27.6566 128.631 27.8318 128.845 27.8318H129.118H129.39C129.468 28.0654 129.935 27.9291 129.935 27.8318L130.208 27.2868H130.48V27.8318L131.025 27.5593H131.298H131.57C131.843 27.6566 132.816 27.7929 133.205 28.1043C133.653 28.2017 133.926 28.2016 134.023 28.3768L134.295 28.3574C134.763 28.3574 135.055 28.6299 135.386 28.9219V29.1944H135.931C136.028 29.1944 136.573 29.3306 137.021 30.0119L137.293 30.2844L137.838 30.8294L138.383 31.102V31.3745L138.928 31.9195H138.656H138.383L138.111 31.3745C137.974 31.2771 137.838 31.0046 137.293 31.102C137.137 30.8684 136.865 31.3745 137.021 31.4134C137.274 31.4134 137.293 31.647 137.293 31.647C137.137 31.8416 137.001 32.1141 137.566 31.9195C138.111 31.8416 138.111 31.9779 138.111 32.192C137.838 32.6592 138.539 32.6592 138.928 32.4645V32.192C140.622 32.6592 140.485 32.9511 140.563 33.2237C140.213 33.2237 140.057 33.6324 140.291 33.8271C140.758 33.9244 140.622 34.3721 140.291 34.3721C140.213 34.1969 140.057 34.4305 140.252 34.5862L140.271 34.6057C140.193 34.7225 140.193 34.9171 140.291 34.9171L140.563 34.8977C140.485 34.8977 140.622 34.9171 140.563 34.9171C140.485 35.1702 140.622 35.3064 140.836 35.4621C141.322 35.4621 141.322 35.8709 141.108 36.2991C140.758 36.2991 141.05 36.7079 141.381 36.5717C141.731 36.5717 141.926 36.7079 141.926 36.8247C142.296 36.9999 142.159 37.2724 141.887 37.4087C141.887 37.4087 141.926 37.9731 141.926 38.1873C142.023 38.3819 142.568 38.6544 142.471 39.0048C142.724 39.0827 142.724 39.2773 142.471 39.2773C142.724 39.3552 142.724 39.8223 142.471 39.8223C142.86 39.9197 142.724 40.3674 142.471 40.3284C142.568 40.3284 142.568 40.8929 142.471 40.8929C142.724 41.0097 142.743 41.1654 142.743 41.1654C142.568 41.3017 142.568 41.7105 142.471 41.7105C142.724 41.8467 143.016 41.983 143.016 42.2555C143.133 42.4112 143.133 42.528 143.016 42.5475C142.86 42.5475 142.743 42.82 142.743 43.1119C142.568 43.1119 142.568 43.9489 142.704 44.1631C142.704 44.0852 142.743 44.6302 142.743 44.9806L142.471 45.5256H142.743V45.7981H142.374V46.3432C142.627 46.4405 142.471 47.005 142.335 47.1607C142.335 47.4332 142.374 47.5695 142.374 47.9782C142.471 47.9782 142.335 48.679 142.062 48.8152C142.062 48.8152 141.926 49.224 141.828 49.3408C141.926 49.6522 141.926 50.061 141.556 50.4308C141.361 50.4892 141.361 50.4892 141.556 50.7034C141.634 50.9175 141.634 51.0537 141.498 51.2484C141.498 51.4625 141.517 51.5988 141.517 51.7739V51.7934C141.517 51.8907 141.361 52.0464 141.011 52.0464V52.319C140.953 52.4163 140.953 52.7083 140.738 52.5915C140.797 53.117 140.524 52.9808 140.193 52.864V52.5915C139.415 52.7083 139.687 53.3895 139.921 53.1365C140.252 52.9808 140.388 53.117 140.466 53.409H140.193L140.252 53.954C140.252 53.8178 139.921 54.0903 139.921 54.2265C140.116 54.5185 139.96 54.9273 139.648 55.0635C139.142 55.0635 138.987 55.7643 139.103 55.8421C138.987 56.1731 138.714 56.5818 138.578 56.3872C138.578 56.4456 138.286 56.5818 138.286 56.9322L137.468 57.4772C137.468 57.5745 137.468 57.8471 137.468 58.0222C137.741 58.5478 137.313 58.8398 136.904 58.8398C136.904 58.9566 136.904 59.3848 136.651 59.3848C136.339 59.5211 136.203 59.7936 136.106 59.9298C136.203 60.0661 136.203 60.0661 136.106 60.2023H136.086H136.106H136.067C136.067 60.3581 135.931 60.3581 135.833 60.4748V60.7474H135.561C135.639 60.6306 135.23 60.7668 135.288 61.0199C135.23 61.3313 134.957 61.5649 135.016 61.6038C134.821 61.6038 134.665 61.6038 134.743 61.8374C134.665 62.1683 134.393 62.0321 134.198 62.1099C133.692 61.8958 133.556 62.0321 133.653 62.3824C133.556 62.4408 133.556 62.4408 133.653 62.6549C133.556 63.0053 133.283 63.1416 133.108 62.9275C132.855 63.0053 132.719 63.1416 132.583 63.2C132.583 63.4141 132.583 63.5503 132.291 63.4725C131.746 63.5503 131.473 63.5503 131.201 63.745C131.337 64.1148 131.045 64.29 130.364 64.2511C130.364 64.2511 130.227 64.3873 130.13 64.5625C129.955 64.5625 129.974 64.6015 129.877 64.6015C130.11 64.8545 129.955 65.2244 129.585 65.1076H129.332V65.3801H129.059H128.787L128.242 65.6526H127.969L127.424 66.1976L127.152 65.9251H126.334C126.062 65.6526 125.653 65.9251 125.517 66.1976L125.789 66.7426H126.062L124.972 67.0151L124.699 67.2876L124.427 67.0151H123.843C123.843 66.8984 123.706 66.8983 123.609 67.2876H123.337V67.5602V67.8327H122.792H122.519V67.5602C122.714 67.7353 122.869 67.4628 122.792 67.2876C122.869 66.8983 122.869 66.6258 122.792 66.7426C123.006 66.4896 123.006 66.4701 123.064 66.4701C123.278 66.3533 123.414 66.0613 123.064 65.9251C123.006 65.7888 123.006 65.7888 123.064 65.6526C123.278 65.5163 123.278 65.2244 122.792 65.1076H122.519L122.247 65.3801C122.305 65.6526 122.305 65.9251 122.247 66.1976C122.305 66.1976 122.305 66.4701 122.247 66.7426C122.169 66.6258 121.974 66.7621 121.974 67.0151H121.702L121.974 67.2876V67.5991C122.441 67.5991 122.305 67.8716 121.974 68.1052H121.702L121.429 67.8327L121.157 68.1052C121.059 67.5991 120.495 67.5991 120.339 67.8327H119.794C119.658 67.7354 119.521 67.5991 119.249 67.8327C119.093 68.0273 118.821 68.0273 118.431 67.5602V67.0151C118.548 67.0151 118.821 67.1514 118.976 67.2487C119.229 67.0151 119.229 66.8594 118.976 66.7037H118.431C118.431 66.9957 118.023 67.2487 117.653 67.2487L117.108 67.5212C116.485 67.4239 116.777 67.6964 116.835 68.0663H117.108V68.3388V68.6113H116.835H116.563C116.485 68.5334 116.349 68.0663 116.29 68.0663C116.212 67.4239 115.648 67.6964 115.804 68.0663C115.804 69.0979 115.395 68.8059 114.947 68.0663H114.402H114.13C114.285 67.5602 113.857 67.6964 113.585 67.7937C113.312 67.6964 113.176 67.8327 113.02 68.0663C113.02 68.6697 112.767 68.5334 112.767 68.0663C112.611 67.6964 112.339 67.8327 112.222 68.0663L111.949 67.7937L111.677 68.0663L111.404 67.7937H111.132C110.937 67.5602 110.801 67.5602 110.587 67.7937C110.509 68.2609 110.237 68.1246 110.314 67.5212C110.373 67.2876 110.373 67.2487 109.769 67.2487C109.4 67.0151 108.991 67.1514 108.679 67.2876C108.29 67.2876 108.426 67.4239 108.679 67.5602C109.536 67.5602 108.991 68.1247 108.679 67.7937H108.407C108.29 67.6964 108.29 67.5212 108.134 67.5212V67.2487C107.862 67.0151 108.018 66.7037 108.134 66.7037H108.154C108.154 66.4506 108.426 66.3144 108.679 66.1587C108.563 65.3411 107.862 65.8862 107.317 66.7037V66.7232C107.025 66.7232 106.616 67.2877 105.954 66.9762C105.779 66.8594 105.779 66.7037 105.682 66.7037C105.779 66.4506 105.954 66.3144 105.954 66.4312C106.052 66.1587 106.188 65.8862 105.682 65.8862L105.643 65.6136C105.643 65.6136 105.507 65.4774 105.409 65.6136C105.215 65.8862 105.078 65.7499 104.864 65.6136C104.942 65.3411 104.806 65.1854 104.592 65.3411C104.67 65.7499 104.67 65.6136 104.592 65.6136H104.319H104.047H103.774L103.502 65.3411C103.404 65.3411 103.268 65.3411 102.957 65.6136C102.567 65.7499 102.139 65.7499 102.139 65.3411C101.867 65.0492 101.322 64.7961 100.777 64.7961L100.212 64.5236C100.212 64.6404 100.076 64.5236 99.9784 64.5236H99.9395C99.9395 64.2122 100.076 64.0759 100.251 63.9786V63.7061C99.9395 62.9664 100.777 62.9664 101.068 63.161H101.341V62.8885H101.068C101.341 62.5382 100.913 62.4019 100.796 62.616C100.504 62.8107 100.368 62.9664 99.9784 62.616C99.8033 62.6744 99.7059 62.5382 99.7059 62.3435C99.8032 62.2656 99.8033 62.071 99.9784 62.071L99.9395 61.7985C99.9395 61.1561 99.5307 61.4286 99.7059 61.7985H99.4334L99.1609 62.1489C98.83 62.1489 98.6937 62.2851 98.6159 62.363C98.5575 62.4214 98.6937 62.6939 98.8884 62.6355C99.2388 62.4214 99.5307 62.4214 99.7059 62.6355L100.251 62.908L99.9784 63.1805L99.667 63.453C99.667 62.9859 99.1609 63.2584 99.1609 63.7255C99.667 64.2316 99.2388 64.2316 98.8884 63.998C97.5842 63.8229 97.5842 63.3946 97.7983 62.363H97.5258L96.9808 62.0905L96.4358 61.8763C96.319 61.8763 96.319 61.5649 96.4358 61.6038C96.319 61.6038 96.0465 61.5649 96.1633 61.5649C95.9102 61.4676 95.7545 61.1951 95.8908 61.2924H95.3457L95.0732 61.0199C95.2095 60.9031 95.0732 60.7474 94.8007 60.7474C94.5087 60.6306 93.9832 60.7668 93.9832 60.4748V60.2023C93.808 59.7936 93.3992 59.3848 93.1656 59.3848C92.5622 59.5211 92.6985 59.2291 92.8931 59.1123C92.971 58.8203 92.6985 58.1196 92.3481 58.0222H92.0756L91.5306 57.2047H90.4405L90.168 56.6597L90.4405 56.3872H90.713H90.9855H91.258V56.9322H91.5306L91.8031 57.2047C92.6985 57.1463 92.5622 56.8738 92.0756 56.6597L91.5306 56.3872C91.0245 55.3361 90.168 56.0368 90.168 56.3872H89.623L89.8955 56.1147L89.623 55.8421H89.078L88.8054 55.5696L89.078 55.2971C89.623 55.0635 89.623 54.7521 89.3505 54.7521C89.078 54.6353 89.078 54.6353 88.8054 54.4796H88.786C88.786 54.3628 88.786 54.3628 88.5329 54.2071C89.078 53.7983 88.9417 53.5258 88.5329 53.3895L88.2604 52.8445H87.9879L87.7154 53.117L87.4429 52.8445H86.8979L87.1704 52.572L87.7154 52.5331C88.3772 52.5331 88.0852 52.1243 87.7154 52.0075H87.1704V51.735L87.404 51.6961L87.4429 51.735C87.6765 51.4041 87.2677 51.1316 86.8979 51.4625L86.6253 51.735L86.3528 52.0075C86.2944 52.6693 86.2944 52.6693 85.8078 52.0075C85.7299 51.6961 85.7299 51.735 85.8078 51.735C85.6326 51.5793 85.5742 51.443 85.5742 50.9369ZM76.8344 30.0119C76.8344 30.5959 77.1458 30.2844 77.1458 30.0119C77.3015 29.8951 76.9901 29.8367 76.8733 30.0119H76.8344ZM78.45 34.0996C78.45 34.4694 78.6057 34.3721 78.8004 34.0996C78.8004 33.9633 78.5084 33.866 78.5084 34.0996H78.45ZM78.2359 34.1191C77.5935 34.1191 77.8076 34.4694 78.2359 34.6446C78.4111 34.4305 78.2943 34.1774 78.2359 34.0996V34.1191ZM78.7809 35.1702V35.7152H79.0534C79.4622 35.4038 79.2091 35.1118 79.0534 35.1702H78.7809ZM81.7785 41.6521C81.7785 41.6521 81.6812 41.4574 81.506 41.691C81.2724 41.8467 81.4865 42.0414 81.7785 41.9635C81.9342 42.0998 82.0316 41.8467 81.7785 41.691V41.6521ZM82.3041 43.5986L82.0316 43.8711H82.5766C82.7712 43.8127 82.6739 43.5207 82.3041 43.5986ZM82.8491 45.7787C82.927 45.876 83.1216 45.7787 83.1216 45.7787C83.2189 45.5256 83.1216 45.3699 83.1216 45.5062C82.6739 45.3699 82.6155 45.4867 82.8491 45.7787ZM86.1193 49.3213C85.9441 48.9515 85.7494 49.1072 85.5742 49.3213C85.9441 49.6522 86.0025 49.5549 86.1193 49.3213ZM86.6643 49.0488H86.3918C86.2944 49.7106 86.7421 49.4576 86.6643 49.0488ZM87.1509 49.0488C87.1509 49.0488 87.0925 49.1072 86.9368 49.0488C87.1509 49.4965 87.4429 49.3408 87.1509 49.0488ZM86.6643 50.1194V50.3919L86.9368 50.353C87.112 50.353 87.2093 50.0999 87.2093 49.8469C87.0147 49.4965 86.6059 49.6522 86.6643 49.8469V50.1194ZM88.8249 51.482C88.747 51.2095 88.4551 51.2095 88.2799 51.482C88.202 52.2216 88.6108 51.9686 88.8249 51.482ZM89.3699 53.662C89.3699 54.1292 89.8176 54.0708 89.9344 53.662C89.7592 53.3311 89.4673 53.4285 89.3699 53.662ZM93.4381 56.3872C93.4381 56.6013 93.6328 56.6986 93.6912 56.3872C93.6912 56.2898 93.4576 56.2898 93.4381 56.3872ZM93.1851 58.2753C93.1851 58.5478 93.3408 58.4894 93.4576 58.2753C93.3408 58.1001 93.1851 58.1001 93.1851 58.2753ZM95.3652 58.8203C95.2484 58.7424 95.0927 58.8203 95.0927 58.8203C95.4431 59.2485 95.5015 58.8982 95.3652 58.8203ZM95.9102 59.6378L96.1827 59.3653C96.5136 58.8398 96.2022 58.8398 95.9102 59.0928C95.7545 58.8398 95.5598 59.2486 95.6377 59.3653L95.9102 59.6378ZM98.0708 61.5649C97.8567 61.5649 98.0514 61.8179 98.3434 61.8179H98.6159V61.5454C98.7521 61.4676 98.8884 61.4286 98.8689 61.0004C98.8689 60.7084 98.3434 60.6695 98.3434 61.0004C98.2655 61.0588 98.1682 61.3703 98.0708 61.5649ZM102.178 61.5454C102.178 61.3118 101.769 61.2145 101.594 61.5454C101.73 61.9153 102.159 61.779 102.178 61.5454ZM100.523 64.2705C100.523 64.4847 100.971 64.4457 101.068 64.2705C100.932 63.8812 100.523 63.8812 100.523 64.2705ZM103.502 63.453C103.502 63.3362 103.599 63.3362 103.502 63.453C103.599 63.6866 103.443 63.6282 103.502 63.453ZM104.319 63.7255V63.453L104.047 63.7255H104.319ZM103.502 64.8156C104.241 65.1465 104.319 64.8545 104.319 64.2705C104.241 64.0954 103.677 64.037 103.502 64.2705C103.249 64.4847 103.249 64.6404 103.502 64.8156ZM112.475 67.3071C112.592 67.3071 112.631 67.3461 112.748 67.2487C112.592 67.093 112.533 67.093 112.475 67.2487V67.3071ZM113.293 66.7037C113.293 67.093 113.565 67.0541 113.585 66.7037C113.604 66.4896 113.293 66.6064 113.293 66.7037ZM114.344 67.2487C114.344 66.8984 114.11 66.8984 114.11 67.2487C114.052 67.7548 114.499 67.8132 114.344 67.2487ZM115.2 67.5212C115.317 67.4044 115.006 67.346 114.928 67.5212C115.006 68.1052 115.317 68.0468 115.2 67.5212ZM125.536 64.5431L125.264 64.8156H125.536L125.809 65.3606H126.081V65.0881L126.354 65.3411C127.191 65.3411 126.49 64.8934 125.809 64.8156V64.2705C126.626 63.4919 126.081 63.2973 125.809 63.453L125.536 64.5431ZM127.697 64.8156H127.969C127.269 64.5431 127.483 64.8934 127.697 64.8156ZM128.242 63.4725C128.028 63.4725 127.969 63.5309 127.969 63.7061H128.242V63.4336V63.4725ZM128.787 63.453C128.787 63.7255 128.981 63.6282 129.059 63.453H128.787ZM131.512 62.908C131.765 62.8301 131.784 62.7328 131.784 62.6355C131.648 62.1683 131.201 62.363 130.967 62.363C130.792 62.6744 130.947 62.908 131.512 62.908ZM130.967 63.4336C130.694 63.4336 130.792 63.7255 130.967 63.7255V63.4336ZM132.329 62.363C132.213 62.2851 132.057 62.363 132.057 62.363V62.6355H132.329V62.908H132.602V62.363H132.329V62.363ZM131.999 60.4554C131.999 60.8058 132.505 60.8642 133.128 60.7279C133.4 60.8058 133.439 60.9225 133.673 60.4554C133.809 60.3191 133.848 60.0661 133.4 60.1829H133.128L132.855 59.9104H132.583C131.843 59.4627 131.784 60.2607 132.038 60.4554H131.999V60.4554ZM132.875 59.3653C132.719 59.2096 132.505 59.2096 132.329 59.3653C132.446 59.6573 132.699 59.6573 132.875 59.3653ZM136.125 58.2948C135.074 58.2948 135.463 58.9566 135.853 59.0928C136.573 58.8982 136.476 58.2753 136.125 58.2753V58.2948ZM135.308 57.7303C135.561 57.886 135.619 58.0417 135.853 57.6913C136.223 57.6913 136.32 57.6913 136.125 57.4578C136.028 57.0879 135.775 57.0879 135.58 57.1852C135.327 57.5551 135.308 57.594 135.308 57.7303ZM138.85 50.3919H139.123C139.454 50.5476 139.668 50.5476 139.668 50.3919V49.8469L139.356 49.5744C139.356 49.6912 138.85 49.6912 138.811 49.5744C138.811 49.6912 138.87 50.1194 138.87 50.1194V50.3919H138.85ZM140.213 50.3919H140.485H140.213ZM139.94 49.8469H140.213H140.485C140.252 49.3408 139.901 49.5938 139.668 49.8469H139.94ZM140.758 49.3408C140.602 49.3408 140.485 49.3408 140.485 49.5744C140.7 50.1389 141.459 49.8469 141.575 49.5744C141.361 49.1851 141.303 48.932 141.303 48.7568C141.459 48.4259 141.459 48.2897 141.03 47.9393C140.563 47.8225 140.31 48.2702 140.758 48.4843C140.855 48.7374 140.855 48.8931 140.758 49.3408ZM129.604 37.6422C129.332 37.6422 129.04 37.798 129.332 37.8953C129.643 38.343 129.741 37.9342 129.604 37.6422ZM129.896 38.9853C129.896 38.8491 129.896 38.7128 129.604 38.7128L129.332 39.2578C129.527 39.9002 130.033 39.3941 129.604 38.9853H129.896V38.9853ZM130.694 39.7445C130.441 39.7445 130.5 40.1532 130.694 40.3479L130.967 40.309C131.045 40.309 131.045 39.8029 130.967 39.8029C131.045 39.7055 130.694 39.8029 130.694 39.8029V39.7445ZM128.514 38.3819C128.183 38.3819 128.222 38.5766 128.514 38.7128V38.4403V38.3819ZM127.697 38.7128H127.969V38.4403C127.736 38.1873 127.619 38.4792 127.697 38.7128ZM127.697 37.3503L127.424 37.0778C127.269 36.9804 127.016 37.0778 127.152 37.3503H127.697ZM125.264 38.6934C125.127 38.6934 124.991 38.8491 124.991 38.9853C125.322 39.1021 125.419 38.9464 125.264 38.7128V38.6934ZM124.719 38.7128C125.069 38.596 124.913 38.1678 124.719 38.1678C124.115 38.0315 124.115 38.4403 124.719 38.7128ZM126.607 30.8294C126.724 31.0436 126.529 31.1409 126.607 30.8294V30.8294ZM128.728 29.1944C128.728 29.681 129.176 29.5253 129.059 29.1944C129.176 28.6688 128.787 28.6688 128.787 29.1944H128.728ZM130.422 31.102V30.5569C130.149 30.4401 130.188 30.8489 130.422 31.102ZM134.49 32.4645C133.945 32.2115 133.75 32.7565 134.218 33.2821C134.568 33.574 134.918 33.5156 135.035 33.2821C135.366 33.3599 135.424 32.737 135.035 32.737C134.918 32.5618 134.665 32.4645 134.49 32.4645ZM141.828 38.4403H141.556C141.751 38.6934 141.828 38.4403 141.828 38.4403ZM139.94 39.5304C140.31 39.7055 140.563 39.3941 140.485 39.2578C140.213 38.9853 139.804 38.9853 139.668 39.2578C139.746 39.4914 139.804 39.5304 139.94 39.5304ZM140.213 44.4161C140.349 44.2215 140.154 44.1241 139.94 44.4161C140.038 44.5718 140.213 44.5718 140.213 44.4161ZM140.446 46.5962C140.446 46.8298 140.738 46.7325 140.738 46.3237H140.466C140.388 46.1874 140.193 46.3237 140.466 46.5962H140.446ZM141.283 46.3237C141.4 46.5767 141.206 46.5378 141.283 46.3237V46.3237ZM142.101 46.2848C141.906 46.2848 141.692 46.1874 141.828 46.5962C142.062 46.8298 142.101 46.3821 142.101 46.2848Z" fill="#404777"/>
</svg>
