<svg width="218" height="98" viewBox="0 0 218 98" fill="none" xmlns="http://www.w3.org/2000/svg">
<path d="M53.5319 34.6563C53.5319 36.5654 53.5319 38.3628 53.5319 40.2228C55.7663 40.4888 57.4891 41.8271 59.3373 42.8841C64.0348 45.5709 68.712 48.2932 73.3977 51.0019C73.5925 51.1154 73.7958 51.217 73.977 51.3492C74.8241 51.9607 75.0511 53.0262 74.5293 53.897C74.0346 54.722 73.0013 55.0455 72.0899 54.6474C71.8595 54.5458 71.6427 54.4069 71.4242 54.2798C65.9813 51.1357 60.5282 48.0086 55.1023 44.8373C53.2626 43.7616 51.5211 43.7735 49.6831 44.8492C44.4045 47.9391 39.0988 50.9833 33.8033 54.0444C33.5357 54.2002 33.268 54.3577 32.9953 54.5051C31.9314 55.0794 30.8083 54.8185 30.2662 53.8766C29.7173 52.9229 30.0324 51.8066 31.0709 51.1967C33.063 50.0244 35.0705 48.8793 37.0711 47.7223C40.5117 45.7335 43.9573 43.7532 47.3894 41.7508C48.5871 41.0512 49.8 40.4092 51.2314 40.2381C51.2314 39.2623 51.2314 38.3459 51.2314 37.3921C50.0236 37.3108 48.8479 37.2464 47.674 37.1465C46.8608 37.077 46.046 36.9873 45.2397 36.8568C44.5654 36.7467 44.3266 36.4231 44.4384 35.9132C44.5383 35.4609 44.8805 35.3034 45.4989 35.3644C47.3758 35.5507 49.2528 35.7201 51.2077 35.9048C51.2077 35.4491 51.2077 35.1289 51.2077 34.7105C50.8232 34.68 50.4149 34.6376 50.0049 34.6173C46.7778 34.4615 43.6168 33.96 40.5964 32.759C40.3372 32.6556 40.0001 32.5811 39.8595 32.3795C39.6934 32.1423 39.5664 31.7171 39.6748 31.4969C39.7849 31.2733 40.1915 31.1547 40.4896 31.0836C40.6455 31.0463 40.8505 31.2123 41.0334 31.2869C44.2182 32.5625 47.5503 33.0317 50.9553 33.1164C51.0332 33.1181 51.1111 33.0774 51.2297 33.0453C51.2297 31.9492 51.2297 30.8583 51.2297 29.7318C51.084 29.642 50.9112 29.5505 50.7537 29.437C49.8779 28.8136 49.9219 27.9513 50.8875 27.4414C51.8447 26.9366 52.8543 26.9383 53.8233 27.3889C54.9142 27.8954 54.943 28.8492 53.9249 29.5132C53.8063 29.5895 53.6844 29.6589 53.5353 29.7487C53.5353 30.8278 53.5353 31.9153 53.5353 33.152C54.8126 33.0419 56.0391 32.9555 57.2587 32.8217C57.9567 32.7454 58.6478 32.5879 59.3407 32.471C59.9014 32.3761 60.3012 32.5879 60.3995 33.0317C60.4977 33.4738 60.2504 33.8516 59.6473 33.9448C58.0346 34.1938 56.4117 34.3903 54.7923 34.5936C54.406 34.6444 54.013 34.6359 53.5319 34.6563Z" fill="#1D1D1D"/>
<path d="M70.9126 62.6838C70.9126 64.6031 70.8923 66.5225 70.9211 68.4401C70.9363 69.3769 70.5891 70.0257 69.7878 70.5424C65.7662 73.1326 61.4041 74.7707 56.6676 75.4584C54.6178 75.7566 52.5647 75.8599 50.5132 75.7261C48.2652 75.5787 46.0427 75.2009 43.8676 74.5623C40.7607 73.6509 37.8267 72.3821 35.1163 70.5966C34.3251 70.0748 33.9355 69.4514 33.9491 68.4401C34.005 64.6032 33.9711 60.7645 33.9728 56.9275C33.9728 56.6734 33.9609 56.4176 33.9914 56.1669C34.0863 55.3538 34.6318 54.915 35.5177 54.9167C36.4003 54.9201 36.9373 55.3623 37.0271 56.1839C37.0542 56.4346 37.044 56.6904 37.044 56.9445C37.0457 60.302 37.061 63.6613 37.0322 67.0188C37.0254 67.7523 37.2677 68.2097 37.9114 68.5909C41.1334 70.4966 44.5757 71.818 48.2771 72.3126C53.576 73.0224 58.7462 72.4736 63.6588 70.2307C64.7582 69.7276 65.7967 69.0889 66.8927 68.5773C67.5703 68.2605 67.7126 67.7777 67.7058 67.0883C67.6787 63.7866 67.694 60.485 67.694 57.1833C67.694 56.9292 67.6838 56.6751 67.7025 56.421C67.7719 55.5063 68.4055 54.915 69.3016 54.915C70.1994 54.915 70.8533 55.5012 70.8991 56.4193C70.9397 57.2358 70.9126 58.0558 70.9126 58.874C70.9126 60.1445 70.9126 61.415 70.9126 62.6838Z" fill="#1D1D1D"/>
<path d="M79.0406 41.2494C79.0406 39.8111 79.0999 38.3678 79.027 36.933C78.8915 34.2649 81.4969 31.7645 84.0668 31.8475C85.1882 31.8831 86.1843 32.1372 87.1058 32.7166C87.5175 32.9758 87.8275 33.0164 88.2391 32.7115C89.8027 31.5528 92.5318 31.4935 94.258 32.886C95.515 33.899 96.2451 35.2508 96.2908 36.8263C96.3789 39.8992 96.3416 42.9773 96.3078 46.0519C96.2942 47.3682 95.0305 48.1457 93.8582 47.6324C93.1399 47.319 92.9163 46.7312 92.9197 45.9875C92.9316 43.3923 92.9316 40.7954 92.9163 38.2001C92.9129 37.7241 92.8604 37.243 92.7706 36.7755C92.5945 35.8471 91.9169 35.3745 90.9275 35.4406C90.0229 35.5016 89.3961 36.0978 89.386 37.0245C89.3589 39.3385 89.3741 41.6525 89.3707 43.9649C89.369 44.6696 89.408 45.3794 89.3487 46.0807C89.2386 47.4021 88.1036 48.1237 86.95 47.646C86.2283 47.3478 85.9759 46.7753 85.9776 46.0265C85.9861 43.3178 85.9895 40.609 85.9725 37.9003C85.9691 37.4277 85.9234 36.9364 85.7845 36.4875C85.5355 35.6794 85.0239 35.4016 84.0769 35.4372C83.257 35.4677 82.7285 35.8539 82.532 36.623C82.4507 36.9449 82.4371 37.2921 82.4354 37.6275C82.4286 40.421 82.4236 43.2144 82.4354 46.0079C82.4388 46.7244 82.2016 47.253 81.5359 47.5918C80.8803 47.9238 80.2857 47.8273 79.6962 47.4546C79.188 47.1327 79.0338 46.6482 79.0372 46.0756C79.0457 44.4663 79.0423 42.8587 79.0406 41.2494Z" fill="#1D1D1D"/>
<path d="M120.852 43.0822C121.406 43.6345 121.898 44.1664 122.435 44.6458C123.343 45.4539 123.495 46.3415 122.816 47.1479C122.103 47.9932 121.122 48.0406 120.221 47.2089C119.392 46.4449 118.608 45.6317 117.813 44.8305C117.17 44.1817 116.46 43.7785 115.488 43.8988C115.001 43.9597 114.769 44.1037 114.778 44.6102C114.786 45.1727 114.803 45.7436 114.724 46.2975C114.612 47.0615 114.132 47.5714 113.38 47.7679C112.716 47.9424 111.969 47.668 111.62 47.0479C111.407 46.6719 111.264 46.1992 111.263 45.769C111.236 41.7643 111.225 37.7579 111.259 33.7516C111.271 32.4116 112.022 31.7171 113.348 31.7289C115.093 31.7458 116.85 31.712 118.579 31.8966C121.108 32.1677 123.087 34.1378 123.595 36.6179C124.093 39.0505 123.251 40.9833 121.444 42.5757C121.276 42.7214 121.11 42.8603 120.852 43.0822ZM114.783 37.824H114.781C114.781 38.444 114.773 39.0657 114.783 39.6857C114.796 40.4463 114.861 40.5141 115.598 40.5277C116.275 40.5412 116.953 40.5294 117.629 40.5277C119.06 40.526 120.229 39.4655 120.339 37.9189C120.434 36.5874 119.174 35.2338 117.781 35.1237C116.995 35.061 116.202 35.1136 115.413 35.1017C114.932 35.0949 114.771 35.3456 114.779 35.7895C114.791 36.4705 114.783 37.1481 114.783 37.824Z" fill="#1D1D1D"/>
<path d="M162.224 41.5882C162.224 43.1128 162.247 44.6374 162.217 46.1604C162.191 47.4546 160.957 48.1762 159.823 47.5901C159.274 47.3055 159.002 46.838 159 46.2163C158.998 45.4828 158.981 44.7475 159 44.0157C159.013 43.4991 158.853 43.228 158.282 43.2348C156.842 43.2551 155.404 43.2551 153.964 43.2348C153.405 43.2263 153.218 43.477 153.232 44.0039C153.25 44.7086 153.279 45.4201 153.21 46.1197C153.067 47.5562 151.748 48.2152 150.56 47.4902C150.081 47.1971 149.857 46.7736 149.857 46.2247C149.857 43.2619 149.779 40.2957 149.883 37.3345C149.986 34.3751 152.693 31.9543 155.661 31.8628C157.743 31.7984 159.481 32.3947 160.863 33.9854C161.69 34.9358 162.198 36.0081 162.219 37.2735C162.241 38.7084 162.224 40.1483 162.224 41.5882ZM156.074 40.0145V40.0128C156.808 40.0128 157.541 40.0009 158.273 40.0178C158.759 40.0297 159.017 39.8552 158.997 39.3351C158.976 38.7998 159.024 38.2611 158.978 37.7292C158.832 36.0267 157.587 35.0188 155.771 35.0984C154.223 35.1662 153.254 36.2351 153.237 37.8952C153.233 38.2899 153.232 38.6846 153.237 39.0794C153.249 39.9772 153.278 40.006 154.213 40.0145C154.833 40.0195 155.454 40.0145 156.074 40.0145Z" fill="#1D1D1D"/>
<path d="M100.914 61.9654C101.407 62.4618 101.89 62.97 102.394 63.4544C102.95 63.9864 103.053 64.6352 102.855 65.3246C102.535 66.4427 101.165 66.7459 100.265 65.8955C99.3841 65.0604 98.4931 64.2286 97.6969 63.3172C97.0125 62.5329 96.1807 62.704 95.3558 62.7684C95.2168 62.7785 95.0153 63.1156 94.9932 63.3189C94.9373 63.822 94.9848 64.3336 94.9627 64.8418C94.9255 65.7092 94.4156 66.2784 93.5889 66.4088C92.9011 66.5172 92.1456 66.0344 91.9067 65.2772C91.7983 64.935 91.761 64.5573 91.761 64.1964C91.7509 60.4984 91.7509 56.8003 91.7577 53.1023C91.761 51.5658 92.3133 51.0288 93.8599 51.0254C95.2151 51.0237 96.5704 51.0152 97.9239 51.0288C100.792 51.0593 103.307 53.5393 103.438 56.4192C103.523 58.2775 102.965 59.8665 101.561 61.1167C101.331 61.3217 101.032 61.4521 100.765 61.6181C100.817 61.7316 100.866 61.8485 100.914 61.9654ZM94.978 56.841C94.978 57.5186 94.9797 58.1962 94.978 58.8721C94.9763 59.2312 95.0983 59.4837 95.5048 59.4837C96.323 59.4803 97.1497 59.548 97.9561 59.4464C99.4045 59.2634 100.316 57.9777 100.224 56.4666C100.165 55.4942 99.1199 54.1238 97.5902 54.2339C96.9447 54.2813 96.2925 54.2525 95.6437 54.2407C95.1847 54.2322 94.9678 54.4287 94.9746 54.8946C94.9848 55.5434 94.9763 56.1922 94.978 56.841Z" fill="#1D1D1D"/>
<path d="M185.386 61.8809C185.984 62.4907 186.538 63.0091 187.038 63.5749C187.946 64.6015 187.49 66.116 186.215 66.3701C185.554 66.5005 185.071 66.1498 184.639 65.7297C183.789 64.903 182.927 64.0865 182.127 63.2124C181.45 62.4721 180.625 62.7296 179.835 62.777C179.717 62.7838 179.547 63.1582 179.527 63.375C179.479 63.8781 179.52 64.3897 179.505 64.8979C179.478 65.7382 178.817 66.3972 178.004 66.4141C177.223 66.4293 176.552 65.8229 176.457 65.0165C176.454 64.9877 176.452 64.9606 176.452 64.9318C176.452 60.7544 176.44 56.5769 176.461 52.3995C176.464 51.544 176.991 51.0459 177.867 51.0324C179.532 51.0053 181.201 50.9629 182.862 51.0425C185.593 51.173 187.9 53.6988 187.995 56.4244C188.063 58.3658 187.467 59.9633 185.998 61.2355C185.805 61.3998 185.649 61.5997 185.386 61.8809ZM179.515 56.7988C179.513 56.7988 179.513 56.7988 179.512 56.7988C179.512 57.4731 179.515 58.149 179.51 58.8232C179.506 59.2111 179.618 59.4889 180.072 59.4855C180.86 59.4788 181.653 59.5381 182.432 59.4551C183.789 59.3094 184.685 58.3895 184.756 57.1885C184.843 55.735 184.174 54.578 182.944 54.3273C182.044 54.1426 181.104 54.1528 180.182 54.0986C179.732 54.0715 179.515 54.3273 179.515 54.7745C179.515 55.4504 179.515 56.1246 179.515 56.7988Z" fill="#1D1D1D"/>
<path d="M110.044 39.7331C110.044 40.4666 110.078 41.2018 110.039 41.932C109.836 45.7723 106.409 48.3506 102.723 47.7086C100.534 47.3274 98.9094 46.1501 98.0556 44.0986C97.7185 43.2889 97.5694 42.3538 97.5491 41.4695C97.5118 39.8686 97.4728 38.2356 97.7286 36.6652C98.1352 34.1683 100.088 32.2438 102.689 31.9084C104.428 31.6848 106.122 31.8983 107.596 33.0095C109.104 34.1479 109.951 35.6387 110.039 37.5309C110.071 38.2661 110.042 38.9996 110.044 39.7331ZM106.658 39.9008C106.66 39.9008 106.661 39.9008 106.661 39.9008C106.661 39.1961 106.675 38.4914 106.654 37.7884C106.646 37.4835 106.617 37.1633 106.512 36.8804C106.014 35.5438 104.611 34.8442 103.056 35.1271C101.891 35.3388 100.929 36.5162 100.905 37.8138C100.883 39.0521 100.924 40.2921 100.891 41.5305C100.864 42.618 101.327 43.443 102.169 44.058C103.097 44.7339 104.107 44.7474 105.125 44.2528C106.089 43.7835 106.658 43.0415 106.658 41.9303C106.658 41.2527 106.658 40.5767 106.658 39.9008Z" fill="#1D1D1D"/>
<path d="M163.486 39.8094C163.579 38.605 163.534 37.3684 163.795 36.2012C164.354 33.7059 166.746 31.9322 169.307 31.8662C170.805 31.8272 172.266 31.9018 173.491 32.8657C174.081 33.3298 174.621 33.8905 175.065 34.4936C175.704 35.3609 175.56 36.3943 174.841 36.9093C173.944 37.553 173.052 37.4243 172.348 36.4519C171.721 35.5879 170.947 35.0984 169.866 35.0899C168.07 35.078 166.937 36.0707 166.832 37.902C166.757 39.1962 166.768 40.5006 166.832 41.7948C166.903 43.2348 167.935 44.2918 169.385 44.5493C170.572 44.7594 171.772 44.136 172.327 43.0196C172.72 42.2302 172.612 42.0134 171.753 41.8677C170.889 41.7203 170.367 41.1071 170.356 40.2245C170.344 39.3046 170.847 38.6355 171.796 38.5423C172.688 38.4542 173.605 38.4559 174.499 38.5406C175.443 38.6321 175.944 39.2538 175.948 40.2143C175.953 41.4764 176.041 42.735 175.531 43.9649C174.215 47.1412 170.437 48.6743 167.283 47.3021C165.319 46.4483 164.05 45.0169 163.664 42.9383C163.476 41.9304 163.632 40.8581 163.632 39.8162C163.581 39.8128 163.534 39.8111 163.486 39.8094Z" fill="#1D1D1D"/>
<path d="M136.054 39.733C136.13 38.6116 136.075 37.4613 136.307 36.3721C136.876 33.7192 139.236 31.9185 141.936 31.8677C143.401 31.8406 144.839 31.9219 146.04 32.8638C146.63 33.3262 147.17 33.8869 147.616 34.49C148.256 35.3574 148.114 36.3873 147.394 36.9074C146.5 37.5545 145.603 37.4274 144.9 36.4551C144.253 35.5606 143.449 35.0829 142.336 35.0897C140.601 35.1016 139.486 36.101 139.385 37.9001C139.312 39.1943 139.32 40.497 139.385 41.7929C139.454 43.2346 140.482 44.2882 141.932 44.5491C143.12 44.7609 144.318 44.1392 144.875 43.0228C145.27 42.23 145.163 42.0132 144.307 41.8675C143.44 41.7201 142.92 41.1103 142.908 40.2277C142.896 39.3061 143.396 38.637 144.345 38.5421C145.237 38.4523 146.154 38.454 147.047 38.5387C147.99 38.6285 148.495 39.2536 148.498 40.209C148.504 41.4711 148.593 42.7297 148.083 43.9596C146.781 47.1071 143.049 48.6707 139.918 47.329C137.398 46.2482 136.083 44.3746 136.124 41.5981C136.132 40.9781 136.125 40.3564 136.125 39.7347C136.102 39.7364 136.078 39.7347 136.054 39.733Z" fill="#1D1D1D"/>
<path d="M177.297 39.794C177.297 37.79 177.292 35.7877 177.298 33.7836C177.302 32.5606 177.737 32.0066 178.928 31.8287C179.592 31.7288 180.275 31.7356 180.951 31.7288C182.418 31.7152 183.885 31.7118 185.352 31.7322C185.828 31.7389 186.311 31.7965 186.775 31.8999C187.598 32.0845 188.069 32.8587 187.969 33.7752C187.889 34.4951 187.247 35.0931 186.465 35.1016C184.857 35.1202 183.248 35.105 181.64 35.1117C180.725 35.1151 180.681 35.1507 180.69 36.0689C180.707 38.3016 180.414 37.9594 182.626 37.9916C183.304 38.0017 183.983 37.9662 184.656 38.0289C185.423 38.1 185.963 38.5455 186.214 39.2773C186.434 39.9211 186.229 40.6376 185.664 41.0103C185.354 41.2136 184.942 41.3407 184.569 41.3576C183.556 41.405 182.538 41.3661 181.522 41.3796C180.761 41.3881 180.703 41.4508 180.686 42.1978C180.676 42.6772 180.709 43.1583 180.68 43.6361C180.644 44.2239 180.895 44.4356 181.476 44.4255C182.943 44.4018 184.41 44.4136 185.877 44.4221C186.185 44.4238 186.502 44.439 186.797 44.517C187.598 44.7287 187.984 45.2894 187.972 46.15C187.961 46.9631 187.576 47.4984 186.805 47.7051C186.511 47.783 186.194 47.8 185.885 47.8017C183.712 47.8101 181.54 47.8101 179.367 47.8034C177.974 47.7983 177.302 47.119 177.298 45.7163C177.292 43.7445 177.297 41.7693 177.297 39.794Z" fill="#1D1D1D"/>
<path d="M117.495 58.6469C117.495 56.7004 117.49 54.754 117.496 52.8076C117.5 51.5658 118.052 51.0271 119.312 51.0221C120.723 51.017 122.133 51.0153 123.544 51.0238C126.741 51.0424 128.98 53.9442 129.065 56.5581C129.18 60.119 126.414 62.7565 122.904 62.7108C122.424 62.704 121.943 62.7277 121.465 62.7074C120.93 62.6837 120.691 62.8972 120.703 63.4477C120.713 63.9813 120.73 64.5302 120.624 65.0469C120.385 66.1971 119.273 66.7358 118.301 66.2124C117.686 65.8803 117.486 65.3315 117.491 64.6555C117.503 62.6532 117.495 60.6492 117.495 58.6469ZM122.7 54.2407C122.175 54.2407 121.838 54.2593 121.501 54.2373C120.927 54.1983 120.69 54.4355 120.701 55.0216C120.727 56.2583 120.722 57.4949 120.703 58.7316C120.695 59.255 120.873 59.5193 121.432 59.4989C122.077 59.4752 122.726 59.5159 123.37 59.4871C124.515 59.4346 125.402 58.7163 125.79 57.5762C126.126 56.5903 125.817 55.6281 124.972 54.8522C124.254 54.1916 123.392 54.2051 122.7 54.2407Z" fill="#1D1D1D"/>
<path d="M79.0404 58.6451C79.0404 56.6986 79.0353 54.7522 79.0421 52.8058C79.0455 51.5946 79.5927 51.0304 80.7768 51.0237C82.215 51.0152 83.6532 51.0084 85.0931 51.0254C88.0933 51.0592 90.4598 53.5596 90.5987 56.5614C90.763 60.1172 87.9628 62.7582 84.4477 62.7107C83.9395 62.7039 83.4313 62.7209 82.9248 62.7107C82.4674 62.7006 82.2506 62.8988 82.254 63.3646C82.2574 63.8711 82.2845 64.3861 82.2099 64.8841C82.0287 66.0954 80.9428 66.7272 79.923 66.2444C79.2539 65.9277 79.0336 65.3636 79.0387 64.6521C79.0489 62.6497 79.0404 60.6474 79.0404 58.6451ZM82.2557 56.8392C82.254 56.8392 82.254 56.8392 82.2523 56.8392C82.2523 57.2052 82.2506 57.5711 82.2523 57.9353C82.259 59.6327 82.11 59.4836 83.7837 59.4955C84.6273 59.5022 85.4624 59.5378 86.2281 59.0482C87.0701 58.5095 87.6494 57.2966 87.4411 56.3683C87.1853 55.2265 86.1943 54.3067 85.1067 54.2542C84.3783 54.2186 83.6448 54.2525 82.9146 54.2406C82.4556 54.2338 82.2455 54.4388 82.2523 54.8996C82.2641 55.545 82.2557 56.1921 82.2557 56.8392Z" fill="#1D1D1D"/>
<path d="M104.549 58.7043C104.631 57.6117 104.582 56.4902 104.817 55.4315C105.491 52.3992 108.18 50.595 111.381 51.0592C114.222 51.4709 116.272 53.6816 116.313 56.8172C116.328 58.0013 116.318 59.1871 116.314 60.3712C116.308 63.6407 114.154 66.1292 110.888 66.402C107.614 66.6747 104.788 64.2014 104.632 60.9946C104.595 60.2357 104.627 59.4717 104.627 58.7111C104.6 58.7077 104.575 58.706 104.549 58.7043ZM113.323 58.7331C113.299 58.7314 113.275 58.7297 113.252 58.728C113.252 58.0792 113.282 57.4304 113.245 56.7833C113.16 55.3197 112.062 54.1762 110.697 54.083C109.252 53.9848 107.941 54.8521 107.797 56.3361C107.639 57.9742 107.704 59.6547 107.866 61.2962C107.981 62.4464 109.342 63.3527 110.539 63.3527C111.6 63.3527 112.87 62.4058 113.08 61.3284C113.246 60.4797 113.248 59.5988 113.323 58.7331Z" fill="#1D1D1D"/>
<path d="M130.212 58.7365C130.212 56.9307 130.204 55.1249 130.219 53.319C130.222 52.9294 130.265 52.5262 130.373 52.1553C130.605 51.3574 131.02 51.0355 131.85 51.0287C134.136 51.0118 136.421 51.0101 138.706 51.0287C139.639 51.0355 140.32 51.6742 140.358 52.4991C140.398 53.4021 139.719 54.183 138.747 54.2237C137.507 54.2745 136.265 54.2389 135.023 54.2457C133.266 54.2541 133.433 54.0712 133.422 55.8262C133.422 55.9397 133.433 56.0532 133.421 56.165C133.368 56.7376 133.605 56.9883 134.198 56.9697C135.099 56.9409 136.004 56.9409 136.907 56.9731C138.083 57.0137 138.731 57.6981 138.674 58.7806C138.628 59.6276 138.145 60.1426 137.285 60.1731C136.299 60.2069 135.309 60.1781 134.324 60.1883C133.471 60.1968 133.434 60.2391 133.424 61.1132C133.419 61.5367 133.416 61.9603 133.426 62.3821C133.443 63.1444 133.497 63.2104 134.244 63.2172C135.74 63.2291 137.234 63.224 138.73 63.2223C139.385 63.2223 139.87 63.5001 140.166 64.0846C140.463 64.6707 140.453 65.3026 139.999 65.7396C139.644 66.0801 139.097 66.3935 138.625 66.4088C136.455 66.4782 134.281 66.463 132.109 66.4308C130.888 66.4121 130.233 65.6922 130.219 64.4081C130.197 62.5159 130.212 60.6271 130.212 58.7365Z" fill="#1D1D1D"/>
<path d="M165.105 58.7399C165.105 56.8511 165.098 54.9606 165.107 53.0717C165.114 51.5793 165.674 51.022 167.148 51.0203C169.264 51.0169 171.378 51.027 173.494 51.0169C174.207 51.0135 174.765 51.249 175.073 51.9215C175.583 53.0362 174.863 54.1762 173.567 54.2271C172.329 54.2762 171.085 54.2406 169.845 54.2423C169.591 54.2423 169.337 54.2575 169.084 54.2406C168.559 54.2067 168.309 54.4066 168.315 54.9673C168.344 57.3305 168.082 56.9189 170.186 56.9595C170.777 56.9714 171.375 56.9239 171.961 56.9815C172.671 57.051 173.27 57.3542 173.509 58.0962C173.735 58.7975 173.541 59.4463 172.913 59.8817C172.655 60.0596 172.296 60.1561 171.98 60.168C171.022 60.2053 170.062 60.2036 169.103 60.1765C168.519 60.1595 168.28 60.3916 168.314 60.9726C168.342 61.4504 168.31 61.9315 168.322 62.4109C168.339 63.1478 168.398 63.2088 169.171 63.2138C170.496 63.224 171.822 63.2172 173.147 63.2172C173.372 63.2172 173.599 63.2088 173.823 63.2308C174.575 63.307 175.098 63.8237 175.224 64.5911C175.324 65.2094 174.976 65.9294 174.377 66.1953C174.053 66.3393 173.675 66.4257 173.321 66.4291C171.234 66.4511 169.147 66.4494 167.06 66.4359C165.825 66.4291 165.119 65.7244 165.109 64.4911C165.095 62.5752 165.105 60.6576 165.105 58.7399Z" fill="#1D1D1D"/>
<path d="M128.176 40.9138C128.176 39.3333 128.177 37.7528 128.174 36.1723C128.172 35.1271 128.16 35.1186 127.151 35.1118C126.502 35.1067 125.851 35.1271 125.204 35.1033C124.31 35.0695 123.68 34.4884 123.605 33.6668C123.525 32.791 124.056 32.049 124.923 31.8796C125.363 31.7932 125.816 31.7356 126.263 31.7322C128.718 31.7187 131.174 31.717 133.629 31.7322C134.076 31.7356 134.531 31.7915 134.965 31.8932C135.788 32.0863 136.327 32.8655 136.231 33.6465C136.122 34.5426 135.565 35.0729 134.653 35.1017C133.949 35.1254 133.242 35.1017 132.538 35.1118C131.66 35.1237 131.567 35.2084 131.565 36.0893C131.558 39.1656 131.562 42.242 131.562 45.3183C131.562 45.5724 131.567 45.8265 131.56 46.0806C131.531 47.114 130.915 47.7831 129.981 47.8034C128.995 47.8255 128.235 47.1699 128.191 46.1619C128.142 45.0066 128.174 43.8479 128.172 42.6909C128.174 42.0997 128.176 41.5068 128.176 40.9138Z" fill="#1D1D1D"/>
<path d="M153.252 58.6504C153.252 57.1834 153.237 55.7147 153.259 54.2476C153.269 53.6022 153.344 52.9551 153.415 52.3131C153.494 51.5965 153.909 51.1594 154.572 51.0442C155.402 50.9019 156.156 51.2103 156.413 51.898C156.566 52.308 156.618 52.7772 156.62 53.2194C156.637 56.1822 156.628 59.1451 156.63 62.1096C156.63 63.2141 156.633 63.2158 157.772 63.2175C159.268 63.2192 160.763 63.2107 162.259 63.2209C163.406 63.2293 163.907 63.7104 163.919 64.7743C163.929 65.7585 163.323 66.4209 162.298 66.431C159.928 66.4548 157.557 66.4564 155.187 66.431C154.033 66.4192 153.467 65.8923 153.406 64.7336C153.298 62.7076 153.254 60.6798 153.183 58.6521C153.206 58.6521 153.23 58.6504 153.252 58.6504Z" fill="#1D1D1D"/>
<path d="M141.548 58.6553C141.548 56.68 141.541 54.7048 141.552 52.7296C141.557 51.6742 142.165 51.022 143.11 51.0237C144.123 51.0254 144.763 51.664 144.768 52.7465C144.782 55.8788 144.772 59.011 144.775 62.1432C144.777 63.2105 144.78 63.2139 145.868 63.2156C147.364 63.219 148.86 63.2105 150.355 63.2189C151.462 63.224 152.195 63.8525 152.192 64.7707C152.188 65.6719 151.355 66.4308 150.311 66.4376C148.026 66.4494 145.739 66.4545 143.454 66.4359C142.133 66.4257 141.557 65.8244 141.552 64.4979C141.541 62.5498 141.548 60.6034 141.548 58.6553Z" fill="#1D1D1D"/>
<path d="M53.308 18.0056C58.0902 18.2021 62.7047 18.8339 67.077 20.6923C68.5881 21.3343 70.0178 22.122 71.2528 23.2197C72.3945 24.2328 73.2636 25.4118 73.5261 26.972C73.6922 27.9596 73.5058 28.8795 73.1094 29.7671C72.8672 30.3109 72.4623 30.4922 72.0388 30.3075C71.6102 30.1212 71.4611 29.7248 71.7135 29.1658C72.4471 27.548 71.9321 26.1978 70.8411 24.9832C69.8061 23.8313 68.5017 23.0487 67.116 22.3965C64.1006 20.9819 60.9006 20.2315 57.6091 19.8774C55.8456 19.6877 54.0669 19.6403 52.295 19.5336C51.6784 19.4963 51.3887 19.2608 51.3887 18.7763C51.3887 18.2885 51.6783 18.0343 52.2916 18.0072C52.6575 17.992 53.0251 18.0056 53.308 18.0056Z" fill="#1D1D1D"/>
<path d="M50.4966 21.043C53.8592 21.1344 56.2444 21.3123 58.5787 21.89C58.8718 21.9628 59.2225 22.1746 59.3546 22.4236C59.4664 22.6337 59.4037 23.091 59.236 23.2604C59.0395 23.4586 58.6363 23.5721 58.345 23.5366C57.3421 23.4112 56.3545 23.1707 55.3516 23.0351C51.3961 22.4998 47.4897 22.7268 43.6459 23.8415C43.5375 23.872 43.4325 23.9126 43.3241 23.9364C42.7159 24.0651 42.3178 23.8703 42.1789 23.3807C42.0553 22.9437 42.2704 22.5405 42.8176 22.3609C43.5646 22.117 44.3185 21.8527 45.0909 21.7392C47.2034 21.4275 49.326 21.1903 50.4966 21.043Z" fill="#1D1D1D"/>
<path d="M60.95 79.3019C60.5926 79.4239 60.2419 79.6068 59.8743 79.6543C58.536 79.8271 57.1944 80.0168 55.8476 80.0846C52.214 80.2658 48.582 80.276 44.9788 79.6644C44.5892 79.5984 44.2165 79.4256 43.71 79.2613C44.4536 78.5735 45.2447 78.5735 45.9647 78.4922C50.2624 78.0009 54.5653 78.0043 58.8647 78.4922C59.5677 78.5718 60.2538 78.7988 60.9466 78.958C60.9466 79.0698 60.9483 79.185 60.95 79.3019Z" fill="#1D1D1D"/>
<path d="M45.4767 19.3896C45.4073 19.9587 44.9719 20.0875 44.4722 20.1993C43.017 20.5245 41.5297 20.7651 40.1321 21.2614C38.4974 21.8425 36.9134 22.5946 35.3685 23.3925C34.2606 23.9634 33.3611 24.8375 32.6936 25.9251C32.3565 26.4739 31.994 26.5908 31.5874 26.3588C31.1605 26.1148 31.0826 25.6676 31.4062 25.1086C32.0109 24.0634 32.8698 23.2519 33.8388 22.5557C36.2392 20.8295 38.9666 19.8707 41.8024 19.1795C42.7036 18.9593 43.6184 18.7831 44.5365 18.6493C45.1057 18.5679 45.475 18.8983 45.4767 19.3896Z" fill="#1D1D1D"/>
<path d="M61.895 28.2121C61.2987 27.836 60.9396 27.4836 60.5127 27.3651C59.0829 26.9636 57.6312 26.6417 56.1845 26.3029C55.9117 26.2385 55.6238 26.247 55.3459 26.1979C54.6853 26.0827 54.3956 25.7693 54.4837 25.2933C54.5684 24.8427 54.9258 24.6072 55.5272 24.6953C56.752 24.8748 57.9784 25.0527 59.188 25.3068C59.8707 25.4508 60.5347 25.7117 61.1818 25.9793C61.5935 26.1487 61.9916 26.3859 62.3422 26.6603C63.4789 27.5548 63.4925 28.8338 62.3744 29.7384C62.0068 30.0365 61.5918 30.333 61.1497 30.4702C59.8639 30.8683 58.5595 31.2139 57.2483 31.5239C56.6808 31.6577 56.2861 31.3816 56.1963 30.9411C56.1049 30.4888 56.4369 30.1568 57.0467 30.0077C58.1648 29.735 59.2896 29.4758 60.3823 29.1234C60.8583 28.9676 61.2632 28.6017 61.895 28.2121Z" fill="#1D1D1D"/>
<path d="M68.387 28.3002C68.3887 29.0066 67.9974 29.769 67.3977 30.4364C66.4541 31.4901 65.2412 32.1423 63.9622 32.6776C63.4167 32.9046 62.9831 32.7386 62.8153 32.3168C62.6476 31.8967 62.8543 31.5477 63.3845 31.2495C64.2146 30.782 65.1023 30.3788 65.8324 29.7842C67.2401 28.639 67.1995 27.438 65.8188 26.2606C64.7736 25.3696 63.537 24.8343 62.2529 24.3955C61.389 24.1008 61.1247 23.7874 61.2806 23.2775C61.4398 22.7506 61.9158 22.6371 62.7832 22.9421C64.2214 23.4503 65.6156 24.0499 66.7912 25.0528C67.7212 25.8473 68.3971 26.7858 68.387 28.3002Z" fill="#1D1D1D"/>
<path d="M56.8045 37.1548C56.7181 37.1548 56.6063 37.1531 56.4928 37.1548C56.0354 37.1599 55.7152 36.9617 55.6695 36.4908C55.6187 35.9758 55.9287 35.7031 56.4064 35.6353C57.3263 35.5065 58.2529 35.4235 59.171 35.2812C62.1915 34.8154 65.1171 34.0361 67.8512 32.6216C68.1053 32.4895 68.4611 32.3997 68.7185 32.4726C68.9252 32.5302 69.1624 32.852 69.1878 33.079C69.2115 33.3043 69.0523 33.6533 68.8608 33.7786C68.3713 34.1022 67.8292 34.3546 67.2905 34.5935C64.4327 35.8521 61.4224 36.5433 58.3427 36.9668C57.8412 37.0379 57.3364 37.0905 56.8045 37.1548Z" fill="#1D1D1D"/>
<path d="M42.6665 28.3256C43.1696 28.6 43.6457 28.9676 44.1827 29.1319C45.3058 29.4758 46.4628 29.7147 47.6063 29.9908C47.7147 30.0162 47.8316 30.0061 47.9417 30.0247C48.3906 30.1026 48.6498 30.3754 48.6583 30.8243C48.6667 31.2512 48.2856 31.5984 47.7875 31.5341C45.8885 31.2918 43.9912 30.9835 42.3362 29.9366C40.7336 28.9236 40.7336 27.3973 42.3091 26.3639C42.7275 26.0895 43.2001 25.8913 43.6626 25.6897C44.0912 25.5017 44.4402 25.6558 44.6553 26.0573C44.8603 26.4384 44.6824 26.8603 44.2386 27.1059C43.7117 27.3956 43.1832 27.6802 42.6547 27.9665C42.6597 28.0867 42.6631 28.207 42.6665 28.3256Z" fill="#1D1D1D"/>
<path d="M52.3104 67.6251C50.6842 67.4371 49.1985 66.7798 48.0297 65.4822C47.7298 65.1484 47.6688 64.7741 47.9992 64.4217C48.3566 64.0405 48.7361 64.0948 49.1257 64.398C49.5238 64.7097 49.91 65.0468 50.3454 65.2992C52.0818 66.3038 53.6572 66.1327 55.1716 64.8164C55.3631 64.6504 55.5393 64.4641 55.7425 64.315C56.0763 64.071 56.4083 64.049 56.7285 64.3692C57.0317 64.6724 57.0757 65.0011 56.8741 65.367C56.8064 65.4889 56.7318 65.6177 56.6302 65.7092C55.4207 66.7832 54.0485 67.5065 52.3104 67.6251Z" fill="#1D1D1D"/>
<path d="M40.0935 35.681C39.7835 35.6267 39.6683 35.6217 39.5616 35.5861C37.2493 34.8153 35.0284 33.87 33.1379 32.2827C32.8787 32.0659 32.6195 31.8372 32.4145 31.5713C32.1689 31.2511 32.1553 30.8818 32.4535 30.5735C32.7499 30.2652 33.1175 30.2465 33.4479 30.4972C33.829 30.7852 34.1577 31.1427 34.5371 31.434C36.0059 32.564 37.6779 33.3042 39.4125 33.9141C39.7039 34.0174 40.0546 34.0547 40.2697 34.2444C40.4882 34.4375 40.7254 34.817 40.6746 35.0542C40.617 35.3235 40.2477 35.5268 40.0935 35.681Z" fill="#1D1D1D"/>
<path d="M59.734 57.3678C59.734 57.7913 59.7526 58.2148 59.7306 58.6366C59.69 59.3819 59.3257 59.775 58.6702 59.8241C58.0722 59.8698 57.4708 59.465 57.4234 58.8094C57.3488 57.8014 57.3539 56.7799 57.4301 55.7703C57.4759 55.174 58.0197 54.8809 58.6973 54.9182C59.3122 54.9521 59.6832 55.2926 59.7272 55.9261C59.7594 56.4039 59.734 56.885 59.734 57.3644C59.7323 57.3678 59.7323 57.3678 59.734 57.3678Z" fill="#1D1D1D"/>
<path d="M47.3675 57.3288C47.3675 57.7811 47.3895 58.2334 47.3607 58.6823C47.3167 59.382 46.9643 59.758 46.3426 59.8224C45.7413 59.8851 45.1229 59.5022 45.067 58.8483C44.979 57.8421 44.9823 56.8189 45.0535 55.8093C45.0975 55.1791 45.6735 54.8623 46.3782 54.9216C46.9779 54.9707 47.3269 55.3248 47.3641 55.9736C47.3895 56.4259 47.3675 56.8782 47.3675 57.3288Z" fill="#1D1D1D"/>
<path d="M40.3336 23.5449C40.464 23.6483 40.8248 23.7922 40.8807 24.0125C40.9485 24.2818 40.774 24.6189 40.669 24.9154C40.6402 24.995 40.4877 25.0357 40.3861 25.0848C39.4205 25.5608 38.5176 26.1131 37.8417 26.9838C37.5706 27.3328 37.1979 27.4547 36.8049 27.1667C36.3865 26.8618 36.3696 26.4468 36.6474 26.0555C37.4876 24.8663 38.6988 24.1632 39.9982 23.589C40.0456 23.5669 40.1083 23.5737 40.3336 23.5449Z" fill="#1D1D1D"/>
<path d="M48.2056 26.364C47.7635 26.3691 47.4314 26.181 47.3772 25.7169C47.3213 25.2544 47.5771 24.941 48.0294 24.8953C49.0611 24.7902 50.0961 24.7022 51.1312 24.6683C51.6377 24.6513 51.9613 25.0257 51.9274 25.4594C51.8901 25.9286 51.5953 26.1472 51.1447 26.176C50.1639 26.242 49.1848 26.303 48.2056 26.364Z" fill="#1D1D1D"/>
</svg>
