<svg width="218" height="98" viewBox="0 0 218 98" fill="none" xmlns="http://www.w3.org/2000/svg">
<path d="M20.2734 29C20.2734 31.2091 22.0888 33 24.3282 33C26.5675 33 28.3829 31.2091 28.3829 29C28.3829 26.7909 26.5675 25 24.3282 25C22.0888 25 20.2734 26.7909 20.2734 29Z" fill="#404777"/>
<path d="M10.1367 39C10.1367 41.2091 11.9521 43 14.1915 43C16.4308 43 18.2462 41.2091 18.2462 39C18.2462 36.7909 16.4308 35 14.1915 35C11.9521 35 10.1367 36.7909 10.1367 39Z" fill="#404777"/>
<path d="M30.4106 39C30.4106 41.2091 32.2258 43 34.4652 43C36.7046 43 38.5201 41.2091 38.5201 39C38.5201 36.7909 36.7046 35 34.4652 35C32.2258 35 30.4106 36.7909 30.4106 39Z" fill="#404777"/>
<path d="M20.2734 48.9999C20.2734 51.209 22.0888 52.9997 24.3282 52.9997C26.5675 52.9997 28.3829 51.209 28.3829 48.9999C28.3829 46.7907 26.5675 44.9998 24.3282 44.9998C22.0888 44.9998 20.2734 46.7907 20.2734 48.9999Z" fill="#404777"/>
<path d="M40.1421 48.9999C40.1421 51.209 41.9575 52.9997 44.1969 52.9997C46.4361 52.9997 48.2515 51.209 48.2515 48.9999C48.2515 46.7907 46.4361 44.9998 44.1969 44.9998C41.9575 44.9998 40.1421 46.7907 40.1421 48.9999Z" fill="#404777"/>
<path d="M30.4106 59.0001C30.4106 61.2093 32.2258 63 34.4652 63C36.7046 63 38.5201 61.2093 38.5201 59.0001C38.5201 56.7909 36.7046 55 34.4652 55C32.2258 55 30.4106 56.7909 30.4106 59.0001Z" fill="#404777"/>
<path d="M20.2734 69.0001C20.2734 71.2093 22.0888 73.0002 24.3282 73.0002C26.5675 73.0002 28.3829 71.2093 28.3829 69.0001C28.3829 66.7909 26.5675 65 24.3282 65C22.0888 65 20.2734 66.7909 20.2734 69.0001Z" fill="#404777"/>
<path d="M10.1367 59.0001C10.1367 61.2093 11.9521 63 14.1915 63C16.4308 63 18.2462 61.2093 18.2462 59.0001C18.2462 56.7909 16.4308 55 14.1915 55C11.9521 55 10.1367 56.7909 10.1367 59.0001Z" fill="#404777"/>
<path d="M0 29C-9.77918e-08 31.2091 1.81537 33 4.05474 33C6.29411 33 8.10948 31.2091 8.10948 29C8.10948 26.7909 6.29411 25 4.05474 25C1.81537 25 9.8072e-08 26.7909 0 29Z" fill="#404777"/>
<path d="M10.1367 19C10.1367 21.2091 11.9521 23 14.1915 23C16.4308 23 18.2462 21.2091 18.2462 19C18.2462 16.7909 16.4308 15 14.1915 15C11.9521 15 10.1367 16.7909 10.1367 19Z" fill="#404777"/>
<path d="M10.1367 78.9998C10.1367 81.209 11.9521 82.9999 14.1915 82.9999C16.4308 82.9999 18.2462 81.209 18.2462 78.9998C18.2462 76.7907 16.4308 75 14.1915 75C11.9521 75 10.1367 76.7907 10.1367 78.9998Z" fill="#404777"/>
<path d="M0 69.0001C-9.77918e-08 71.2093 1.81537 73.0002 4.05474 73.0002C6.29411 73.0002 8.10948 71.2093 8.10948 69.0001C8.10948 66.7909 6.29411 65 4.05474 65C1.81537 65 9.8072e-08 66.7909 0 69.0001Z" fill="#404777"/>
<path d="M63.667 43.8552V28.4336H74.1697V31.0618H66.7055V35.0367H72.9146V37.4694H66.7055V43.8552H63.667ZM80.5998 44.0725C79.6603 44.0725 78.8163 43.9133 78.0676 43.5946C77.3189 43.2761 76.6806 42.8488 76.1521 42.3131C75.6382 41.7629 75.242 41.133 74.9632 40.4234C74.6841 39.7139 74.5449 38.9681 74.5449 38.1862C74.5449 37.3898 74.6841 36.6368 74.9632 35.9272C75.242 35.2177 75.6382 34.595 76.1521 34.0593C76.6806 33.509 77.3189 33.0746 78.0676 32.756C78.8163 32.4374 79.6603 32.2782 80.5998 32.2782C81.5391 32.2782 82.3758 32.4374 83.1096 32.756C83.8583 33.0746 84.4896 33.509 85.0032 34.0593C85.5317 34.595 85.9355 35.2177 86.2143 35.9272C86.4931 36.6368 86.6326 37.3898 86.6326 38.1862C86.6326 38.9681 86.4931 39.7139 86.2143 40.4234C85.9355 41.133 85.539 41.7629 85.0254 42.3131C84.5115 42.8488 83.8805 43.2761 83.1318 43.5946C82.3831 43.9133 81.5391 44.0725 80.5998 44.0725ZM77.5831 38.1862C77.5831 38.693 77.6565 39.1564 77.8034 39.5763C77.9648 39.9818 78.1777 40.3366 78.442 40.6406C78.7208 40.9447 79.0438 41.1836 79.4106 41.3574C79.7777 41.5167 80.1739 41.5963 80.5998 41.5963C81.0255 41.5963 81.4217 41.5167 81.7887 41.3574C82.1555 41.1836 82.4713 40.9447 82.7355 40.6406C83.0144 40.3366 83.2273 39.9745 83.3739 39.5546C83.5355 39.1347 83.6162 38.6713 83.6162 38.1645C83.6162 37.6721 83.5355 37.216 83.3739 36.7961C83.2273 36.3761 83.0144 36.0141 82.7355 35.71C82.4713 35.4059 82.1555 35.1742 81.7887 35.015C81.4217 34.8412 81.0255 34.7543 80.5998 34.7543C80.1739 34.7543 79.7777 34.8412 79.4106 35.015C79.0438 35.1887 78.7208 35.4277 78.442 35.7318C78.1777 36.0359 77.9648 36.3979 77.8034 36.8178C77.6565 37.2377 77.5831 37.6939 77.5831 38.1862ZM95.4936 34.9932C94.5983 35.0077 93.7983 35.1815 93.0936 35.5146C92.3892 35.8331 91.8826 36.3182 91.5744 36.9698V43.8552H88.6241V32.4737H91.3323V34.9064C91.5376 34.5154 91.78 34.1679 92.0588 33.8638C92.3376 33.5452 92.6386 33.2701 92.9617 33.0384C93.2845 32.8067 93.6075 32.6329 93.9303 32.5171C94.268 32.3868 94.5908 32.3216 94.8993 32.3216C95.0607 32.3216 95.1781 32.3216 95.2515 32.3216C95.3395 32.3216 95.4202 32.3288 95.4936 32.3433V34.9932ZM100.662 44.0725C99.4728 44.0725 98.57 43.696 97.9535 42.9431C97.3371 42.19 97.0288 41.075 97.0288 39.598V32.4737H99.9791V38.9681C99.9791 40.7203 100.618 41.5963 101.895 41.5963C102.467 41.5963 103.018 41.4298 103.546 41.0968C104.089 40.7493 104.529 40.2279 104.867 39.5329V32.4737H107.818V40.5103C107.818 40.8144 107.869 41.0316 107.972 41.1619C108.089 41.2923 108.273 41.3647 108.522 41.3791V43.8552C108.228 43.9133 107.979 43.9495 107.774 43.9639C107.583 43.9783 107.407 43.9857 107.245 43.9857C106.717 43.9857 106.283 43.8699 105.946 43.638C105.623 43.392 105.432 43.0589 105.374 42.6389L105.308 41.7267C104.794 42.5086 104.133 43.0951 103.326 43.4859C102.519 43.8771 101.63 44.0725 100.662 44.0725ZM128.672 43.8552H125.722V37.4694C125.722 36.5571 125.56 35.891 125.237 35.4711C124.929 35.0512 124.496 34.8412 123.938 34.8412C123.351 34.8412 122.801 35.0657 122.287 35.5146C121.773 35.949 121.406 36.5209 121.186 37.2305V43.8552H118.236V37.4694C118.236 36.5571 118.074 35.891 117.751 35.4711C117.443 35.0512 117.01 34.8412 116.452 34.8412C115.88 34.8412 115.329 35.0584 114.801 35.4928C114.287 35.9272 113.92 36.4992 113.7 37.2088V43.8552H110.749V32.4737H113.414V34.5805C113.84 33.8421 114.419 33.2773 115.153 32.8863C115.902 32.4809 116.753 32.2782 117.707 32.2782C118.676 32.2782 119.425 32.5099 119.953 32.9732C120.481 33.4366 120.819 34.0086 120.966 34.6892C121.436 33.9072 122.03 33.3135 122.749 32.9081C123.468 32.4881 124.291 32.2782 125.215 32.2782C125.92 32.2782 126.5 32.4085 126.955 32.6691C127.41 32.9298 127.762 33.2701 128.011 33.69C128.261 34.1099 128.43 34.5878 128.518 35.1236C128.621 35.6593 128.672 36.2024 128.672 36.7526V43.8552ZM137.235 43.8552V35.2973H135.716V33.0818H137.235V32.3868C137.235 30.9677 137.58 29.8455 138.27 29.0201C138.96 28.1947 139.899 27.782 141.088 27.782C142.027 27.782 142.974 28.0064 143.928 28.4553L143.334 30.6491C143.114 30.5333 142.849 30.4392 142.541 30.3667C142.248 30.2798 141.976 30.2364 141.726 30.2364C140.699 30.2364 140.185 30.917 140.185 32.2782V33.0818H143.004V35.2973H140.185V43.8552H137.235ZM149.427 44.0725C148.488 44.0725 147.644 43.9133 146.895 43.5946C146.147 43.2761 145.508 42.8488 144.98 42.3131C144.466 41.7629 144.069 41.133 143.791 40.4234C143.512 39.7139 143.372 38.9681 143.372 38.1862C143.372 37.3898 143.512 36.6368 143.791 35.9272C144.069 35.2177 144.466 34.595 144.98 34.0593C145.508 33.509 146.147 33.0746 146.895 32.756C147.644 32.4374 148.488 32.2782 149.427 32.2782C150.367 32.2782 151.204 32.4374 151.937 32.756C152.686 33.0746 153.317 33.509 153.831 34.0593C154.359 34.595 154.763 35.2177 155.042 35.9272C155.321 36.6368 155.46 37.3898 155.46 38.1862C155.46 38.9681 155.321 39.7139 155.042 40.4234C154.763 41.133 154.367 41.7629 153.853 42.3131C153.339 42.8488 152.708 43.2761 151.959 43.5946C151.211 43.9133 150.367 44.0725 149.427 44.0725ZM146.411 38.1862C146.411 38.693 146.484 39.1564 146.631 39.5763C146.793 39.9818 147.005 40.3366 147.269 40.6406C147.549 40.9447 147.871 41.1836 148.238 41.3574C148.605 41.5167 149.002 41.5963 149.427 41.5963C149.853 41.5963 150.249 41.5167 150.616 41.3574C150.983 41.1836 151.299 40.9447 151.563 40.6406C151.842 40.3366 152.055 39.9745 152.202 39.5546C152.363 39.1347 152.444 38.6713 152.444 38.1645C152.444 37.6721 152.363 37.216 152.202 36.7961C152.055 36.3761 151.842 36.0141 151.563 35.71C151.299 35.4059 150.983 35.1742 150.616 35.015C150.249 34.8412 149.853 34.7543 149.427 34.7543C149.002 34.7543 148.605 34.8412 148.238 35.015C147.871 35.1887 147.549 35.4277 147.269 35.7318C147.005 36.0359 146.793 36.3979 146.631 36.8178C146.484 37.2377 146.411 37.6939 146.411 38.1862ZM164.321 34.9932C163.426 35.0077 162.626 35.1815 161.921 35.5146C161.217 35.8331 160.71 36.3182 160.402 36.9698V43.8552H157.452V32.4737H160.16V34.9064C160.365 34.5154 160.607 34.1679 160.887 33.8638C161.165 33.5452 161.466 33.2701 161.789 33.0384C162.112 32.8067 162.435 32.6329 162.758 32.5171C163.095 32.3868 163.419 32.3216 163.727 32.3216C163.888 32.3216 164.006 32.3216 164.079 32.3216C164.167 32.3216 164.248 32.3288 164.321 32.3433V34.9932Z" fill="#404777"/>
<path d="M68.1144 48.8483H70.8005L76.7453 64.2702H73.6188L72.1657 60.4255H66.7053L65.274 64.2702H62.1475L68.1144 48.8483ZM71.6153 58.3186L69.4575 52.2586L67.2116 58.3186H71.6153ZM82.6291 64.4872C81.8367 64.4872 81.1025 64.3352 80.4275 64.0311C79.7522 63.7271 79.1725 63.3072 78.688 62.7715C78.2035 62.2358 77.8219 61.613 77.5431 60.9034C77.2788 60.1794 77.1469 59.4046 77.1469 58.5792C77.1469 57.7538 77.2716 56.9865 77.5209 56.2769C77.7852 55.5673 78.145 54.9448 78.6 54.4088C79.0551 53.8731 79.5981 53.4533 80.2291 53.1492C80.8604 52.8451 81.5503 52.6931 82.299 52.6931C83.1503 52.6931 83.9136 52.8957 84.5888 53.3012C85.2787 53.7067 85.8145 54.2353 86.1961 54.8868V48.4141H89.1467V60.9252C89.1467 61.2293 89.198 61.4466 89.3008 61.5768C89.4033 61.707 89.5796 61.7794 89.829 61.794V64.2702C89.3154 64.3714 88.897 64.4223 88.5739 64.4223C88.0458 64.4223 87.6125 64.2918 87.2749 64.0311C86.9375 63.7705 86.7467 63.4302 86.7024 63.0103L86.6366 62.2935C86.2107 63.0175 85.6309 63.5678 84.8971 63.9443C84.1778 64.3064 83.4218 64.4872 82.6291 64.4872ZM83.3999 62.0113C83.6787 62.0113 83.9651 61.9676 84.2585 61.8808C84.5521 61.7794 84.8237 61.642 85.0733 61.4681C85.3227 61.2945 85.5429 61.0916 85.7338 60.86C85.9392 60.6284 86.0933 60.3749 86.1961 60.0998V57.3848C86.0787 57.0661 85.91 56.7764 85.6898 56.5157C85.4841 56.2407 85.242 56.0091 84.9632 55.8208C84.699 55.6182 84.4126 55.4587 84.1044 55.3429C83.8107 55.2271 83.5173 55.1693 83.2237 55.1693C82.7835 55.1693 82.3724 55.2633 81.9908 55.4515C81.6237 55.6398 81.3082 55.9004 81.044 56.2335C80.7797 56.552 80.5743 56.9213 80.4275 57.3411C80.2807 57.7613 80.2073 58.1956 80.2073 58.6445C80.2073 59.1224 80.288 59.5639 80.4494 59.9694C80.6111 60.3749 80.831 60.7295 81.1101 61.0339C81.3889 61.3379 81.7193 61.5768 82.1009 61.7506C82.4971 61.9242 82.93 62.0113 83.3999 62.0113ZM95.5653 64.4872C94.3764 64.4872 93.4739 64.1107 92.8572 63.3578C92.2407 62.6048 91.9325 61.49 91.9325 60.0128V52.8885H94.8828V59.3831C94.8828 61.135 95.5214 62.0113 96.7985 62.0113C97.371 62.0113 97.9213 61.8446 98.4498 61.5115C98.9928 61.1641 99.4333 60.6427 99.771 59.9478V52.8885H102.721V60.9252C102.721 61.2293 102.773 61.4466 102.875 61.5768C102.993 61.707 103.176 61.7794 103.426 61.794V64.2702C103.132 64.328 102.883 64.3642 102.677 64.3789C102.486 64.3932 102.31 64.4004 102.149 64.4004C101.62 64.4004 101.187 64.2846 100.85 64.053C100.527 63.8067 100.336 63.4736 100.277 63.0537L100.211 62.1415C99.6975 62.9235 99.0371 63.5098 98.2295 63.9009C97.4223 64.2918 96.5343 64.4872 95.5653 64.4872ZM105.631 48.4141H108.582V60.6212C108.582 61.0411 108.684 61.3667 108.89 61.5986C109.095 61.8302 109.389 61.9461 109.771 61.9461C109.947 61.9461 110.138 61.917 110.343 61.8593C110.563 61.8012 110.769 61.7288 110.96 61.642L111.356 63.8575C110.96 64.0458 110.497 64.1906 109.969 64.2918C109.44 64.3932 108.963 64.4438 108.538 64.4438C107.613 64.4438 106.894 64.205 106.38 63.7271C105.881 63.2347 105.631 62.5398 105.631 61.642V48.4141ZM119.555 63.6837C119.159 63.8575 118.674 64.0311 118.102 64.205C117.529 64.3789 116.928 64.4657 116.296 64.4657C115.885 64.4657 115.496 64.4151 115.129 64.3136C114.777 64.2122 114.462 64.053 114.183 63.8357C113.919 63.6041 113.706 63.3144 113.544 62.9669C113.383 62.6048 113.302 62.1705 113.302 61.6636V55.1256H111.783V52.8885H113.302V49.1961H116.252V52.8885H118.674V55.1256H116.252V60.6861C116.252 61.0916 116.355 61.3813 116.561 61.5549C116.781 61.7144 117.045 61.794 117.353 61.794C117.662 61.794 117.962 61.7432 118.256 61.642C118.549 61.5406 118.784 61.4538 118.961 61.3813L119.555 63.6837ZM126.667 64.2702V48.8483H129.706V61.642H137.676V64.2702H126.667ZM144.117 64.4872C143.192 64.4872 142.355 64.3352 141.607 64.0311C140.858 63.7127 140.219 63.2853 139.691 62.7496C139.163 62.2139 138.751 61.5911 138.458 60.8818C138.179 60.1723 138.04 59.4265 138.04 58.6445C138.04 57.8334 138.179 57.0733 138.458 56.3637C138.737 55.6398 139.14 55.0098 139.669 54.4741C140.197 53.9237 140.836 53.4895 141.585 53.1707C142.348 52.8523 143.199 52.6931 144.139 52.6931C145.078 52.6931 145.915 52.8523 146.649 53.1707C147.397 53.4895 148.029 53.9165 148.542 54.4522C149.071 54.9882 149.467 55.6107 149.731 56.3203C150.01 57.0299 150.149 57.7685 150.149 58.5358C150.149 58.7241 150.142 58.9051 150.128 59.079C150.128 59.2526 150.113 59.3974 150.084 59.5133H141.166C141.21 59.9622 141.32 60.3605 141.496 60.708C141.673 61.0554 141.9 61.3523 142.179 61.5986C142.458 61.8446 142.774 62.0329 143.126 62.1633C143.478 62.2935 143.845 62.3588 144.227 62.3588C144.814 62.3588 145.364 62.2211 145.878 61.9461C146.406 61.6564 146.766 61.2799 146.957 60.8166L149.489 61.5115C149.063 62.3803 148.381 63.0971 147.441 63.6618C146.517 64.2122 145.408 64.4872 144.117 64.4872ZM147.111 57.6236C147.038 56.7692 146.715 56.0887 146.142 55.582C145.585 55.0606 144.902 54.8 144.094 54.8C143.698 54.8 143.324 54.8724 142.972 55.0173C142.634 55.1474 142.333 55.3357 142.069 55.582C141.805 55.828 141.585 56.1249 141.408 56.4723C141.247 56.8198 141.151 57.2038 141.122 57.6236H147.111ZM155.096 64.4872C154.538 64.4872 154.017 64.4004 153.532 64.2268C153.048 64.0386 152.63 63.7851 152.277 63.4664C151.925 63.1333 151.646 62.7496 151.441 62.3154C151.25 61.8808 151.154 61.4029 151.154 60.8818C151.154 60.3459 151.272 59.8535 151.506 59.4046C151.756 58.9414 152.094 58.5505 152.519 58.2318C152.96 57.9133 153.481 57.667 154.083 57.4932C154.685 57.3049 155.345 57.2109 156.064 57.2109C156.578 57.2109 157.077 57.2543 157.561 57.3411C158.06 57.4282 158.501 57.5512 158.883 57.7104V57.0589C158.883 56.3059 158.662 55.7266 158.222 55.3213C157.796 54.9158 157.158 54.7129 156.306 54.7129C155.69 54.7129 155.088 54.8215 154.501 55.0388C153.914 55.2561 153.312 55.5745 152.696 55.9947L151.793 54.1482C153.275 53.1782 154.875 52.6931 156.593 52.6931C158.251 52.6931 159.536 53.0983 160.446 53.9093C161.371 54.7057 161.833 55.8642 161.833 57.3848V60.9252C161.833 61.2293 161.884 61.4466 161.987 61.5768C162.104 61.707 162.288 61.7794 162.538 61.794V64.2702C162.039 64.3714 161.605 64.4223 161.239 64.4223C160.681 64.4223 160.248 64.299 159.94 64.053C159.646 63.8067 159.462 63.481 159.389 63.0755L159.323 62.4456C158.809 63.1117 158.185 63.6184 157.451 63.9662C156.717 64.3136 155.932 64.4872 155.096 64.4872ZM155.932 62.3588C156.431 62.3588 156.901 62.272 157.341 62.0981C157.796 61.9242 158.149 61.6926 158.398 61.4029C158.721 61.1569 158.883 60.8818 158.883 60.5775V59.2744C158.53 59.144 158.149 59.0428 157.738 58.9704C157.327 58.8833 156.93 58.8399 156.549 58.8399C155.785 58.8399 155.161 59.0138 154.677 59.3612C154.193 59.6943 153.95 60.1214 153.95 60.6427C153.95 61.135 154.141 61.5477 154.523 61.8808C154.905 62.1995 155.374 62.3588 155.932 62.3588ZM171.46 55.4081C170.564 55.4225 169.764 55.5964 169.06 55.9294C168.355 56.2479 167.849 56.733 167.54 57.3848V64.2702H164.59V52.8885H167.298V55.3213C167.504 54.9302 167.746 54.5827 168.025 54.2786C168.304 53.9599 168.605 53.6849 168.928 53.4532C169.25 53.2216 169.574 53.0477 169.896 52.9319C170.234 52.8017 170.557 52.7365 170.865 52.7365C171.027 52.7365 171.144 52.7365 171.218 52.7365C171.306 52.7365 171.386 52.7437 171.46 52.758V55.4081ZM183.828 64.2702H180.877V57.8843C180.877 56.9721 180.716 56.3059 180.393 55.886C180.07 55.4659 179.622 55.2561 179.05 55.2561C178.756 55.2561 178.455 55.3139 178.147 55.4297C177.839 55.5458 177.545 55.7122 177.266 55.9294C177.002 56.1321 176.76 56.3784 176.539 56.6678C176.32 56.9575 176.158 57.2762 176.055 57.6236V64.2702H173.105V52.8885H175.769V54.9954C176.195 54.2715 176.811 53.7067 177.619 53.3012C178.426 52.8957 179.336 52.6931 180.349 52.6931C181.068 52.6931 181.655 52.8233 182.11 53.0839C182.565 53.3446 182.918 53.6849 183.167 54.1048C183.417 54.5247 183.585 55.0026 183.673 55.5383C183.776 56.0743 183.828 56.6172 183.828 57.1675V64.2702ZM186.393 64.2702V52.8885H189.343V64.2702H186.393ZM186.393 51.303V48.4141H189.343V51.303H186.393ZM202.728 64.2702H199.777V57.8843C199.777 56.9721 199.616 56.3059 199.293 55.886C198.97 55.4659 198.522 55.2561 197.95 55.2561C197.656 55.2561 197.355 55.3139 197.047 55.4297C196.739 55.5458 196.445 55.7122 196.166 55.9294C195.902 56.1321 195.66 56.3784 195.44 56.6678C195.22 56.9575 195.058 57.2762 194.955 57.6236V64.2702H192.005V52.8885H194.669V54.9954C195.095 54.2715 195.711 53.7067 196.519 53.3012C197.326 52.8957 198.236 52.6931 199.249 52.6931C199.968 52.6931 200.555 52.8233 201.01 53.0839C201.465 53.3446 201.818 53.6849 202.067 54.1048C202.317 54.5247 202.485 55.0026 202.574 55.5383C202.676 56.0743 202.728 56.6172 202.728 57.1675V64.2702ZM209.807 64.3352C209.029 64.3352 208.324 64.1832 207.693 63.8791C207.062 63.575 206.511 63.1623 206.042 62.641C205.587 62.1053 205.234 61.49 204.985 60.7948C204.735 60.0998 204.61 59.3612 204.61 58.5792C204.61 57.7538 204.743 56.9865 205.007 56.2769C205.271 55.5673 205.638 54.9448 206.108 54.4088C206.578 53.8731 207.143 53.4533 207.803 53.1492C208.464 52.8451 209.19 52.6931 209.983 52.6931C210.878 52.6931 211.664 52.8957 212.339 53.3012C213.014 53.6921 213.572 54.2206 214.012 54.8868V52.8885H216.588V63.7271C216.588 64.5671 216.427 65.3201 216.104 65.986C215.781 66.6522 215.333 67.2169 214.761 67.6802C214.203 68.1437 213.528 68.4984 212.735 68.7447C211.957 68.9907 211.106 69.114 210.181 69.114C208.919 69.114 207.855 68.9039 206.989 68.484C206.137 68.0785 205.403 67.4994 204.787 66.7464L206.394 65.2043C206.834 65.74 207.385 66.1599 208.046 66.4639C208.721 66.768 209.433 66.92 210.181 66.92C210.636 66.92 211.069 66.8548 211.48 66.7246C211.906 66.6088 212.28 66.4205 212.603 66.1599C212.926 65.8992 213.176 65.5661 213.352 65.1606C213.543 64.7554 213.638 64.2774 213.638 63.7271V62.2935C213.256 62.9451 212.72 63.452 212.031 63.8141C211.341 64.1616 210.6 64.3352 209.807 64.3352ZM210.798 62.0113C211.12 62.0113 211.429 61.9604 211.722 61.8593C212.016 61.7578 212.288 61.6202 212.537 61.4466C212.787 61.2727 213.007 61.0701 213.198 60.8382C213.388 60.6065 213.535 60.3605 213.638 60.0998V57.3848C213.374 56.7186 212.955 56.1829 212.383 55.7774C211.825 55.3719 211.238 55.1693 210.621 55.1693C210.166 55.1693 209.755 55.2705 209.389 55.4734C209.021 55.6616 208.706 55.9223 208.442 56.2551C208.177 56.5738 207.972 56.9431 207.825 57.363C207.693 57.7829 207.627 58.2174 207.627 58.6663C207.627 59.1296 207.708 59.5639 207.869 59.9694C208.031 60.3749 208.251 60.7295 208.53 61.0339C208.823 61.3379 209.161 61.5768 209.543 61.7506C209.924 61.9242 210.343 62.0113 210.798 62.0113Z" fill="#404777"/>
<path d="M68.7524 77.0857H67.0883L64.305 72.9292V77.0857H62.6411V70.3465H64.305L67.0883 74.5227V70.3465H68.7524V77.0857ZM72.4304 77.1626C71.8983 77.1626 71.4183 77.0506 70.9901 76.8267C70.5684 76.6025 70.2344 76.2827 69.9878 75.8667C69.7477 75.4507 69.6278 74.9642 69.6278 74.4075C69.6278 73.8571 69.7511 73.3739 69.9974 72.9579C70.2439 72.5355 70.5813 72.2124 71.0095 71.9882C71.4376 71.7643 71.9179 71.6524 72.4497 71.6524C72.9818 71.6524 73.4618 71.7643 73.89 71.9882C74.3181 72.2124 74.6555 72.5355 74.9021 72.9579C75.1487 73.3739 75.2719 73.8571 75.2719 74.4075C75.2719 74.9578 75.1453 75.4443 74.8923 75.8667C74.646 76.2827 74.3052 76.6025 73.8706 76.8267C73.4425 77.0506 72.9622 77.1626 72.4304 77.1626ZM72.4304 75.7418C72.7481 75.7418 73.0174 75.6268 73.2379 75.3962C73.4652 75.166 73.5787 74.8362 73.5787 74.4075C73.5787 73.9787 73.4683 73.649 73.2477 73.4187C73.0337 73.1882 72.7677 73.0732 72.4497 73.0732C72.1255 73.0732 71.8562 73.1882 71.6422 73.4187C71.4281 73.6426 71.321 73.9724 71.321 74.4075C71.321 74.8362 71.4247 75.166 71.6324 75.3962C71.8464 75.6268 72.1123 75.7418 72.4304 75.7418ZM77.8187 72.6218C78.0135 72.3274 78.2567 72.0971 78.5487 71.9307C78.8406 71.758 79.1648 71.6714 79.5218 71.6714V73.409H79.0642C78.6493 73.409 78.3377 73.4986 78.13 73.678C77.9227 73.8507 77.8187 74.1579 77.8187 74.5996V77.0857H76.1546V71.7289H77.8187V72.6218ZM83.3435 75.6939V77.0857H82.497C81.8935 77.0857 81.4233 76.942 81.0859 76.654C80.7486 76.3596 80.5799 75.8827 80.5799 75.2235V73.0922H79.918V71.7289H80.5799V70.4234H82.244V71.7289H83.3337V73.0922H82.244V75.2425C82.244 75.4026 82.283 75.5178 82.3609 75.5883C82.4385 75.6585 82.5682 75.6939 82.7501 75.6939H83.3435ZM87.6083 71.6714C88.2312 71.6714 88.7308 71.8763 89.1071 72.2859C89.4834 72.6889 89.6714 73.2459 89.6714 73.9563V77.0857H88.0171V74.1769C88.0171 73.8187 87.9229 73.5403 87.7349 73.3419C87.5466 73.1434 87.2936 73.0441 86.9759 73.0441C86.6578 73.0441 86.4048 73.1434 86.2168 73.3419C86.0288 73.5403 85.9346 73.8187 85.9346 74.1769V77.0857H84.2705V69.9819H85.9346V72.449C86.1033 72.2124 86.3336 72.0236 86.6256 71.8826C86.9176 71.7419 87.2451 71.6714 87.6083 71.6714ZM95.9464 74.3209C95.9464 74.4746 95.9368 74.6347 95.9172 74.8011H92.1512C92.1773 75.1339 92.2843 75.3899 92.4724 75.569C92.6671 75.7418 92.9039 75.8283 93.1827 75.8283C93.598 75.8283 93.8866 75.6555 94.0488 75.31H95.82C95.7292 75.6619 95.5636 75.9786 95.3237 76.2603C95.09 76.5417 94.795 76.7626 94.438 76.9226C94.0813 77.0827 93.6823 77.1626 93.2413 77.1626C92.7091 77.1626 92.2356 77.0506 91.8203 76.8267C91.4051 76.6025 91.0809 76.2827 90.8472 75.8667C90.6138 75.4507 90.4969 74.9642 90.4969 74.4075C90.4969 73.8507 90.6104 73.3642 90.8376 72.9482C91.0711 72.5322 91.3955 72.2124 91.8105 71.9882C92.2258 71.7643 92.7027 71.6524 93.2413 71.6524C93.7666 71.6524 94.2337 71.761 94.6426 71.9785C95.0511 72.1964 95.3691 72.5068 95.5961 72.9098C95.8298 73.3131 95.9464 73.7836 95.9464 74.3209ZM94.2435 73.8892C94.2435 73.6075 94.1463 73.3836 93.9516 73.2172C93.7568 73.0508 93.5136 72.9676 93.2216 72.9676C92.9428 72.9676 92.7061 73.0475 92.5113 73.2075C92.3233 73.3676 92.2065 73.5948 92.1611 73.8892H94.2435ZM98.4884 72.6218C98.6831 72.3274 98.9263 72.0971 99.2183 71.9307C99.5103 71.758 99.8345 71.6714 100.191 71.6714V73.409H99.7342C99.3189 73.409 99.0073 73.4986 98.8 73.678C98.5923 73.8507 98.4884 74.1579 98.4884 74.5996V77.0857H96.8242V71.7289H98.4884V72.6218ZM104.295 71.6714C104.931 71.6714 105.437 71.8763 105.814 72.2859C106.196 72.6889 106.388 73.2459 106.388 73.9563V77.0857H104.733V74.1769C104.733 73.8187 104.639 73.5403 104.451 73.3419C104.263 73.1434 104.01 73.0441 103.692 73.0441C103.374 73.0441 103.121 73.1434 102.933 73.3419C102.745 73.5403 102.651 73.8187 102.651 74.1769V77.0857H100.987V71.7289H102.651V72.4393C102.82 72.2027 103.046 72.017 103.332 71.8826C103.618 71.7419 103.939 71.6714 104.295 71.6714ZM111.27 70.3465V77.0857H109.606V70.3465H111.27ZM114.14 72.6218C114.335 72.3274 114.578 72.0971 114.87 71.9307C115.162 71.758 115.486 71.6714 115.843 71.6714V73.409H115.386C114.971 73.409 114.659 73.4986 114.452 73.678C114.244 73.8507 114.14 74.1579 114.14 74.5996V77.0857H112.476V71.7289H114.14V72.6218ZM121.757 74.3209C121.757 74.4746 121.748 74.6347 121.728 74.8011H117.962C117.988 75.1339 118.095 75.3899 118.283 75.569C118.478 75.7418 118.715 75.8283 118.994 75.8283C119.409 75.8283 119.698 75.6555 119.86 75.31H121.631C121.54 75.6619 121.375 75.9786 121.135 76.2603C120.901 76.5417 120.606 76.7626 120.249 76.9226C119.892 77.0827 119.493 77.1626 119.052 77.1626C118.52 77.1626 118.046 77.0506 117.631 76.8267C117.216 76.6025 116.892 76.2827 116.658 75.8667C116.425 75.4507 116.308 74.9642 116.308 74.4075C116.308 73.8507 116.422 73.3642 116.649 72.9482C116.882 72.5322 117.206 72.2124 117.622 71.9882C118.037 71.7643 118.514 71.6524 119.052 71.6524C119.577 71.6524 120.045 71.761 120.453 71.9785C120.862 72.1964 121.18 72.5068 121.407 72.9098C121.641 73.3131 121.757 73.7836 121.757 74.3209ZM120.054 73.8892C120.054 73.6075 119.957 73.3836 119.762 73.2172C119.568 73.0508 119.324 72.9676 119.033 72.9676C118.754 72.9676 118.517 73.0475 118.322 73.2075C118.134 73.3676 118.017 73.5948 117.972 73.8892H120.054ZM124.3 69.9819V77.0857H122.635V69.9819H124.3ZM125.174 74.3978C125.174 73.8474 125.278 73.3642 125.486 72.9482C125.7 72.5322 125.989 72.2124 126.352 71.9882C126.715 71.7643 127.121 71.6524 127.568 71.6524C127.951 71.6524 128.285 71.7289 128.571 71.8826C128.863 72.0363 129.087 72.2378 129.242 72.4874V71.7289H130.906V77.0857H129.242V76.3275C129.08 76.5771 128.853 76.7786 128.561 76.9323C128.276 77.0857 127.941 77.1626 127.559 77.1626C127.118 77.1626 126.715 77.0506 126.352 76.8267C125.989 76.5962 125.7 76.273 125.486 75.857C125.278 75.4346 125.174 74.9481 125.174 74.3978ZM129.242 74.4075C129.242 73.9978 129.126 73.6747 128.892 73.4378C128.665 73.2012 128.386 73.0826 128.055 73.0826C127.724 73.0826 127.442 73.2012 127.208 73.4378C126.981 73.6683 126.868 73.9881 126.868 74.3978C126.868 74.8074 126.981 75.1339 127.208 75.3772C127.442 75.6138 127.724 75.7324 128.055 75.7324C128.386 75.7324 128.665 75.6138 128.892 75.3772C129.126 75.1403 129.242 74.8171 129.242 74.4075ZM135.419 71.6714C136.054 71.6714 136.56 71.8763 136.937 72.2859C137.32 72.6889 137.511 73.2459 137.511 73.9563V77.0857H135.857V74.1769C135.857 73.8187 135.763 73.5403 135.574 73.3419C135.386 73.1434 135.133 73.0441 134.815 73.0441C134.498 73.0441 134.245 73.1434 134.056 73.3419C133.868 73.5403 133.774 73.8187 133.774 74.1769V77.0857H132.11V71.7289H133.774V72.4393C133.943 72.2027 134.17 72.017 134.455 71.8826C134.741 71.7419 135.062 71.6714 135.419 71.6714ZM138.336 74.3978C138.336 73.8474 138.44 73.3642 138.648 72.9482C138.862 72.5322 139.151 72.2124 139.514 71.9882C139.877 71.7643 140.283 71.6524 140.73 71.6524C141.087 71.6524 141.412 71.7259 141.704 71.8729C142.002 72.0203 142.235 72.2187 142.404 72.4684V69.9819H144.068V77.0857H142.404V76.3178C142.249 76.5738 142.025 76.7786 141.733 76.9323C141.447 77.0857 141.113 77.1626 140.73 77.1626C140.283 77.1626 139.877 77.0506 139.514 76.8267C139.151 76.5962 138.862 76.273 138.648 75.857C138.44 75.4346 138.336 74.9481 138.336 74.3978ZM142.404 74.4075C142.404 73.9978 142.288 73.6747 142.054 73.4378C141.827 73.2012 141.548 73.0826 141.217 73.0826C140.886 73.0826 140.604 73.2012 140.37 73.4378C140.143 73.6683 140.03 73.9881 140.03 74.3978C140.03 74.8074 140.143 75.1339 140.37 75.3772C140.604 75.6138 140.886 75.7324 141.217 75.7324C141.548 75.7324 141.827 75.6138 142.054 75.3772C142.288 75.1403 142.404 74.8171 142.404 74.4075Z" fill="#404777"/>
</svg>
