<svg width="218" height="98" viewBox="0 0 218 98" fill="none" xmlns="http://www.w3.org/2000/svg">
<path d="M66.3817 69.3344C62.0724 69.3344 59.7409 67.3951 58.6055 65.7679C57.3646 63.9899 56.9601 62.0122 56.9601 61.124V40.1599C56.9601 38.7839 55.8553 37.6642 54.48 37.6642C53.1046 37.6642 52 38.7839 52 40.1599V60.9423C52 61.0535 52.1301 61.1604 52.1326 61.2478C52.1895 63.426 53.0891 66.7322 55.3598 69.4835C57.9744 72.6515 61.8728 74.3262 66.605 74.3262C67.9501 74.3262 68.9717 73.253 68.9717 71.8303C68.9717 70.4774 67.7895 69.3344 66.3817 69.3344Z" fill="#404777"/>
<path d="M120.938 54.9624C121.396 55.3835 121.989 55.6157 122.609 55.6157C123.304 55.6157 123.971 55.3194 124.439 54.8029C125.36 53.7862 125.288 52.2041 124.28 51.2759C121.822 49.0164 118.634 47.7719 115.302 47.7719C107.959 47.7719 101.984 53.7884 101.984 61.1838C101.984 68.5796 107.959 74.5961 115.302 74.5961C118.231 74.5961 121.008 73.6573 123.335 71.8811C124.424 71.05 124.639 69.4818 123.814 68.3849C123.342 67.7568 122.622 67.3964 121.837 67.3964C121.294 67.3964 120.777 67.5714 120.342 67.9027C118.883 69.0159 117.14 69.6045 115.302 69.6045C110.691 69.6045 106.941 65.8273 106.941 61.1838C106.941 56.5407 110.691 52.7635 115.302 52.7635C117.394 52.7635 119.396 53.5441 120.938 54.9624Z" fill="#404777"/>
<path d="M131.774 48.1764C130.419 48.1764 129.377 49.2961 129.377 50.6723V71.6964C129.377 73.0723 130.419 74.1922 131.774 74.1922C133.129 74.1922 134.172 73.0723 134.172 71.6964V50.6723C134.172 49.2961 133.129 48.1764 131.774 48.1764Z" fill="#404777"/>
<path d="M165.917 62.0905V40.16C165.917 38.784 164.791 37.6642 163.437 37.6642C162.081 37.6642 160.956 38.784 160.956 40.16V61.9193L161.03 61.9872C160.599 64.2913 159.628 66.2701 158.14 67.71C156.586 69.2138 154.656 70.0087 152.517 70.0087C150.166 70.0087 147.992 69.0876 146.377 67.4138C144.781 65.7606 143.907 63.548 143.907 61.1837C143.907 56.3175 147.868 52.3593 152.732 52.3593C154.098 52.3593 155.211 51.2393 155.211 49.8633C155.211 48.4873 154.1 47.3675 152.734 47.3675C145.136 47.3675 138.956 53.5656 138.956 61.1838C138.956 68.8021 145.15 75 152.764 75C159.73 75 165.087 70.1031 166.102 62.8114C166.101 62.7409 166.019 62.5642 166.009 62.4665C165.991 62.2938 165.917 62.1831 165.917 62.0905Z" fill="#404777"/>
<path d="M94.6569 48.1764C93.3021 48.1764 92.1769 49.2961 92.1769 50.6723V61.184C92.1769 65.8831 88.356 69.7062 83.7448 69.7062C79.1338 69.7062 75.3128 65.8831 75.3128 61.184V50.6723C75.3128 49.2961 74.208 48.1764 72.8327 48.1764C71.4573 48.1764 70.3527 49.2961 70.3527 50.6723V61.184C70.3527 68.6354 76.403 74.6974 83.7448 74.6974C91.0861 74.6974 97.137 68.6354 97.137 61.184V50.6723C97.137 49.2961 96.0119 48.1764 94.6569 48.1764Z" fill="#404777"/>
<path d="M106.874 45.5286C106.474 45.5286 106.097 45.5012 105.86 45.1749L102.876 41.2302H72.1031C71.4097 41.2302 70.8477 40.5131 70.8477 39.815C70.8477 39.1168 71.4097 38.3997 72.1031 38.3997H103.514C103.914 38.3997 104.291 38.5788 104.527 38.9044L106.778 41.9956L109.375 37.6831C109.594 37.3182 109.982 37.0883 110.404 37.0738L113.368 36.9714L115.936 24.9977C116.062 24.4131 116.551 24.0146 117.171 24C117.765 24.0033 118.275 24.4727 118.394 25.0585L121.356 39.7317H127.968C128.661 39.7317 129.223 40.2824 129.223 40.9804C129.223 41.6786 128.661 42.2292 127.968 42.2292H120.331C119.735 42.2292 119.22 41.7746 119.101 41.1861L117.128 31.4317L115.616 38.4754C115.495 39.0415 115.007 39.4485 114.432 39.4683L111.168 39.5778L107.947 44.9214C107.729 45.2828 107.347 45.5097 106.928 45.5278C106.909 45.5286 106.892 45.5286 106.874 45.5286Z" fill="#404777"/>
<path fill-rule="evenodd" clip-rule="evenodd" d="M131.934 46.0138C129.227 46.0138 127.024 43.7962 127.024 41.0705C127.024 38.3443 129.227 36.1264 131.934 36.1264C134.64 36.1264 136.842 38.3443 136.842 41.0705C136.842 43.7962 134.64 46.0138 131.934 46.0138ZM131.934 38.6549C130.611 38.6549 129.535 39.7387 129.535 41.0705C129.535 42.402 130.611 43.4853 131.934 43.4853C133.256 43.4853 134.331 42.402 134.331 41.0705C134.331 39.7387 133.256 38.6549 131.934 38.6549Z" fill="#404777"/>
</svg>
