<svg width="218" height="98" viewBox="0 0 218 98" fill="none" xmlns="http://www.w3.org/2000/svg">
<mask id="mask0" mask-type="alpha" maskUnits="userSpaceOnUse" x="0" y="14" width="218" height="71">
<path d="M0 14H218V84.2183H0V14Z" fill="white"/>
</mask>
<g mask="url(#mask0)">
<path fill-rule="evenodd" clip-rule="evenodd" d="M134.417 46.0742V39.9114C134.417 38.9419 134.525 38.4026 134.89 37.9929C135.212 37.6496 135.749 37.4323 136.375 37.4323C136.998 37.4323 137.535 37.6496 137.859 37.9929C138.225 38.4026 138.331 38.9419 138.331 39.9114V46.0742H140.849V39.546C140.849 37.9716 140.526 36.9799 139.794 36.2482C139.128 35.5794 138.181 35.1918 137.062 35.1918C135.643 35.1918 134.481 35.7949 133.75 36.7218C133.082 35.6663 131.899 35.1918 130.717 35.1918C129.446 35.1918 128.435 35.7089 127.768 36.4637L127.447 35.6876C127.359 35.4942 127.274 35.4303 126.994 35.4303H124.22V36.7431C124.22 36.9799 124.284 37.0225 124.456 37.089L125.467 37.4323V46.0742H127.984V39.9114C127.984 38.9419 128.092 38.4026 128.457 37.9929C128.78 37.6496 129.318 37.4323 129.942 37.4323C130.565 37.4323 131.104 37.6496 131.426 37.9929C131.792 38.4026 131.899 38.9419 131.899 39.9114V46.0742H134.417ZM124.128 57.7993C124.299 56.2257 125.074 55.2341 126.537 55.2341C127.892 55.2341 128.797 56.2045 128.859 57.7993H124.128ZM126.514 53.1444C123.244 53.1444 121.502 55.5135 121.502 58.7253C121.502 60.3662 121.975 61.8501 122.984 62.8418C123.889 63.7261 125.289 64.2654 127.184 64.2654C128.214 64.2654 129.572 64.0703 130.41 63.8121C130.539 63.7696 130.603 63.7261 130.603 63.531V61.8936C129.87 62.0444 128.644 62.2191 127.699 62.2191C125.525 62.2191 124.322 61.2896 124.128 59.6947H130.947C131.142 59.6947 131.248 59.654 131.292 59.4792C131.356 59.2424 131.378 58.9204 131.378 58.5301C131.378 55.3423 129.742 53.1444 126.514 53.1444ZM139.337 53.2517C139.165 53.1878 138.821 53.1435 138.563 53.1435C137.531 53.1435 136.626 53.681 136.025 54.5857L135.701 53.6384C135.636 53.4459 135.53 53.3803 135.25 53.3803H132.475V54.6957C132.475 54.9325 132.539 54.9751 132.71 55.0416L133.723 55.3849V62.1091L132.646 62.4329C132.453 62.4976 132.409 62.5837 132.409 62.7566V64.0259H138.391V62.3699C138.391 62.1952 138.348 62.1304 138.134 62.1304H136.239V58.4024C136.239 57.2165 136.369 56.5247 136.778 56.0962C137.145 55.7077 137.68 55.5348 138.779 55.5348H139.66V53.7032C139.66 53.445 139.575 53.3377 139.338 53.2508L139.337 53.2517ZM115.842 53.1452C114.703 53.1452 113.691 53.5754 113.003 54.199V49.631C113.003 49.3738 112.94 49.3064 112.638 49.3064H109.238V50.6227C109.238 50.8595 109.302 50.9021 109.476 50.9668L110.486 51.3118V64.0259H113.003V57.927C113.003 56.9362 113.133 56.3535 113.54 55.9446C113.907 55.5791 114.509 55.384 115.198 55.384C115.887 55.384 116.49 55.5791 116.854 55.9446C117.263 56.3535 117.392 56.9362 117.392 57.927V64.0259H119.912V57.6041C119.912 55.8816 119.545 54.9973 118.879 54.285C118.146 53.5311 117.027 53.1444 115.841 53.1444L115.842 53.1452ZM105.773 61.8732C105.516 61.6142 105.453 61.2479 105.453 60.666V55.3849H108.163C108.356 55.3849 108.442 55.3201 108.442 55.1481V53.3803H105.453V51.0307H103.363C103.042 51.0307 102.934 51.1371 102.934 51.4626V60.7955C102.934 62.0648 103.192 62.9065 103.753 63.4689C104.29 64.0055 105.086 64.2645 106.183 64.2645C106.936 64.2645 107.839 64.1119 108.4 63.9186C108.55 63.8769 108.615 63.8121 108.615 63.6401V62.0878C108.077 62.1748 107.387 62.2386 106.936 62.2386C106.376 62.2386 105.99 62.0878 105.773 61.8723V61.8732ZM147.087 53.1452C145.794 53.1452 144.72 53.6402 144.032 54.4163L143.709 53.6402C143.622 53.4459 143.537 53.3803 143.256 53.3803H140.482V54.6957C140.482 54.9325 140.547 54.9751 140.717 55.0416L141.729 55.3849V64.0259H144.247V57.927C144.247 56.9362 144.377 56.3535 144.786 55.9446C145.152 55.5791 145.753 55.384 146.44 55.384C147.131 55.384 147.733 55.5791 148.098 55.9446C148.505 56.3535 148.636 56.9362 148.636 57.927V64.0259H151.153V57.6041C151.153 55.8816 150.789 54.9973 150.123 54.285C149.39 53.5311 148.269 53.1444 147.087 53.1444V53.1452ZM101.407 53.2517C101.234 53.1878 100.891 53.1435 100.632 53.1435C99.5994 53.1435 98.6961 53.681 98.0939 54.5857L97.7706 53.6384C97.7051 53.4459 97.5979 53.3803 97.3189 53.3803H94.5434V54.6957C94.5434 54.9325 94.608 54.9751 94.7816 55.0416L95.7912 55.3849V62.1091L94.7143 62.4329C94.5221 62.4976 94.4796 62.5837 94.4796 62.7566V64.0259H100.459V62.3699C100.459 62.1952 100.419 62.1304 100.201 62.1304H98.3073V58.4024C98.3073 57.2165 98.4384 56.5247 98.8458 56.0962C99.2124 55.7077 99.75 55.5348 100.847 55.5348H101.73V53.7032C101.73 53.445 101.644 53.3377 101.407 53.2508V53.2517ZM114.065 44.4173C114.065 44.2434 114.001 44.1778 113.785 44.1778H112.84V35.7532C112.84 35.4951 112.775 35.4303 112.474 35.4303H109.074V36.744C109.074 36.9808 109.138 37.0243 109.312 37.0899L110.322 37.4332V44.1565L109.247 44.4812C109.052 44.545 109.01 44.6319 109.01 44.8049V46.076H114.065V44.4173ZM200.982 53.1452C199.692 53.1452 198.615 53.6402 197.926 54.4163L197.604 53.6402C197.518 53.4459 197.433 53.3803 197.153 53.3803H194.377V54.6957C194.377 54.9325 194.439 54.9751 194.613 55.0416L195.624 55.3849V64.0259H198.141V57.927C198.141 56.9362 198.272 56.3535 198.681 55.9446C199.046 55.5791 199.649 55.384 200.337 55.384C201.025 55.384 201.627 55.5791 201.992 55.9446C202.402 56.3535 202.53 56.9362 202.53 57.927V64.0259H205.05V57.6041C205.05 55.8816 204.683 54.9973 204.017 54.285C203.285 53.5311 202.164 53.1444 200.982 53.1444V53.1452ZM214.215 59.5245C214.215 60.4292 214.063 61.0323 213.631 61.4856C213.245 61.8936 212.6 62.1517 211.846 62.1517C210.124 62.1517 209.222 60.9463 209.222 58.7049C209.222 56.5051 210.276 55.2554 211.89 55.2554C212.643 55.2554 213.266 55.5144 213.655 55.9233C214.085 56.3756 214.215 56.9806 214.215 57.8853V59.5245ZM217.741 62.1322H216.708V49.6301C216.708 49.372 216.644 49.3046 216.344 49.3046H212.944V50.6218C212.944 50.8586 213.01 50.9021 213.181 50.9668L214.192 51.3127V54.1333C213.506 53.5098 212.534 53.1435 211.482 53.1435C208.663 53.1435 206.661 55.3831 206.661 58.7475C206.661 62.1952 208.553 64.2645 211.223 64.2645C212.405 64.2645 213.567 63.7687 214.256 63.0351C214.408 63.6818 214.794 64.025 215.806 64.025H218V62.369C218 62.1952 217.958 62.1313 217.741 62.1313V62.1322ZM190.075 59.5245C190.075 60.4292 189.922 61.0323 189.493 61.4856C189.107 61.8936 188.482 62.1517 187.73 62.1517C186.011 62.1517 185.147 60.9463 185.147 58.7049C185.147 56.5051 186.157 55.2554 187.772 55.2554C188.525 55.2554 189.127 55.5144 189.514 55.9233C189.947 56.3756 190.075 56.9806 190.075 57.8853V59.5245ZM193.603 62.1322H192.569V53.3803H190.979C190.763 53.3803 190.678 53.445 190.635 53.6393L190.418 54.5245C189.729 53.6606 188.632 53.1444 187.363 53.1444C184.545 53.1444 182.587 55.384 182.587 58.7483C182.587 62.1961 184.437 64.2654 187.105 64.2654C188.289 64.2654 189.428 63.7909 190.116 63.0582C190.289 63.6614 190.742 64.0259 191.686 64.0259H193.862V62.3699C193.862 62.1961 193.817 62.1322 193.603 62.1322ZM157.28 62.1322H156.334V53.7049C156.334 53.4468 156.271 53.3794 155.969 53.3794H152.57V54.6948C152.57 54.9316 152.634 54.9751 152.807 55.0407L153.816 55.384V62.11L152.74 62.4338C152.546 62.4985 152.506 62.5846 152.506 62.7566V64.0259H157.561V62.3699C157.561 62.1961 157.496 62.1313 157.28 62.1313V62.1322ZM165.481 53.2517C165.311 53.1878 164.965 53.1435 164.707 53.1435C163.676 53.1435 162.772 53.681 162.17 54.5857L161.846 53.6384C161.782 53.4459 161.675 53.3803 161.396 53.3803H158.62V54.6957C158.62 54.9325 158.682 54.9751 158.855 55.0416L159.868 55.3849V62.1091L158.79 62.4329C158.597 62.4976 158.555 62.5837 158.555 62.7566V64.0259H164.535V62.3699C164.535 62.1952 164.492 62.1304 164.278 62.1304H162.384V58.4024C162.384 57.2165 162.514 56.5247 162.922 56.0962C163.289 55.7077 163.825 55.5348 164.923 55.5348H165.805V53.7032C165.805 53.445 165.719 53.3377 165.482 53.2508L165.481 53.2517ZM168.861 57.7993C169.031 56.2257 169.808 55.2341 171.269 55.2341C172.624 55.2341 173.529 56.2045 173.592 57.7993H168.861ZM171.247 53.1444C167.979 53.1444 166.235 55.5135 166.235 58.7253C166.235 60.3662 166.709 61.8501 167.72 62.8418C168.623 63.7261 170.023 64.2654 171.915 64.2654C172.95 64.2654 174.304 64.0703 175.142 63.8121C175.272 63.7696 175.336 63.7261 175.336 63.531V61.8936C174.606 62.0444 173.378 62.2191 172.431 62.2191C170.26 62.2191 169.054 61.2896 168.861 59.6947H175.68C175.875 59.6947 175.983 59.654 176.025 59.4792C176.09 59.2424 176.11 58.9204 176.11 58.5301C176.11 55.3423 174.475 53.1444 171.247 53.1444ZM181.511 62.1313H180.478V49.6292C180.478 49.372 180.413 49.3055 180.112 49.3055H176.714V50.6209C176.714 50.8577 176.778 50.9021 176.949 50.9668L177.962 51.3118V62.1091C177.962 62.8835 178.09 63.3145 178.412 63.6179C178.713 63.8982 179.167 64.0259 179.92 64.0259H181.769V62.369C181.769 62.1943 181.726 62.1295 181.511 62.1295V62.1313ZM89.5414 37.0881L90.5519 37.4341V41.8069C90.5519 43.4017 90.8742 44.3508 91.6917 45.1482C92.4232 45.8587 93.7375 46.3128 95.1766 46.3128C96.6193 46.3128 97.9309 45.8587 98.6633 45.1482C99.4807 44.3508 99.8022 43.4017 99.8022 41.8069V35.4295H97.2853V41.743C97.2853 42.6043 97.156 43.1445 96.8336 43.5321C96.4891 43.941 95.9303 44.1787 95.1766 44.1787C94.4238 44.1787 93.865 43.941 93.5205 43.5312C93.1981 43.1436 93.0688 42.6043 93.0688 41.743V35.6441C93.0688 35.4933 93.0263 35.4286 92.8536 35.4286H89.3049V36.7431C89.3049 36.9808 89.3687 37.0243 89.5414 37.089V37.0881ZM88.476 62.1091C86.8199 62.1091 85.9165 60.9649 85.9165 58.7031C85.9165 56.4413 86.8199 55.2971 88.476 55.2971C90.1321 55.2971 91.0372 56.4413 91.0372 58.7031C91.0372 60.9649 90.133 62.1091 88.476 62.1091ZM88.476 53.1435C84.9255 53.1435 83.3571 55.6004 83.3571 58.704C83.3571 61.8067 84.9255 64.2654 88.476 64.2654C92.0273 64.2654 93.5975 61.8067 93.5975 58.704C93.5975 55.6013 92.0264 53.1426 88.476 53.1426V53.1435ZM107.032 44.4155C107.032 44.2426 106.987 44.1787 106.772 44.1787H104.88V40.4498C104.88 39.2639 105.009 38.5738 105.418 38.1436C105.782 37.7551 106.321 37.5822 107.417 37.5822H108.3V35.7506C108.3 35.4924 108.213 35.3851 107.977 35.2982C107.805 35.2343 107.461 35.1918 107.202 35.1918C106.17 35.1918 105.267 35.7293 104.664 36.6349L104.341 35.6858C104.277 35.4924 104.17 35.4286 103.889 35.4286H101.116V36.7413C101.116 36.9808 101.179 37.0234 101.351 37.0872L102.363 37.4332V44.1574L101.287 44.4794C101.092 44.545 101.05 44.6302 101.05 44.8031V46.0742H107.032V44.4155ZM83.7972 37.3462C85.4533 37.3462 86.3567 38.4905 86.3567 40.7523C86.3567 43.0141 85.4533 44.1556 83.7972 44.1556C82.1411 44.1556 81.2369 43.015 81.2369 40.7523C81.2369 38.4905 82.1411 37.3462 83.7972 37.3462ZM83.7972 46.311C87.3468 46.311 88.917 43.8549 88.917 40.7523C88.917 37.6478 87.3468 35.1909 83.7981 35.1909C80.2468 35.1909 78.6774 37.6478 78.6774 40.7523C78.6774 43.8549 80.2468 46.311 83.7972 46.311ZM155.001 51.8281C156.14 51.8281 156.506 51.3118 156.506 50.3184C156.506 49.3285 156.14 48.8105 155.001 48.8105C153.861 48.8105 153.493 49.3285 153.493 50.3184C153.493 51.3118 153.861 51.8281 155.001 51.8281ZM111.505 33.8772C112.646 33.8772 113.01 33.3601 113.01 32.3694C113.01 31.3786 112.646 30.8606 111.505 30.8606C110.364 30.8606 109.999 31.3786 109.999 32.3694C109.999 33.3601 110.364 33.8772 111.505 33.8772ZM118.089 41.5497L119.465 41.8947C120.776 42.2167 121.165 42.5191 121.165 43.1658C121.165 43.5543 120.993 43.8762 120.648 44.0705C120.304 44.2638 119.723 44.3721 119.034 44.3721C118.432 44.3721 117.809 44.3277 117.357 44.2213L117.055 43.1445C116.991 42.9289 116.882 42.8633 116.625 42.8633H115.141V45.385C115.141 45.6653 115.205 45.8161 115.528 45.9021C116.303 46.1176 117.765 46.311 119.035 46.311C120.776 46.311 121.917 46.0094 122.649 45.3415C123.231 44.8031 123.573 44.0492 123.573 43.0788C123.573 40.9678 122.498 40.3212 120.39 39.7819L118.949 39.4156C117.745 39.114 117.357 38.7903 117.357 38.1871C117.357 37.3684 118.066 37.1316 119.292 37.1316C119.852 37.1316 120.454 37.1742 120.821 37.2398L121.142 38.3166C121.208 38.5109 121.272 38.5969 121.617 38.5969H123.015V36.1187C123.015 35.8818 122.95 35.7302 122.562 35.6024C121.789 35.3425 120.519 35.1926 119.379 35.1926C117.873 35.1926 116.775 35.4295 116.001 36.0548C115.334 36.5923 114.969 37.3675 114.969 38.3814C114.969 40.1908 116.001 41.0317 118.089 41.5497ZM75.5786 46.3128C76.3323 46.3128 77.2356 46.1611 77.7953 45.9669C77.945 45.9243 78.0106 45.8586 78.0106 45.6875V44.1352C77.4721 44.2204 76.784 44.286 76.3323 44.286C75.7726 44.286 75.3856 44.1352 75.1704 43.9197C74.9135 43.6616 74.8471 43.2953 74.8471 42.7134V37.4332H77.5589C77.7511 37.4332 77.8379 37.3693 77.8379 37.1963V35.4286H74.8471V33.0807H72.7606C72.4373 33.0807 72.331 33.1872 72.331 33.5118V42.8429C72.331 44.1139 72.5879 44.9539 73.1485 45.5145C73.686 46.052 74.4813 46.3128 75.5795 46.3128H75.5786ZM77.6758 53.1444C76.3845 53.1444 75.3094 53.6393 74.6204 54.4154L74.298 53.6393C74.213 53.445 74.1253 53.3794 73.8455 53.3794H71.0708V54.6948C71.0708 54.9316 71.1346 54.9742 71.3073 55.0407L72.3186 55.384V64.0259H74.8347V57.927C74.8347 56.9362 74.964 56.3535 75.3749 55.9446C75.7389 55.5791 76.3429 55.384 77.0293 55.384C77.7183 55.384 78.3214 55.5791 78.6889 55.9446C79.0963 56.3535 79.2256 56.9362 79.2256 57.927V64.0259H81.7426V57.6041C81.7426 55.8816 81.3777 54.9973 80.7099 54.285C79.9775 53.5311 78.859 53.1444 77.6758 53.1444Z" fill="#1D1D1D"/>
<path fill-rule="evenodd" clip-rule="evenodd" d="M29.1893 72.1561L29.8119 60.5544H30.9331L31.5548 72.1561H29.1902H29.1893ZM60.327 32.9283C59.8425 31.6963 58.9498 30.5352 57.9305 29.9462L57.9287 29.9471L45.4175 54.5708C45.5592 56.1966 44.6381 57.9493 42.8731 58.689C45.9126 59.9663 46.4537 64.2425 43.3717 65.7024C39.4687 67.5509 34.5943 62.268 32.2394 58.6917C34.5943 55.1145 39.4687 49.8289 43.3717 51.6792C44.6629 52.2912 45.3156 53.3973 45.4175 54.5708L57.9287 29.948L57.9305 29.9462L33.1392 15.609L33.1321 15.6063L30.3548 14L27.5828 15.6037L27.5739 15.6081L2.78086 29.9454C1.2505 30.8297 0 33.0028 0 34.7741V63.4504L0.00177123 63.4468V64.2637H0.0832487C0.233805 65.0549 0.585398 65.8727 1.06364 66.5876C1.53833 67.2963 2.13524 67.9004 2.78263 68.2747L21.1841 78.9168L27.5775 82.6146L27.6138 82.6341L27.6271 82.6403L27.6581 82.6581L30.3539 84.2165L20.9539 65.7166C19.7353 66.1725 18.5131 66.2417 17.3733 65.7024C14.4277 64.3081 14.7926 60.3433 17.4805 58.8788L17.2041 58.3351C15.8961 57.4881 15.223 56.0183 15.3213 54.6293L15.3054 54.5982L11.3112 46.7351L15.3063 54.5982L15.324 54.5876C15.4214 53.4079 16.075 52.2939 17.3733 51.6783C18.4006 51.1922 19.4953 51.1993 20.5934 51.5399L23.702 49.742C22.9589 48.2661 22.7172 46.7564 23.3725 45.3692C24.8311 42.2824 29.1007 42.8235 30.3743 45.8641C31.646 42.8235 35.9121 42.2816 37.3725 45.3692C39.2181 49.279 33.9416 54.1619 30.3707 56.5204C28.0681 54.9992 25.0552 52.426 23.702 49.742L20.5934 51.5408C23.6674 52.4934 26.7698 56.0556 28.5047 58.6917C26.838 61.224 23.9083 64.6097 20.9548 65.7166L30.3539 84.2165L30.3557 84.2183H30.3566L33.0551 82.6572C33.0661 82.6512 33.0773 82.6456 33.0887 82.6403L33.0993 82.6332C33.1108 82.6261 33.1241 82.6217 33.1365 82.6128L39.2163 79.0977L57.9296 68.2747C58.5956 67.8915 59.2075 67.2635 59.6893 66.53C60.311 65.5774 60.7113 64.4491 60.7113 63.4504L60.7096 34.7741C60.7113 34.1825 60.5687 33.5465 60.327 32.9274V32.9283ZM17.4822 58.8788C17.6071 58.8105 17.7355 58.7458 17.871 58.689C17.6393 58.591 17.4167 58.4726 17.2059 58.3351L17.4822 58.8788ZM15.3213 54.6284L15.3248 54.5876L15.3063 54.5982L15.3213 54.6284Z" fill="#1D1D1D"/>
</g>
</svg>
