<svg width="153" height="43" viewBox="0 0 153 43" fill="none" xmlns="http://www.w3.org/2000/svg">
<path d="M18.9824 2.86666C21.1892 -0.955557 26.7061 -0.955552 28.9128 2.86667L47.1186 34.4C49.3254 38.2222 46.5669 43 42.1534 43H5.74187C1.32836 43 -1.43008 38.2222 0.776675 34.4L18.9824 2.86666Z" fill="#1BF2C2"/>
<path d="M51.4717 2.86666C53.6785 -0.955557 59.1953 -0.955552 61.4021 2.86667L79.6079 34.4C81.8146 38.2222 79.0562 43 74.6427 43H38.2311C33.8176 43 31.0592 38.2222 33.2659 34.4L51.4717 2.86666Z" fill="#00B88F"/>
<path d="M92.4381 39.1333L74.2324 7.59999C72.7954 5.11111 74.5916 2.00001 77.4655 2.00001L113.877 2C116.751 2 118.547 5.1111 117.11 7.59999L98.9044 39.1333C97.4675 41.6222 93.8751 41.6222 92.4381 39.1333Z" stroke="#00B88F" stroke-width="4"/>
<path d="M124.928 39.1333L106.722 7.60004C105.285 5.11116 107.081 2.00005 109.955 2.00005L146.367 2.00004C149.24 2.00004 151.037 5.11114 149.6 7.60003L131.394 39.1333C129.957 41.6222 126.365 41.6222 124.928 39.1333Z" stroke="#1BF2C2" stroke-width="4"/>
</svg>
